<svg width="85" height="79" viewBox="0 0 85 79" fill="none" xmlns="http://www.w3.org/2000/svg">
<circle cx="43" cy="44" r="35" fill="#132936"/>
<circle cx="80" cy="4" r="4" fill="#EC1B24"/>
<circle cx="3" cy="76" r="3" fill="#132936"/>
<circle cx="83.5" cy="16.5" r="1.5" fill="#132936"/>
<path d="M48.3333 46.7631V41.1736H50.6198V39.2298H48.3333V37.286H50.6198V35.3423H48.3333V32.4426C48.3333 29.4367 45.9455 27 43 27C40.0545 27 37.6667 29.4367 37.6667 32.4426V46.7631C36.0335 48.2578 35 50.4208 35 52.8362C35 57.3457 38.581 61 43 61C47.419 61 51 57.3457 51 52.8362C51 50.4212 49.9665 48.2578 48.3333 46.7631ZM43 58.2787C40.059 58.2787 37.6667 55.8374 37.6667 52.8362C37.6667 51.2998 38.3154 49.8245 39.4472 48.7889L40.3333 47.9779V46.7631V32.4429C40.3333 30.9427 41.5299 29.7217 43 29.7217C44.4701 29.7217 45.6667 30.9427 45.6667 32.4429V35.3427H43V37.2864H45.6667V39.2302H43V41.174H45.6667V46.7635V47.9783L46.5528 48.7892C47.6846 49.8245 48.3333 51.2998 48.3333 52.8362C48.3333 55.8374 45.941 58.2787 43 58.2787Z" fill="white"/>
<path d="M43.8889 49.5481V44H42.1111V49.5481C40.3302 49.9301 39 51.4297 39 53.2258C39 55.3104 40.7907 57 43 57C45.2093 57 47 55.3104 47 53.2258C47 51.4297 45.6698 49.9301 43.8889 49.5481Z" fill="white"/>
</svg>
