<svg width="85" height="79" viewBox="0 0 85 79" fill="none" xmlns="http://www.w3.org/2000/svg">
<circle cx="43" cy="44" r="35" fill="#EC1B24"/>
<circle cx="80" cy="4" r="4" fill="#EC1B24"/>
<circle cx="3" cy="76" r="3" fill="#132936"/>
<circle cx="83.5" cy="16.5" r="1.5" fill="#132936"/>
<path d="M56.44 37.3192H52.4248C52.1168 37.3192 51.8648 37.5656 51.8648 37.8792V38.8088H48.8968C44.6744 38.8088 41.2416 42.2416 41.2416 46.4584V49.7008C41.2416 51.084 40.116 52.2152 38.7272 52.2152C37.3384 52.2152 36.2128 51.084 36.2128 49.7008V35.1352H37.0752C37.3832 35.1352 37.6352 34.8832 37.6352 34.5752V30.56C37.6352 30.2464 37.3832 30 37.0752 30H29.56C29.252 30 29 30.2464 29 30.56V34.5752C29 34.8832 29.252 35.1352 29.56 35.1352H30.428V49.7008C30.428 54.276 34.152 58 38.7272 58C43.3024 58 47.0264 54.276 47.0264 49.7008V46.4584C47.0264 45.428 47.8664 44.588 48.8968 44.588H51.8648V45.3888C51.8648 45.7024 52.1168 45.9488 52.4248 45.9488H56.44C56.7536 45.9488 57 45.7024 57 45.3888V37.8792C57 37.5656 56.7536 37.3192 56.44 37.3192Z" fill="white"/>
</svg>
