<svg width="1280" height="292" viewBox="0 0 1280 292" fill="none" xmlns="http://www.w3.org/2000/svg">
<path fill-rule="evenodd" clip-rule="evenodd" d="M367 1.02463C347.149 3.29663 324.682 12.1506 309.348 23.7446C280.244 45.7496 262.061 80.6296 256.906 124.345C255.429 136.865 256.274 168.499 258.387 179.798C264.623 213.148 276.828 237.922 296.909 257.994C307.387 268.466 314.264 273.504 326.5 279.67C344.749 288.867 359.037 291.907 384 291.907C408.963 291.907 423.251 288.867 441.5 279.67C453.713 273.516 460.6 268.477 471.125 257.994C499.46 229.77 513.433 188.79 511.708 138.963C510.768 111.811 505.508 89.6186 494.956 68.2756C470.943 19.7076 423.165 -5.40337 367 1.02463ZM627.247 1.00963C595.683 4.68163 568.81 19.6786 554.693 41.5026C545.338 55.9646 541.516 69.8896 541.683 88.9066C541.861 109.172 547.259 124.779 558.855 138.557C573.316 155.739 592.497 165.28 629 173.45C658.342 180.017 670.301 184.273 675.702 190.07C681.642 196.446 682.699 207.198 678.25 215.971C675.064 222.252 669.71 226.69 661.282 230.033C656.213 232.043 653.835 232.317 642 232.252C630.362 232.189 627.264 231.807 619.537 229.485C603.704 224.728 589.127 215.5 578.268 203.36L572.592 197.013L551.046 218.209C539.196 229.866 529.35 239.99 529.167 240.705C528.663 242.676 549.442 262.682 558.289 268.744C573.027 278.842 588.757 285.425 608.125 289.601C615.023 291.088 621.087 291.4 642.5 291.369C667.349 291.332 668.924 291.215 678.074 288.721C718.251 277.77 744.07 252.719 750.543 218.407C752.712 206.91 752.074 187.914 749.145 176.763C742.215 150.389 724.281 133.861 691.436 123.581C687.001 122.193 675.751 119.411 666.436 117.399C634.234 110.443 623.321 106.454 617.096 99.3636C613.043 94.7466 612 92.0166 612 86.0206C612 78.9786 616.244 71.2456 622.349 67.1656C629.231 62.5666 635.761 60.9066 646.971 60.9066C665.294 60.9066 682.8 67.8426 697.137 80.7836L703.094 86.1596L716.297 73.2026C723.559 66.0766 733.212 56.7326 737.75 52.4386C742.288 48.1446 746 44.2406 746 43.7626C746 42.3616 734.018 30.9396 727.508 26.1346C700.16 5.95063 663.579 -3.21637 627.247 1.00963ZM886.52 2.02163C870.291 4.38463 852.837 10.6886 839.163 19.1256C828.061 25.9756 811.335 42.4246 803.684 54.0176C770.074 104.942 770.009 184.224 803.535 236.071C822.355 265.175 849.26 283.74 882.208 290.359C892.753 292.477 925.439 292.482 937.565 290.368C966.717 285.284 989.092 270.593 1010 242.807C1013.48 238.187 1016.69 233.93 1017.13 233.346C1017.63 232.689 1015.57 230.723 1011.72 228.173C1008.3 225.912 995.536 217.322 983.357 209.085L961.215 194.11L956.518 200.983C944.51 218.558 931.042 225.907 910.845 225.907C894.608 225.907 882.911 220.856 870.4 208.444C863.741 201.837 861.47 198.716 857.64 190.907C849.875 175.077 848.628 168.785 848.616 145.407C848.607 126.41 848.745 124.958 851.357 116.456C857.828 95.3966 869.08 80.8966 885.03 73.0596C895.929 67.7056 905.777 66.0296 916.855 67.6446C935.049 70.2956 946.329 78.0146 958.047 95.8286L959.594 98.1806L987.297 79.9146C1002.53 69.8676 1015 61.1436 1014.99 60.5276C1014.96 56.5626 991.97 31.0386 981.107 22.9036C967.654 12.8286 950.173 5.44863 932.619 2.43263C922.907 0.76363 896.757 0.53063 886.52 2.02163ZM0 146.354V285.907H76.316C126.054 285.907 154.699 285.535 158.566 284.839C193.292 278.59 219.566 256.184 227.673 225.907C229.993 217.241 229.991 198.845 227.669 189.907C222.373 169.527 208.05 153.372 187.268 144.337C179.545 140.98 179.544 140.977 186 137.503C200.449 129.73 211.358 115.813 215.534 99.8266C217.951 90.5736 217.137 68.2026 214.026 58.4066C205.665 32.0796 186.725 16.1056 155.652 9.17363C149.553 7.81263 137.572 7.52063 74.25 7.18963L0 6.80063V146.354ZM1049 146.407V285.907H1084.99H1120.98L1121.24 231.157L1121.5 176.407L1163.75 176.146L1206 175.885V230.896V285.907H1243H1280V146.407V6.90663H1243H1206V58.4176V109.929L1163.75 109.668L1121.5 109.407L1121.24 58.1566L1120.98 6.90663H1084.99H1049V146.407ZM128.878 66.4626C147.52 71.9986 152.697 97.5946 137.76 110.38C130.649 116.467 127.89 116.907 96.822 116.907H69V90.9066V64.9066H96.318C118.13 64.9066 124.693 65.2206 128.878 66.4626ZM396.122 68.3446C409.591 71.1996 421.818 79.8486 429.88 92.2236C446.535 117.786 448.405 163.742 433.997 193.407C423.519 214.981 406.711 225.907 384 225.907C368.955 225.907 356.545 221.113 346.829 211.55C332.25 197.199 324.949 175.682 324.895 146.907C324.856 126.106 327.881 111.708 335.273 97.4976C347.443 74.1066 370.71 62.9586 396.122 68.3446ZM128.934 173.966C137.939 175.427 144.304 178.429 148.845 183.354C153.688 188.609 155.444 193.596 155.321 201.747C155.181 211.008 151.248 218.326 144.117 222.597C141.187 224.351 136.566 226.263 133.846 226.847C130.985 227.46 116.28 227.907 98.951 227.907H69V200.407V172.907L95.75 172.915C110.463 172.919 125.395 173.392 128.934 173.966Z" fill="#EC1B24"/>
</svg>
