<svg width="61" height="42" viewBox="0 0 61 42" fill="none" xmlns="http://www.w3.org/2000/svg">
<rect x="0.5" y="0.5" width="60" height="41" rx="3.5" fill="white" stroke="#F3F3F3"/>
<path d="M27.0827 28.8052H23.0215L25.5617 14.1045H29.6227L27.0827 28.8052Z" fill="#15195A"/>
<path d="M41.8056 14.4638C41.0045 14.1663 39.734 13.8379 38.163 13.8379C34.1524 13.8379 31.3282 15.8396 31.3109 18.7014C31.2776 20.8129 33.3329 21.9856 34.8702 22.6896C36.4414 23.409 36.9755 23.8786 36.9755 24.5199C36.9595 25.5047 35.7059 25.9587 34.5366 25.9587C32.9152 25.9587 32.0464 25.7246 30.7261 25.1767L30.1914 24.9418L29.623 28.2418C30.5756 28.648 32.3305 29.0084 34.1524 29.0242C38.4137 29.0242 41.188 27.0535 41.2208 24.0037C41.2371 22.3302 40.1517 21.048 37.8119 20.0001C36.3914 19.3275 35.5216 18.8739 35.5216 18.1857C35.5382 17.5601 36.2573 16.9192 37.8607 16.9192C39.181 16.8878 40.1511 17.1849 40.8859 17.4821L41.2533 17.6382L41.8056 14.4638Z" fill="#15195A"/>
<path fill-rule="evenodd" clip-rule="evenodd" d="M49.075 14.1045H52.2164L55.4927 28.805H51.7324C51.7324 28.805 51.3644 27.1159 51.2479 26.5998H46.0336C45.8828 26.9906 45.1812 28.805 45.1812 28.805H40.9199L46.9523 15.3242C47.3703 14.3701 48.1063 14.1045 49.075 14.1045ZM48.8247 19.4841C48.8247 19.4841 47.5378 22.7527 47.2033 23.5973H50.5789C50.4119 22.8623 49.6429 19.3434 49.6429 19.3434L49.359 18.0767C49.2395 18.4029 49.0667 18.8513 48.9501 19.1538C48.8711 19.3588 48.8179 19.4968 48.8247 19.4841Z" fill="#15195A"/>
<path fill-rule="evenodd" clip-rule="evenodd" d="M5.42622 14.1045H11.9603C12.846 14.1355 13.5646 14.4013 13.7985 15.3402L15.2185 22.0946C15.2187 22.0951 15.2188 22.0955 15.2189 22.0959L15.6536 24.129L19.6308 14.1045H23.9252L17.5417 28.7896H13.2471L9.6273 16.016C8.37838 15.3326 6.95302 14.783 5.35938 14.4015L5.42622 14.1045Z" fill="#15195A"/>
</svg>
