<svg width="62" height="42" viewBox="0 0 62 42" fill="none" xmlns="http://www.w3.org/2000/svg">
<rect x="0.5" y="0.5" width="61" height="41" rx="3.5" fill="white" stroke="#F3F3F3"/>
<path fill-rule="evenodd" clip-rule="evenodd" d="M10.03 14.7025C10.0519 14.7024 10.0758 14.702 10.1017 14.7015C10.6108 14.693 11.855 14.6722 12.3972 16.4695C12.7809 17.7417 13.3922 19.8256 14.231 22.7212H14.5727C15.4722 19.6684 16.0902 17.5845 16.4266 16.4695C16.9677 14.6754 18.2721 14.693 18.9046 14.7015C18.9449 14.702 18.9824 14.7025 19.0169 14.7025L23.458 14.7026V28.2725H18.9315V20.2755H18.628L16.1047 28.2725H12.699L10.1757 20.2696H9.87221V28.2725H5.3457V14.7026L10.03 14.7025ZM29.958 14.7026V22.7055H30.3191L33.3884 16.1247C33.9842 14.8151 35.2541 14.7026 35.2541 14.7026H39.6344V28.2725H35.0134V20.2696H34.6523L31.6431 26.8503C31.0473 28.154 29.7172 28.2725 29.7172 28.2725H25.3369V14.7026H29.958ZM50.6968 24.2302C52.9379 24.2302 54.9622 22.9453 55.6068 21.1511H41.4564V28.2725H45.8507V24.2302H50.6968Z" fill="#40A548"/>
<path d="M50.9074 14.7021H41.2246C41.4551 17.7233 44.1038 20.3096 46.8457 20.3096H55.9108C56.4339 17.7987 54.633 14.7021 50.9074 14.7021Z" fill="#1291D0"/>
</svg>
