<svg width="61" height="42" viewBox="0 0 61 42" fill="none" xmlns="http://www.w3.org/2000/svg">
<rect x="0.5" y="0.5" width="60" height="41" rx="3.5" fill="white" stroke="#F3F3F3"/>
<path fill-rule="evenodd" clip-rule="evenodd" d="M22.3465 32.4349V33.9856V35.5363H21.6657V35.1597C21.4498 35.439 21.1222 35.6143 20.6768 35.6143C19.7989 35.6143 19.1106 34.9332 19.1106 33.9856C19.1106 33.0387 19.7989 32.3569 20.6768 32.3569C21.1222 32.3569 21.4498 32.5321 21.6657 32.8114V32.4349H22.3465ZM20.7615 32.9926C20.1722 32.9926 19.8116 33.4404 19.8116 33.9856C19.8116 34.5307 20.1722 34.9785 20.7615 34.9785C21.3246 34.9785 21.7047 34.55 21.7047 33.9856C21.7047 33.4211 21.3246 32.9926 20.7615 32.9926ZM45.3518 33.9856C45.3518 33.4404 45.7124 32.9926 46.3017 32.9926C46.8655 32.9926 47.2449 33.4211 47.2449 33.9856C47.2449 34.55 46.8655 34.9785 46.3017 34.9785C45.7124 34.9785 45.3518 34.5307 45.3518 33.9856ZM47.8874 31.1894V33.9856V35.5363H47.2059V35.1597C46.99 35.439 46.6624 35.6143 46.217 35.6143C45.339 35.6143 44.6508 34.9332 44.6508 33.9856C44.6508 33.0387 45.339 32.3569 46.217 32.3569C46.6624 32.3569 46.99 32.5321 47.2059 32.8114V31.1894H47.8874ZM30.7969 32.9607C31.2355 32.9607 31.5174 33.2332 31.5894 33.713H29.9647C30.0374 33.2652 30.3118 32.9607 30.7969 32.9607ZM29.2509 33.9856C29.2509 33.0186 29.8927 32.3569 30.8104 32.3569C31.6876 32.3569 32.2904 33.0186 32.2972 33.9856C32.2972 34.0762 32.2904 34.1608 32.2837 34.2448H29.9587C30.0569 34.8033 30.4565 35.0045 30.8951 35.0045C31.2093 35.0045 31.5437 34.8872 31.8061 34.68L32.1397 35.1798C31.7596 35.4977 31.3277 35.6143 30.8562 35.6143C29.919 35.6143 29.2509 34.9718 29.2509 33.9856ZM39.0307 33.9856C39.0307 33.4404 39.3913 32.9926 39.9806 32.9926C40.5437 32.9926 40.9238 33.4211 40.9238 33.9856C40.9238 34.55 40.5437 34.9785 39.9806 34.9785C39.3913 34.9785 39.0307 34.5307 39.0307 33.9856ZM41.5656 32.4349V33.9856V35.5363H40.8848V35.1597C40.6681 35.439 40.3412 35.6143 39.8959 35.6143C39.0179 35.6143 38.3296 34.9332 38.3296 33.9856C38.3296 33.0387 39.0179 32.3569 39.8959 32.3569C40.3412 32.3569 40.6681 32.5321 40.8848 32.8114V32.4349H41.5656ZM35.186 33.9856C35.186 34.9265 35.8472 35.6143 36.8564 35.6143C37.328 35.6143 37.6421 35.5103 37.9825 35.2444L37.6556 34.6993C37.4 34.8812 37.1315 34.9785 36.8361 34.9785C36.2926 34.9718 35.893 34.5827 35.893 33.9856C35.893 33.3885 36.2926 32.9993 36.8361 32.9926C37.1315 32.9926 37.4 33.0899 37.6556 33.2719L37.9825 32.7267C37.6421 32.4608 37.328 32.3569 36.8564 32.3569C35.8472 32.3569 35.186 33.0446 35.186 33.9856ZM43.1378 32.8114C43.3147 32.5388 43.5704 32.3569 43.9633 32.3569C44.1012 32.3569 44.2976 32.3829 44.4483 32.4415L44.2384 33.0773C44.0945 33.0186 43.9505 32.9993 43.8126 32.9993C43.3672 32.9993 43.1445 33.2845 43.1445 33.7977V35.5363L42.463 35.5363V32.4349H43.1378V32.8114ZM25.7136 32.6814C25.386 32.4675 24.9346 32.3569 24.4368 32.3569C23.6436 32.3569 23.133 32.7334 23.133 33.3498C23.133 33.8556 23.5131 34.1675 24.2134 34.2648L24.535 34.3101C24.9084 34.3621 25.0846 34.4594 25.0846 34.6347C25.0846 34.8746 24.8357 35.0112 24.3708 35.0112C23.8992 35.0112 23.5589 34.8619 23.3294 34.6867L23.0085 35.2117C23.3819 35.4843 23.8535 35.6143 24.3641 35.6143C25.2683 35.6143 25.7924 35.1924 25.7924 34.602C25.7924 34.0569 25.38 33.7717 24.6985 33.6744L24.3776 33.6283C24.0829 33.5897 23.8468 33.5318 23.8468 33.3238C23.8468 33.0966 24.0694 32.9607 24.4428 32.9607C24.8424 32.9607 25.2293 33.1099 25.419 33.2265L25.7136 32.6814ZM33.673 32.8114C33.8492 32.5388 34.1048 32.3569 34.4977 32.3569C34.6356 32.3569 34.8321 32.3829 34.9828 32.4415L34.7728 33.0773C34.6289 33.0186 34.4849 32.9993 34.347 32.9993C33.9016 32.9993 33.679 33.2845 33.679 33.7977V35.5363H32.9982V32.4349H33.673V32.8114ZM28.6879 32.4349H27.5745V31.4939H26.8862V32.4349H26.2512V33.0513H26.8862V34.4661C26.8862 35.1857 27.1681 35.6143 27.9734 35.6143C28.2688 35.6143 28.6092 35.5237 28.8251 35.3744L28.6287 34.7966C28.4255 34.9132 28.2028 34.9718 28.0259 34.9718C27.6855 34.9718 27.5745 34.7639 27.5745 34.4527V33.0513H28.6879V32.4349ZM18.5086 33.5897V35.5363H17.8203V33.8103C17.8203 33.2845 17.5976 32.9926 17.1328 32.9926C16.6807 32.9926 16.3665 33.2785 16.3665 33.817V35.5363H15.6783V33.8103C15.6783 33.2845 15.4496 32.9926 14.9975 32.9926C14.5319 32.9926 14.2305 33.2785 14.2305 33.817V35.5363H13.543V32.4349H14.2245V32.8173C14.4802 32.4542 14.807 32.3569 15.1414 32.3569C15.6198 32.3569 15.9602 32.5648 16.1761 32.9087C16.4647 32.4735 16.8771 32.3502 17.2767 32.3569C18.037 32.3636 18.5086 32.8567 18.5086 33.5897Z" fill="#231F20"/>
<path d="M35.8063 27.1648H25.4883V8.79688H35.8063V27.1648Z" fill="#FF5F00"/>
<path d="M26.1435 17.9815C26.1435 14.2555 27.9046 10.9365 30.6472 8.79755C28.6416 7.23347 26.1105 6.29992 23.3597 6.29992C16.8473 6.29992 11.5684 11.5299 11.5684 17.9815C11.5684 24.4331 16.8473 29.6631 23.3597 29.6631C26.1105 29.6631 28.6416 28.7295 30.6472 27.1655C27.9046 25.0265 26.1435 21.7075 26.1435 17.9815Z" fill="#EB001B"/>
<path d="M49.7261 17.9815C49.7261 24.4331 44.4471 29.6631 37.9348 29.6631C35.184 29.6631 32.6528 28.7295 30.6465 27.1655C33.3898 25.0265 35.151 21.7075 35.151 17.9815C35.151 14.2555 33.3898 10.9365 30.6465 8.79755C32.6528 7.23347 35.184 6.29992 37.9348 6.29992C44.4471 6.29992 49.7261 11.5299 49.7261 17.9815Z" fill="#F79E1B"/>
</svg>
