<svg width="678" height="419" viewBox="0 0 678 419" fill="none" xmlns="http://www.w3.org/2000/svg">
<path d="M197.685 1.68063C305.283 -4.54071 418.098 27.8624 401.514 74.8361C391.92 102.012 423.101 92.157 459.22 82.3047C485.531 75.1264 514.466 67.9481 532.165 75.087C562.064 87.1435 550.113 123.849 564.579 138.639C582.109 156.562 599.852 153.081 618.917 149.6C635.92 146.493 653.976 143.389 673.873 155.467C716.085 181.088 698.533 420.69 681.346 420.656L30.412 419.467L22.6234 419.721C22.6234 419.721 -25.115 350.892 18.1006 310.703C61.3163 270.512 31.6441 252.136 26.3921 236.603C20.3619 218.768 6.29154 187.62 67.5977 164.761C128.904 141.903 113.074 92.1668 111.567 81.8692C110.06 71.5692 90.0866 7.89951 197.685 1.68063Z" fill="#DAF1FF"/>
<path d="M604.164 395.087V414.265C604.164 417.367 569.562 419.881 526.883 419.881C484.201 419.881 449.6 417.367 449.6 414.265V395.087H604.164Z" fill="#E59F39"/>
<path d="M548.236 419.662V395.087H604.164V414.265C604.164 416.828 580.532 418.991 548.236 419.662Z" fill="#EAB054"/>
<path d="M545.633 419.714C539.629 419.822 533.349 419.881 526.883 419.881C517.247 419.881 508.022 419.753 499.516 419.517V395.087H545.633V419.714Z" fill="#EAB054"/>
<path d="M496.418 419.429C468.884 418.568 449.6 416.58 449.6 414.265V395.087H496.418V419.429Z" fill="#EAB054"/>
<path d="M449.6 394.882C449.6 397.982 484.201 400.496 526.883 400.496C569.562 400.496 604.164 397.982 604.164 394.882C604.164 391.78 569.562 389.269 526.883 389.269C484.201 389.269 449.6 391.78 449.6 394.882Z" fill="#E59F39"/>
<path d="M463.244 394.883C463.244 397.033 491.736 398.774 526.883 398.774C562.028 398.774 590.522 397.033 590.522 394.883C590.522 392.733 562.028 390.991 526.883 390.991C491.736 390.991 463.244 392.733 463.244 394.883Z" fill="#F7CC7F"/>
<path d="M617.384 374.789V393.969C617.384 397.069 582.785 399.583 540.103 399.583C497.421 399.583 462.822 397.069 462.822 393.969V374.789H617.384Z" fill="#E59F39"/>
<path d="M561.457 399.367V374.789H617.385V393.97C617.385 396.533 593.753 398.693 561.457 399.367Z" fill="#EAB054"/>
<path d="M558.856 399.418C552.852 399.526 546.57 399.583 540.103 399.583C530.468 399.583 521.243 399.455 512.736 399.221V374.789H558.856V399.418Z" fill="#EAB054"/>
<path d="M509.641 399.131C482.106 398.272 462.822 396.285 462.822 393.97V374.789H509.641V399.131Z" fill="#EAB054"/>
<path d="M462.822 374.585C462.822 377.687 497.421 380.201 540.103 380.201C582.785 380.201 617.384 377.687 617.384 374.585C617.384 371.485 582.785 368.971 540.103 368.971C497.421 368.971 462.822 371.485 462.822 374.585Z" fill="#E59F39"/>
<path d="M476.465 374.585C476.465 376.735 504.956 378.479 540.104 378.479C575.252 378.479 603.743 376.735 603.743 374.585C603.743 372.435 575.252 370.694 540.104 370.694C504.956 370.694 476.465 372.435 476.465 374.585Z" fill="#F7CC7F"/>
<path d="M608.573 353.953V373.133C608.573 376.235 573.975 378.747 531.293 378.747C488.611 378.747 454.012 376.235 454.012 373.133V353.953H608.573Z" fill="#E59F39"/>
<path d="M552.646 378.53V353.952H608.574V373.133C608.574 375.696 584.942 377.859 552.646 378.53Z" fill="#EAB054"/>
<path d="M550.045 378.582C544.043 378.69 537.761 378.747 531.295 378.747C521.659 378.747 512.434 378.619 503.928 378.385V353.953H550.045V378.582Z" fill="#EAB054"/>
<path d="M500.83 378.295C473.296 377.436 454.012 375.449 454.012 373.134V353.953H500.83V378.295Z" fill="#EAB054"/>
<path d="M454.012 353.751C454.012 356.851 488.611 359.365 531.293 359.365C573.975 359.365 608.573 356.851 608.573 353.751C608.573 350.649 573.975 348.135 531.293 348.135C488.611 348.135 454.012 350.649 454.012 353.751Z" fill="#E59F39"/>
<path d="M467.654 353.751C467.654 355.898 496.146 357.643 531.293 357.643C566.441 357.643 594.932 355.898 594.932 353.751C594.932 351.601 566.441 349.857 531.293 349.857C496.146 349.857 467.654 351.601 467.654 353.751Z" fill="#F7CC7F"/>
<path d="M617.384 333.405V352.583C617.384 355.685 582.785 358.199 540.103 358.199C497.421 358.199 462.822 355.685 462.822 352.583V333.405H617.384Z" fill="#E59F39"/>
<path d="M561.457 357.979V333.404H617.385V352.582C617.385 355.146 593.753 357.308 561.457 357.979Z" fill="#EAB054"/>
<path d="M558.856 358.032C552.852 358.14 546.57 358.199 540.103 358.199C530.468 358.199 521.243 358.071 512.736 357.835V333.405H558.856V358.032Z" fill="#EAB054"/>
<path d="M509.641 357.746C482.106 356.885 462.822 354.897 462.822 352.583V333.404H509.641V357.746Z" fill="#EAB054"/>
<path d="M462.822 333.201C462.822 336.3 497.421 338.814 540.103 338.814C582.785 338.814 617.384 336.3 617.384 333.201C617.384 330.099 582.785 327.587 540.103 327.587C497.421 327.587 462.822 330.099 462.822 333.201Z" fill="#E59F39"/>
<path d="M476.465 333.2C476.465 335.35 504.956 337.092 540.104 337.092C575.252 337.092 603.743 335.35 603.743 333.2C603.743 331.05 575.252 329.306 540.104 329.306C504.956 329.306 476.465 331.05 476.465 333.2Z" fill="#F7CC7F"/>
<path d="M653.34 310.096L648.699 326.3C647.948 328.919 618.111 322.671 582.053 312.346C545.997 302.022 517.375 291.527 518.126 288.908L522.769 272.706L653.34 310.096Z" fill="#E59F39"/>
<path d="M600.146 317.328L606.094 296.566L653.34 310.096L648.699 326.3C648.079 328.465 627.592 324.573 600.146 317.328Z" fill="#EAB054"/>
<path d="M597.936 316.743C592.837 315.383 587.517 313.912 582.055 312.347C573.915 310.015 566.154 307.676 559.023 305.42L564.936 284.78L603.898 295.937L597.936 316.743Z" fill="#EAB054"/>
<path d="M556.43 304.596C533.376 297.208 517.567 290.864 518.128 288.908L522.771 272.707L562.321 284.032L556.43 304.596Z" fill="#EAB054"/>
<path d="M522.819 272.534C522.069 275.151 550.688 285.646 586.746 295.97C622.802 306.297 652.639 312.543 653.39 309.923C654.14 307.304 625.521 296.812 589.463 286.485C553.407 276.16 523.57 269.914 522.819 272.534Z" fill="#E59F39"/>
<path d="M534.342 275.833C533.823 277.649 557.47 286.015 587.162 294.517C616.855 303.021 641.345 308.441 641.867 306.625C642.386 304.807 618.739 296.443 589.047 287.942C559.355 279.437 534.864 274.018 534.342 275.833Z" fill="#F7CC7F"/>
<path d="M611.116 198.577L616.06 214.692C616.859 217.297 588.437 228.32 552.578 239.314C516.722 250.308 487.005 257.11 486.205 254.505L481.262 238.392L611.116 198.577Z" fill="#E59F39"/>
<path d="M570.464 233.632L564.131 212.983L611.116 198.577L616.06 214.692C616.719 216.845 597.423 224.749 570.464 233.632Z" fill="#EAB054"/>
<path d="M568.29 234.345C563.275 235.983 558.012 237.649 552.579 239.314C544.484 241.796 536.703 244.065 529.496 246.06L523.199 225.533L561.944 213.654L568.29 234.345Z" fill="#EAB054"/>
<path d="M526.869 246.781C503.516 253.152 486.801 256.449 486.205 254.505L481.262 238.392L520.595 226.331L526.869 246.781Z" fill="#EAB054"/>
<path d="M481.21 238.22C482.01 240.825 511.724 234.023 547.583 223.029C583.441 212.035 611.862 201.012 611.064 198.407C610.265 195.802 580.548 202.601 544.689 213.595C508.83 224.591 480.41 235.614 481.21 238.22Z" fill="#E59F39"/>
<path d="M492.672 234.707C493.225 236.513 517.613 230.638 547.14 221.583C576.668 212.53 600.157 203.726 599.603 201.92C599.049 200.115 574.662 205.989 545.135 215.042C515.605 224.097 492.116 232.899 492.672 234.707Z" fill="#F7CC7F"/>
<path d="M319.557 309.201C263.172 264.311 215.796 206.25 179.924 138.076C154.073 158.839 128.222 179.599 102.371 200.361C143.846 279.184 198.624 346.315 263.817 398.216C282.397 368.544 300.977 338.874 319.557 309.201Z" fill="#3C8F7C"/>
<path d="M167.78 154.354C151.722 167.459 135.664 180.561 119.606 193.663C123.43 200.789 122.043 210.406 116.346 215.284C152.806 279.736 198.5 335.735 251.71 381.176C256.06 374.647 264.259 373.381 270.152 378.16C281.867 359.737 293.585 341.312 305.3 322.889C299.876 318.491 299.104 309.499 303.452 302.975C256.725 263.072 216.598 213.896 184.581 157.297C178.888 162.172 171.3 160.915 167.78 154.354Z" fill="#96D9C9"/>
<path d="M232.677 301.693C244.716 286.161 244.601 263.246 233.244 249.537C221.857 235.864 202.402 235.222 188.944 249.045C175.506 262.838 174.222 287.357 187.023 302.751C199.81 318.163 220.663 317.201 232.677 301.693Z" fill="#50BFA5"/>
<path d="M231.88 257.614C230.367 259.295 228.854 260.972 227.341 262.65C230.96 269.282 230.194 276.136 226.292 280.615C222.353 285.122 217.942 285.54 211.218 281.558C206.334 278.8 203.987 277.986 202.499 279.597C201.24 280.957 200.823 283.427 203.491 286.8C204.941 288.63 206.389 289.853 207.672 290.714C209.381 291.863 209.92 294.458 208.868 296.455C207.849 298.384 205.698 299.024 204.051 297.85C202.705 296.891 201.234 295.582 199.648 293.764C198.339 295.211 197.03 296.652 195.721 298.096C194.35 296.379 192.987 294.65 191.633 292.915C193.058 291.371 194.482 289.828 195.907 288.283C192.45 281.609 193.137 274.972 197.15 270.763C201.578 266.114 206.699 267.543 212.57 271.223C216.64 273.762 219 274.163 220.686 272.288C222.463 270.308 221.884 267.29 219.646 264.436C218.108 262.475 216.325 260.982 214.567 259.875C212.839 258.785 212.37 256.126 213.531 254.138C213.574 254.065 213.616 253.991 213.658 253.92C214.712 252.114 216.726 251.504 218.261 252.505C220.102 253.706 222.083 255.423 223.832 257.459C225.253 255.912 226.674 254.362 228.094 252.813C229.348 254.421 230.61 256.023 231.88 257.614Z" fill="#3C8F7C"/>
<path d="M277.099 341.663C264.25 330.662 251.867 319.007 239.982 306.729C237.945 309.376 235.908 312.025 233.871 314.672C245.923 327.122 258.48 338.943 271.509 350.096C273.371 347.284 275.234 344.473 277.099 341.663Z" fill="#50BFA5"/>
<path d="M308.062 291.102C237.238 282.121 167.781 258.431 103.347 221.28C91.0981 249.971 78.8488 278.665 66.5996 307.356C141.099 350.312 221.407 377.704 303.295 388.085C304.882 355.759 306.472 323.429 308.062 291.102Z" fill="#3C8F7C"/>
<path d="M100.784 239.937C93.276 257.925 85.7681 275.91 78.2598 293.897C85.0602 297.747 88.5609 306.033 86.0093 312.596C149.133 346.517 216.124 369.365 284.463 380.283C285.042 373.045 291.528 368.167 298.974 369.176C300.115 349.016 301.257 328.859 302.399 308.702C295.548 307.772 290.48 301.004 291.058 293.772C231.044 284.185 172.215 264.119 116.783 234.333C114.234 240.892 107.043 243.48 100.784 239.937Z" fill="#96D9C9"/>
<path d="M229.094 326.2C231.93 308.185 220.622 290.052 204.075 284.539C187.519 279.071 170.343 287.752 165.44 305.083C160.542 322.379 171.422 342.445 190.046 348.613C208.665 354.802 226.267 344.185 229.094 326.2Z" fill="#50BFA5"/>
<path d="M206.844 291.595C206.354 293.644 205.864 295.691 205.373 297.738C211.754 301.29 214.442 307.091 213.251 312.491C212.042 317.93 208.423 320.345 200.648 320.363C195.067 320.481 192.634 320.943 192.133 322.926C191.708 324.601 192.554 326.759 196.516 328.173C198.668 328.941 200.52 329.226 202.053 329.305C204.096 329.408 205.833 331.214 205.897 333.295C205.958 335.307 204.408 336.832 202.406 336.677C200.77 336.554 198.855 336.21 196.591 335.516C196.164 337.282 195.735 339.046 195.307 340.81C193.278 340.094 191.252 339.366 189.229 338.631C189.709 336.731 190.189 334.832 190.668 332.933C184.408 329.27 181.758 323.681 183.176 318.444C184.74 312.66 189.877 311.374 196.765 311.521C201.535 311.612 203.776 310.815 204.32 308.53C204.891 306.119 202.913 303.996 199.577 302.791C197.285 301.962 195.01 301.617 192.944 301.571C190.915 301.524 189.207 299.635 189.241 297.507C189.242 297.43 189.243 297.352 189.244 297.275C189.275 295.344 190.721 293.908 192.542 293.977C194.725 294.06 197.281 294.486 199.793 295.275C200.268 293.376 200.741 291.475 201.215 289.576C203.088 290.259 204.965 290.931 206.844 291.595Z" fill="#3C8F7C"/>
<path d="M275.54 148.211C273.822 147.635 272.132 146.986 270.498 146.201C268.652 145.313 266.261 144.275 264.75 144.044C261.568 143.554 256.105 143.879 253.088 147.141C249.329 151.205 242.649 147.874 243.995 169.155C245.518 193.241 258.96 190.597 259.285 190.188C259.612 189.782 271.273 174.779 271.273 174.779C271.273 174.779 275.35 183.667 275.35 183.34C275.35 183.025 296.172 155.136 275.54 148.211Z" fill="#0E2E35"/>
<path d="M289.707 306.999C233.984 329.009 172.504 339.07 108.504 336.654C112.751 363.879 116.999 391.106 121.246 418.331C195.245 421.126 266.331 409.492 330.757 384.044C317.074 358.364 303.39 332.681 289.707 306.999Z" fill="#3C8F7C"/>
<path d="M115.203 352.147C117.99 369.146 120.777 386.142 123.564 403.141C130.286 403.34 136.64 408.324 137.794 414.449C199.357 414.9 258.655 405.197 313.458 385.702C310.557 379.864 313.042 373.431 318.928 371.168C310.507 355.092 302.085 339.018 293.662 322.942C288.244 325.023 281.442 321.855 278.544 316.02C230.42 333.139 178.348 341.66 124.287 341.264C125.44 347.385 121.389 352.329 115.203 352.147Z" fill="#96D9C9"/>
<path d="M248.287 366.47C242.083 351.361 225.52 341.946 210.934 344.443C196.361 346.98 187.833 360.726 192.217 376.15C196.589 391.547 213.728 402.635 230.127 399.793C246.534 396.972 254.484 381.552 248.287 366.47Z" fill="#50BFA5"/>
<path d="M216.189 348.775C216.772 350.561 217.355 352.347 217.937 354.133C224.217 354.273 228.839 357.666 230.449 362.332C232.066 367.038 230.538 370.389 224.881 373.582C220.869 375.956 219.309 377.309 219.855 379.05C220.313 380.522 221.92 381.845 225.457 381.321C227.376 381.036 228.857 380.497 230.01 379.931C231.546 379.176 233.64 379.865 234.642 381.449C235.611 382.984 235.181 384.797 233.652 385.498C232.403 386.071 230.85 386.588 228.883 386.977C229.381 388.519 229.879 390.059 230.377 391.601C228.57 391.874 226.76 392.14 224.948 392.396C224.426 390.731 223.904 389.065 223.381 387.4C217.138 387.122 212.641 383.877 211.271 379.242C209.755 374.126 212.907 371.028 217.993 368.325C221.51 366.445 222.777 364.913 222.125 362.92C221.434 360.819 219.018 359.985 216.034 360.414C213.983 360.709 212.168 361.375 210.642 362.182C209.142 362.977 207.03 362.212 206.078 360.551C206.043 360.49 206.008 360.431 205.974 360.369C205.109 358.861 205.503 357.156 206.862 356.468C208.491 355.639 210.548 354.923 212.742 354.507C212.215 352.842 211.688 351.176 211.16 349.511C212.839 349.275 214.515 349.029 216.189 348.775Z" fill="#3C8F7C"/>
<path d="M295.503 351.038C282.25 355.734 268.719 359.823 254.943 363.294C256.008 365.86 257.072 368.423 258.136 370.989C272.105 367.468 285.826 363.323 299.266 358.561C298.011 356.054 296.758 353.545 295.503 351.038Z" fill="#50BFA5"/>
<path d="M197.771 396.79V416.735C197.771 419.96 233.751 422.573 278.135 422.573C322.517 422.573 358.496 419.96 358.496 416.735V396.79H197.771Z" fill="#E59F39"/>
<path d="M255.928 422.349V396.79H197.771V416.735C197.771 419.4 222.346 421.648 255.928 422.349Z" fill="#EAB054"/>
<path d="M258.635 422.401C264.877 422.514 271.41 422.573 278.135 422.573C288.155 422.573 297.746 422.44 306.592 422.196V396.79H258.635V422.401Z" fill="#EAB054"/>
<path d="M309.814 422.103C338.446 421.21 358.498 419.144 358.498 416.735V396.79H309.814V422.103Z" fill="#EAB054"/>
<path d="M358.496 396.577C358.496 399.803 322.517 402.417 278.135 402.417C233.751 402.417 197.771 399.803 197.771 396.577C197.771 393.355 233.751 390.74 278.135 390.74C322.517 390.74 358.496 393.355 358.496 396.577Z" fill="#E59F39"/>
<path d="M344.313 396.578C344.313 398.814 314.684 400.627 278.136 400.627C241.587 400.627 211.959 398.814 211.959 396.578C211.959 394.345 241.587 392.531 278.136 392.531C314.684 392.531 344.313 394.345 344.313 396.578Z" fill="#F7CC7F"/>
<path d="M184.023 375.685V395.631C184.023 398.853 220.003 401.468 264.386 401.468C308.768 401.468 344.747 398.853 344.747 395.631V375.685H184.023Z" fill="#E59F39"/>
<path d="M242.18 401.242V375.685H184.023V395.63C184.023 398.295 208.598 400.543 242.18 401.242Z" fill="#EAB054"/>
<path d="M244.887 401.296C251.13 401.407 257.661 401.468 264.386 401.468C274.405 401.468 283.997 401.335 292.843 401.092V375.685H244.887V401.296Z" fill="#EAB054"/>
<path d="M296.062 400.996C324.694 400.103 344.746 398.036 344.746 395.63V375.685H296.062V400.996Z" fill="#EAB054"/>
<path d="M344.747 375.473C344.747 378.699 308.768 381.311 264.386 381.311C220.003 381.311 184.023 378.699 184.023 375.473C184.023 372.248 220.003 369.636 264.386 369.636C308.768 369.636 344.747 372.248 344.747 375.473Z" fill="#E59F39"/>
<path d="M330.562 375.473C330.562 377.709 300.933 379.52 264.386 379.52C227.837 379.52 198.209 377.709 198.209 375.473C198.209 373.237 227.837 371.424 264.386 371.424C300.933 371.424 330.562 373.237 330.562 375.473Z" fill="#F7CC7F"/>
<path d="M193.184 354.02V373.963C193.184 377.188 229.163 379.8 273.546 379.8C317.929 379.8 353.908 377.188 353.908 373.963V354.02H193.184Z" fill="#E59F39"/>
<path d="M251.34 379.577V354.02H193.184V373.963C193.184 376.627 217.758 378.876 251.34 379.577Z" fill="#EAB054"/>
<path d="M254.047 379.628C260.291 379.741 266.821 379.8 273.546 379.8C283.566 379.8 293.157 379.667 302.003 379.424V354.02H254.047V379.628Z" fill="#EAB054"/>
<path d="M305.225 379.331C333.856 378.438 353.908 376.371 353.908 373.963V354.02H305.225V379.331Z" fill="#EAB054"/>
<path d="M353.908 353.806C353.908 357.031 317.929 359.646 273.546 359.646C229.163 359.646 193.184 357.031 193.184 353.806C193.184 350.583 229.163 347.968 273.546 347.968C317.929 347.968 353.908 350.583 353.908 353.806Z" fill="#E59F39"/>
<path d="M339.722 353.806C339.722 356.042 310.094 357.855 273.546 357.855C236.997 357.855 207.369 356.042 207.369 353.806C207.369 351.572 236.997 349.759 273.546 349.759C310.094 349.759 339.722 351.572 339.722 353.806Z" fill="#F7CC7F"/>
<path d="M184.023 332.65V352.593C184.023 355.818 220.003 358.433 264.386 358.433C308.768 358.433 344.747 355.818 344.747 352.593V332.65H184.023Z" fill="#E59F39"/>
<path d="M242.18 358.207V332.65H184.023V352.593C184.023 355.259 208.598 357.505 242.18 358.207Z" fill="#EAB054"/>
<path d="M244.887 358.258C251.13 358.372 257.661 358.433 264.386 358.433C274.405 358.433 283.997 358.298 292.843 358.054V332.65H244.887V358.258Z" fill="#EAB054"/>
<path d="M296.062 357.96C324.694 357.067 344.746 355.001 344.746 352.593V332.649H296.062V357.96Z" fill="#EAB054"/>
<path d="M344.747 332.438C344.747 335.661 308.768 338.276 264.386 338.276C220.003 338.276 184.023 335.661 184.023 332.438C184.023 329.213 220.003 326.598 264.386 326.598C308.768 326.598 344.747 329.213 344.747 332.438Z" fill="#E59F39"/>
<path d="M330.562 332.438C330.562 334.672 300.933 336.485 264.386 336.485C227.837 336.485 198.209 334.672 198.209 332.438C198.209 330.202 227.837 328.389 264.386 328.389C300.933 328.389 330.562 330.202 330.562 332.438Z" fill="#F7CC7F"/>
<path d="M329.912 399.062L331.824 409.217C331.93 410.536 331.89 413.874 332.176 415.028C333.249 419.362 351.479 408.828 346.696 407.982C346.263 407.906 343.126 404.733 342.407 403.389C341.157 401.05 340.008 396.693 340.008 396.693L329.912 399.062Z" fill="#F7A491"/>
<path d="M345.791 407.35C345.791 407.35 341.086 408.516 338.69 408.755C336.296 408.993 333.222 405.274 331.505 405.977C329.613 406.752 328.584 418.553 328.584 418.553C328.584 418.553 358.655 419.923 365.762 417.96C368.579 417.183 355.149 410.934 345.791 407.35Z" fill="#EC1B24"/>
<path d="M371.842 398.6L373.754 408.755C373.862 410.076 373.82 413.412 374.106 414.566C375.178 418.9 393.074 409.06 388.291 408.214C387.858 408.138 385.058 404.27 384.339 402.927C383.089 400.588 381.94 396.231 381.94 396.231L371.842 398.6Z" fill="#F7A491"/>
<path d="M387.26 407.35C387.26 407.35 382.553 408.516 380.159 408.755C377.764 408.993 374.691 405.274 372.974 405.977C371.081 406.752 370.053 418.553 370.053 418.553C370.053 418.553 400.124 419.923 407.23 417.96C410.048 417.183 396.618 410.934 387.26 407.35Z" fill="#EC1B24"/>
<path d="M267.578 297.157L322.285 284.471C322.285 284.471 346.817 277.986 352.74 285.597C358.663 293.208 383.81 398.263 383.81 398.263C383.81 398.263 370.838 399.389 369.992 398.826L339.628 344.945C336.739 339.821 334.839 334.197 334.027 328.372L331.872 312.943L309.596 319.427C309.596 319.427 283.934 325.065 273.501 318.583C263.065 312.099 267.578 297.157 267.578 297.157Z" fill="#0F202A"/>
<path d="M288.585 202.865C289.449 202.9 291.816 203.689 295.28 210.211C299.702 218.536 306.164 243.689 306.164 243.689L286.873 250.845L284.395 245.596L280.312 205.18C280.312 205.18 288.346 202.856 288.585 202.865Z" fill="#599DAD"/>
<path d="M263.087 199.239C268.603 199.247 282.25 200.851 288.586 202.868C288.586 202.868 293.239 242.72 284.396 273.002C282.417 279.782 286.034 301.103 286.034 301.103L228.873 300.353C228.873 300.353 235.645 248.806 233.094 240.479C230.543 232.154 230.482 203.136 230.482 203.136C230.482 203.136 230.874 203.074 243.324 200.929C249.132 199.931 257.197 199.232 263.087 199.239Z" fill="#6BB7BF"/>
<path d="M229.859 207.564C235.203 205.566 237.818 253.546 238.538 273.295C248.002 274.2 264.498 273.3 268.607 272.993C270.539 272.85 274.993 271.224 276.914 270.973C278.883 270.717 280.667 270.582 281.634 270.749C281.991 270.811 291.855 274.83 292.699 275.713C293.745 276.806 296.575 279.563 296.097 280.756C295.62 281.949 290.657 277.433 290.657 277.433L288.231 276.077C291.25 279.017 297.01 282.889 296.181 284.299C295.371 285.674 290.175 281.745 286.471 279.066C289.648 281.925 293.595 287.042 292.684 287.839C291.868 288.555 287.379 282.633 282.581 280.926C280.805 280.294 279.033 282.045 277.633 282.257C276.607 282.412 275.02 282.742 274.011 282.459L269.193 281.994C267.424 282.154 267.003 282.193 265.216 282.572C263.142 283.012 259.739 283.475 257.097 284.117C241.885 287.821 236.811 289.541 232.154 289.539C218.046 289.529 217.228 212.285 229.859 207.564Z" fill="#F7A491"/>
<path d="M219.717 252.608C218.716 232.38 218.862 207.448 230.243 203.194C234.734 201.514 242.65 211.608 241.226 253.019C235.151 253.519 226.231 253.922 219.717 252.608Z" fill="#599DAD"/>
<path d="M346.48 240.247L292.627 243.762C291.202 243.856 289.974 244.8 289.522 246.153L275.58 287.668L245.891 289.607C245.06 289.663 244.432 290.379 244.486 291.208C244.54 292.037 245.257 292.665 246.087 292.611L330.587 287.093C332.91 286.943 334.928 285.44 335.74 283.26L350.006 244.985C350.897 242.594 349.027 240.08 346.48 240.247Z" fill="#EC1B24"/>
<path d="M319.646 265.9C319.538 267.753 318.136 269.179 316.514 269.086C314.89 268.993 313.662 267.416 313.768 265.561C313.876 263.708 315.279 262.282 316.9 262.375C318.524 262.469 319.752 264.048 319.646 265.9Z" fill="white"/>
<path d="M228.907 299.051L288.522 288.761C288.522 288.761 314.297 284.835 320.22 292.446C326.14 300.058 343.342 398.731 343.342 398.731C343.342 398.731 330.37 399.86 329.526 399.294C328.869 398.859 313.165 365.963 306.11 351.142C303.871 346.436 302.299 341.447 301.43 336.311L299.164 322.881L291.662 325.462C278.48 330.001 264.432 331.575 250.596 329.856C244.803 329.137 239.397 327.9 236.043 325.816C225.61 319.332 228.907 299.051 228.907 299.051Z" fill="#132936"/>
<path d="M265.335 191.967L266.497 200.575C266.497 200.575 269.095 212.973 265.751 215.364C262.407 217.755 251.529 200.221 251.529 200.221L252.678 178.413L265.335 191.967Z" fill="#F7A491"/>
<path d="M252.307 185.48C255.069 192.919 261.649 197.492 266.319 199.263L265.335 191.967L252.678 178.412L252.307 185.48Z" fill="#F47458"/>
<path d="M264.648 154.681C271.735 153.542 278.088 159.22 277.914 166.287C277.835 169.36 277.584 173.195 276.942 177.325C275.401 187.261 268.598 196.009 264.1 195.229C259.602 194.447 248.283 185.876 250.276 171.739C251.507 163.011 257.212 155.877 264.648 154.681Z" fill="#F7A491"/>
<path d="M253.398 173.426C253.018 175.61 251.262 177.131 249.475 176.821C247.688 176.511 246.547 174.486 246.926 172.302C247.306 170.117 249.062 168.597 250.849 168.909C252.636 169.219 253.777 171.241 253.398 173.426Z" fill="#F7A491"/>
<path d="M250.85 168.91C250.85 168.91 256.289 170.256 258.308 166.77C260.326 163.284 267.543 155.764 276.719 158.883C285.892 162 268.643 151.299 267.91 151.299C267.176 151.299 258.367 151.237 258.367 151.237C258.367 151.237 251.579 156.802 251.335 157.415C251.09 158.027 249.133 164.691 249.133 164.691L250.85 168.91Z" fill="#0E2E35"/>
<path d="M344.58 161.684L345.54 173.357L352.321 165.721L374.253 147.763L355.55 153.655C355.55 153.655 346.342 158.127 345.919 158.718C345.495 159.308 344.58 161.684 344.58 161.684Z" fill="#922328"/>
<path d="M334.641 156.672L374.252 147.764L344.579 161.685L334.641 156.672Z" fill="#EC1B24"/>
<path d="M359.813 170.33L347.604 164.239L374.252 147.764L359.813 170.33Z" fill="#EC1B24"/>
<path d="M339.954 168.167C341.785 167.478 343.134 167.33 343.146 167.328L343.057 166.479C342.998 166.486 341.586 166.641 339.654 167.367L339.954 168.167Z" fill="#922328"/>
<path d="M330.35 176.265C331.208 174.164 332.456 172.334 334.053 170.823L334.641 171.443C333.13 172.87 331.951 174.6 331.139 176.587L330.35 176.265ZM329.277 189.153C328.937 186.853 328.829 184.676 328.954 182.676L329.806 182.73C329.685 184.668 329.791 186.789 330.121 189.027L330.128 189.077L329.282 189.192L329.277 189.153ZM330.232 195.578L331.076 195.458C331.435 197.955 331.688 199.994 331.88 201.879L331.031 201.965C330.842 200.093 330.588 198.063 330.232 195.578ZM331.447 208.368L332.298 208.348C332.353 210.666 332.284 212.791 332.089 214.845L331.24 214.764C331.43 212.744 331.499 210.651 331.447 208.368ZM328 227.03C328.418 226.151 328.802 225.236 329.144 224.309C329.53 223.261 329.872 222.164 330.16 221.049L330.984 221.261C330.692 222.402 330.34 223.527 329.944 224.604C329.594 225.556 329.198 226.496 328.77 227.396L328 227.03ZM320.406 237.155C322.011 235.689 323.455 234.109 324.7 232.461L325.382 232.973C324.105 234.665 322.626 236.284 320.98 237.785L320.406 237.155Z" fill="#922328"/>
</svg>
