<svg width="744" height="419" viewBox="0 0 744 419" fill="none" xmlns="http://www.w3.org/2000/svg">
<path d="M47.0948 419.327C47.0948 419.327 -45.7713 319.567 31.3893 211.564C99.8518 115.735 179.673 122.285 238.236 161.172C263.179 177.737 335.091 163.215 396.296 65.7057C479.766 -67.2692 769.102 13.381 716.346 217.967C690.817 316.973 794.042 320.569 741.446 419.537L47.0948 419.327Z" fill="#DAF1FF"/>
<path d="M334.797 236.159C334.797 236.159 343.235 229.878 344.846 229.315C346.456 228.751 351.756 228.07 352.011 228.509C352.266 228.948 353.016 230.287 352.096 230.765C351.176 231.244 350.018 231.103 350.371 231.417C350.721 231.732 354.185 229.907 355.023 231.774C355.861 233.644 356.679 240.086 352.617 242.123C348.554 244.16 338.41 242.585 337.684 242.824C331.533 244.845 334.797 236.159 334.797 236.159Z" fill="#599DAD"/>
<path d="M337.828 238.396C337.53 233.408 335.006 232.927 335.006 232.927C335.006 232.927 286.368 230.553 282.158 229.78C277.952 229.007 238.626 195.897 238.626 195.897C238.626 195.897 223.399 181.981 213.006 187.005C203.975 191.367 201.279 199.663 200.963 207.244C200.587 216.277 205.553 224.612 213.365 228.273C230.901 236.497 265.968 252.626 273.906 253.913C291.579 256.779 336.656 245.447 336.656 245.447C336.656 245.447 338.067 242.316 337.828 238.396Z" fill="#599DAD"/>
<path d="M491.901 197.953V419.35H331.436V197.953H491.901Z" fill="#922328"/>
<path d="M450.8 197.953V419.35H289.336V197.953H450.8Z" fill="#EC1B24"/>
<path d="M289.336 226.803H450.8V225.722H289.336V226.803Z" fill="#922328"/>
<path d="M289.336 392.59H450.8V390.5H289.336V392.59Z" fill="#922328"/>
<path d="M325.431 212.38C325.431 207.421 321.414 203.403 316.459 203.403C311.503 203.403 307.486 207.421 307.486 212.38C307.486 217.335 311.503 221.356 316.459 221.356C321.414 221.356 325.431 217.335 325.431 212.38Z" fill="#922328"/>
<path d="M246.681 419.386H282.799C282.23 418.01 280.851 416.216 277.5 415.63C271.81 414.631 261.935 411.552 263.202 403.338C264.485 395.01 250.632 393.936 250.632 393.936C250.632 393.936 244.868 416.216 246.681 419.386Z" fill="#2C3A64"/>
<path d="M413.79 221.356H437.719C441.283 221.356 444.197 218.438 444.197 214.875V209.884C444.197 206.321 441.283 203.403 437.719 203.403H413.79C410.229 203.403 407.312 206.321 407.312 209.884V214.875C407.312 218.438 410.229 221.356 413.79 221.356Z" fill="#922328"/>
<path d="M335.585 220.145H358.322C359.837 220.145 361.078 218.904 361.078 217.387V208.859C361.078 207.343 359.837 206.105 358.322 206.105H335.585C334.073 206.105 332.832 207.343 332.832 208.859V217.387C332.832 218.904 334.073 220.145 335.585 220.145Z" fill="#922328"/>
<path d="M359.21 243.004C391.62 243.004 417.891 270.809 417.891 305.108C417.891 339.404 391.62 367.209 359.21 367.209C326.804 367.209 300.529 339.404 300.529 305.108C300.529 270.809 326.804 243.004 359.21 243.004Z" fill="#5F1115"/>
<path d="M183.435 335.805C183.733 336.509 184.125 337.131 184.609 337.662C185.173 338.28 186.187 338.88 187.6 339.463C192.313 341.405 201.433 343.101 212.862 344.264C224.735 345.472 239.098 346.114 253.599 345.865C258.06 345.79 262.542 345.633 266.961 345.374C299.026 343.55 328.165 336.82 328.198 321.673C328.234 306.271 279.124 294.831 241.864 288.373C238.008 287.705 234.273 287.082 230.741 286.526C213.411 283.771 200.755 282.334 200.755 282.334C200.755 282.334 200.05 283.578 198.916 285.704C198.352 286.762 197.685 288.032 196.938 289.48C193.22 296.727 187.696 308.311 184.685 318.529C182.619 325.547 181.728 331.917 183.435 335.805Z" fill="#132936"/>
<path d="M183.435 335.805C184.779 337.036 186.173 338.258 187.6 339.463C192.313 341.405 201.433 343.101 212.862 344.264C224.735 345.472 279.19 345.545 293.691 345.292C276.666 317.766 225.019 312.303 221.848 308.652C221.592 308.354 187.696 308.311 184.685 318.529C182.619 325.547 181.728 331.917 183.435 335.805Z" fill="#0F202A"/>
<path d="M325.87 328.642C325.87 328.642 270.541 397.915 266.812 406.296C266.812 406.296 251.568 407.717 247.902 396.821C247.902 396.821 274.534 322.393 286.243 316.259C297.948 310.125 325.87 328.642 325.87 328.642Z" fill="#132936"/>
<path d="M224.99 170.044C224.99 170.044 240.421 191.171 254.172 192.301C254.172 192.301 252.414 184.349 248.355 179.335C249.449 177.573 250.395 175.962 251.21 174.527C253.91 169.736 255.108 166.874 255.108 166.874L248.781 155.424L247.478 149.267C246.408 152.159 245.154 154.822 243.756 157.022C236.552 168.344 224.99 170.044 224.99 170.044Z" fill="#FFB27D"/>
<path d="M243.157 156.911C243.157 156.911 240.918 167.496 251.209 174.527C253.91 169.736 255.108 166.873 255.108 166.873L248.781 155.424C243.727 154.674 243.157 156.911 243.157 156.911Z" fill="#ED975D"/>
<path d="M257.032 173.257C257.032 173.257 237.677 162.708 244.43 150.751C251.18 138.791 253.232 129.378 265.874 135.607C278.515 141.836 278.319 147.744 277.036 152.284C275.753 156.823 262.24 175.693 257.032 173.257Z" fill="#FFB27D"/>
<path d="M244.497 126.942C244.393 126.644 244.016 126.287 243.044 125.848C243.044 125.848 244.029 125.651 245.103 126.034C245.853 124.711 247.548 122.514 250.157 122.828C250.157 122.828 248.612 123.025 247.869 124.453C251.732 122.645 258.439 122.831 274.268 130.456C295.129 140.503 282.625 151.766 279.195 152.359C275.761 152.952 270.514 145.661 265.162 144.073C259.807 142.485 255.876 149.729 253.709 150.096C251.545 150.459 252.949 148.878 250.992 146.86C249.028 144.846 247.254 148.769 246.933 151.645C246.615 154.52 242.01 156.698 242.01 156.698C242.01 156.698 242.01 156.698 240.101 151.799C238.19 146.896 240.992 130.351 243.758 127.662C244.003 127.426 244.249 127.184 244.497 126.942Z" fill="#EC1B24"/>
<path d="M128.943 395.636C128.943 395.636 124.441 403.073 123.394 405.484C122.348 407.891 124.401 413.023 127.489 413.792C130.211 414.474 130.619 419.73 130.619 419.73H117.421C116.023 419.73 114.763 418.892 114.225 417.601C112.363 413.141 111.938 407.344 111.563 405.405C110.777 401.325 109.216 397.905 109.906 393.749C110.592 389.613 117.093 387.216 128.943 387.255C141.962 387.301 128.943 395.636 128.943 395.636Z" fill="#233862"/>
<path d="M170.759 319.155C174.514 333.407 183.614 356.355 194.004 376.703C199.272 387.026 204.876 396.68 210.279 404.19C216.364 412.643 222.187 418.367 227.002 419.265C228.272 419.501 229.473 419.399 230.589 418.924C233.355 417.739 235.378 414.49 236.802 409.761V409.758C245.591 380.639 231.85 295.728 231.85 295.728C231.85 295.728 218.007 295.611 203.313 296.79C188.086 298.014 171.947 300.628 169.324 306.195C168.456 308.043 169.06 312.706 170.759 319.155Z" fill="#132936"/>
<path d="M167.745 305.036C177.698 315.588 250.781 293.761 244.656 288.196C243.098 286.785 243.629 285.085 242.997 282.809C239.966 272.018 246.002 253.547 248.588 246.388C249.193 244.727 249.609 243.679 249.687 243.466C252.159 236.782 254.07 229.826 255.321 223.102C257.73 210.199 257.684 198.203 254.391 190.85C254.368 190.811 254.362 190.778 254.339 190.749C240.65 186.747 233.111 166.596 233.111 166.596C233.111 166.596 189.741 178.919 174 240.837C174 240.837 173.187 244.783 172.184 250.711H172.178C171.875 252.528 171.55 254.536 171.225 256.671C169.544 267.688 168.568 281.817 167.571 292.336C167.532 292.703 167.498 293.073 167.459 293.453C166.961 297.989 166.092 303.281 167.745 305.036Z" fill="#6BB7BF"/>
<path d="M127.546 400.666C129.452 400.686 135.179 401.567 142.997 402.939C171.319 407.9 226.996 419.288 226.996 419.288C226.996 419.288 226.996 419.281 227.002 419.265C227.048 418.891 227.664 413.923 227.808 407.514C228.034 397.293 227.048 383.403 220.597 378.678C217.166 376.159 206.67 375.9 194.005 376.703C167.313 378.386 130.998 384.799 130.998 384.799C125.058 392.112 127.546 400.666 127.546 400.666Z" fill="#132936"/>
<path d="M170.759 319.155C185.492 318.689 222.445 300.539 221.84 300.392C214.958 298.699 208.805 297.53 203.313 296.789C188.086 298.014 171.947 300.628 169.324 306.195C168.456 308.042 169.06 312.706 170.759 319.155Z" fill="#0F202A"/>
<path d="M368.78 243.004C399.572 243.004 424.535 270.809 424.535 305.108C424.535 339.404 399.572 367.209 368.78 367.209C337.985 367.209 313.025 339.404 313.025 305.108C313.025 270.809 337.985 243.004 368.78 243.004Z" fill="#922328"/>
<path d="M323.818 305.108C323.818 312.251 325.16 319.05 327.586 325.197C334.535 342.853 350.362 355.183 368.781 355.183C393.609 355.183 413.74 332.766 413.74 305.108C413.74 284.59 402.666 266.964 386.817 259.229C381.295 256.527 375.197 255.03 368.781 255.03C343.949 255.03 323.818 277.448 323.818 305.108Z" fill="white"/>
<path d="M323.818 305.108C323.818 312.251 325.16 319.05 327.586 325.197C333.108 327.896 339.213 329.392 345.625 329.392C370.454 329.392 390.585 306.975 390.585 279.314C390.585 272.172 389.242 265.379 386.817 259.229C381.295 256.527 375.197 255.03 368.781 255.03C343.949 255.03 323.818 277.448 323.818 305.108Z" fill="#FFDCDD"/>
<path d="M218.068 208.905C218.068 208.905 218.926 275.97 242.995 282.809C239.964 272.017 246 253.546 248.586 246.387C242.383 229.141 230.962 211.741 218.068 208.905Z" fill="#599DAD"/>
<path d="M225.837 169.615C225.837 169.615 244.374 173.473 246.184 189.727C247.503 201.563 234.567 228.368 234.567 228.368L232.102 225.906C232.102 225.906 243.46 192.808 241.712 187.179C239.473 179.961 228.815 169.16 219.012 173.473L225.837 169.615Z" fill="#132936"/>
<path d="M167.745 305.036C177.698 315.588 252.355 293.989 246.231 288.428C244.673 287.014 243.629 285.085 242.997 282.809C239.966 272.017 246.002 253.546 248.588 246.387C249.193 244.727 249.609 243.679 249.688 243.466L245.917 239.7L232.103 225.905C232.103 225.905 228.018 230.543 220.293 235.802C210.174 242.703 193.804 250.678 172.184 250.71H172.178C171.875 252.528 171.55 254.535 171.225 256.671C169.544 267.688 168.568 281.816 167.571 292.336C167.532 292.702 167.498 293.072 167.459 293.452C166.961 297.988 166.092 303.281 167.745 305.036Z" fill="#132936"/>
<path d="M220.293 235.802C223.059 255.299 229.232 278.898 242.997 282.809C239.966 272.017 246.002 253.546 248.588 246.387C247.782 244.15 246.892 241.907 245.917 239.7L232.103 225.905C232.103 225.905 228.018 230.543 220.293 235.802Z" fill="#0F202A"/>
<path d="M319.232 268.769C319.232 268.769 329.337 266.548 331.032 266.679C332.731 266.814 337.883 268.274 337.958 268.756C338.03 269.237 338.237 270.701 337.209 270.76C336.184 270.822 335.163 270.252 335.373 270.665C335.585 271.074 339.454 270.819 339.546 272.777C339.638 274.739 338.037 280.69 333.533 280.896C329.029 281.102 320.22 275.79 319.461 275.718C313.032 275.103 319.232 268.769 319.232 268.769Z" fill="#FFB27D"/>
<path d="M321.216 271.903C322.764 267.423 320.607 266.024 320.607 266.024C320.607 266.024 276.479 245.087 272.872 242.782C269.261 240.476 245.003 196.27 245.003 196.27C245.003 196.27 236.011 178.195 224.558 178.559C214.604 178.873 209.073 185.083 206.004 191.59C202.348 199.345 203.891 208.558 209.778 214.79C222.99 228.781 249.523 256.484 256.401 260.689C271.7 270.049 317.55 277.615 317.55 277.615C317.55 277.615 320.001 275.424 321.216 271.903Z" fill="#6BB7BF"/>
<path d="M142.996 402.939C171.319 407.901 226.995 419.288 226.995 419.288C226.995 419.288 226.995 419.281 227.002 419.265C228.272 419.501 229.473 419.399 230.59 418.924C233.355 417.739 235.378 414.49 236.802 409.761V409.757C236.802 409.757 233.513 408.798 227.807 407.514C223.319 406.499 217.336 405.287 210.279 404.19C192.419 401.396 167.688 399.304 142.996 402.939Z" fill="#0F202A"/>
<path d="M386.145 408.516H430.325V354.787C430.325 350.608 433.742 347.189 437.919 347.189H513.844C518.021 347.189 521.435 350.608 521.435 354.787V411.759C521.435 415.938 518.021 419.357 513.844 419.357H456.23C455.608 419.592 454.937 419.73 454.234 419.73H386.145C383.048 419.73 380.541 417.218 380.541 414.12C380.541 411.025 383.048 408.516 386.145 408.516Z" fill="#0F202A"/>
<path d="M487.115 339.637C481.429 339.463 468.807 344.903 463.763 347.189H505.727C503.03 345.666 492.306 339.794 487.115 339.637ZM446.778 347.189H450.778C453.927 345.309 470.892 335.641 487.197 335.523C498.961 335.435 512.365 347.002 513.174 347.126C513.315 347.149 513.396 347.169 513.442 347.189H522.703C526.879 347.189 530.297 350.608 530.297 354.787V411.758C530.297 415.937 526.879 419.356 522.703 419.356H446.778C442.601 419.356 439.184 415.937 439.184 411.758V354.787C439.184 350.608 442.601 347.189 446.778 347.189Z" fill="#132936"/>
<path d="M664.163 389.659C664.163 389.659 670.513 395.551 669.272 399.736C668.035 403.918 662.303 406.709 661.528 411.824C660.752 416.94 657.655 419.73 654.866 419.73C652.078 419.73 641.574 419.73 641.574 419.73C641.574 419.73 639.521 416.131 644.477 415.043C649.433 413.959 651.302 407.95 650.994 402.369C650.683 396.788 651.459 389.351 651.459 389.351L661.993 386.872L664.163 389.659Z" fill="#2C3A64"/>
<path d="M585 419.157C584.516 419.399 583.095 419.586 581.088 419.727H548.938C549.088 418.695 549.929 415.734 554.64 414.968C560.188 414.071 569.812 410.838 571.959 403.735C572.028 403.505 572.087 403.27 572.142 403.034C573.844 395.439 586.241 405.359 586.241 405.359C586.241 405.359 586.277 405.664 586.329 406.178C586.617 408.965 587.354 417.978 585 419.157Z" fill="#2C3A64"/>
<path d="M556.113 216.022C556.113 216.022 557.995 239.517 560.205 267.76C563.213 306.124 566.827 353.251 567.187 362.175C567.806 377.679 570.287 402.477 570.287 402.477C570.287 402.477 576.169 408.366 587.946 405.883C587.946 405.883 598.441 370.487 601.436 333.031C601.485 332.418 601.531 331.799 601.576 331.181C604.365 293.053 608.703 212.766 608.703 212.766L556.113 216.022Z" fill="#132936"/>
<path d="M556.113 216.022C556.113 216.022 557.995 239.517 560.205 267.76L601.436 333.031C601.485 332.418 601.531 331.799 601.576 331.18C604.365 293.053 608.703 212.766 608.703 212.766L556.113 216.022Z" fill="#0F202B"/>
<path d="M564.705 218.812C564.705 218.812 598.633 303.903 620.941 343.891C643.249 383.878 650.218 395.036 650.218 395.036C650.218 395.036 663 389.921 664.162 386.436C664.162 386.436 655.628 309.235 640.692 290.416C632.25 279.783 622.332 247.871 621.87 236.713C621.406 225.552 618.849 203.465 618.849 203.465L564.705 218.812Z" fill="#132936"/>
<path d="M498.129 207.035C498.129 207.035 486.155 212.783 484.544 214.26C482.934 215.733 478.957 222.978 479.261 223.525C479.566 224.072 480.161 224.239 481.248 223.489C482.331 222.739 485.379 219.601 485.49 220.184C485.602 220.767 477.363 230.468 478.819 232.518C480.276 234.571 488.538 233.965 493.251 230.608C497.972 227.252 502.679 214.915 503.386 214.243C509.402 208.528 498.129 207.035 498.129 207.035Z" fill="#FFB27D"/>
<path d="M497.589 213.195C494.263 210.3 494.178 209.57 494.178 209.57C494.178 209.57 515.405 172.841 517.245 169.31C519.088 165.777 530.463 110.616 530.463 110.616L569.798 99.2091C569.798 99.2091 542.093 170.886 537.252 179.745C529.258 194.381 503.157 215.927 503.157 215.927C503.157 215.927 500.201 215.468 497.589 213.195Z" fill="#599DAD"/>
<path d="M549.762 84.8547C549.762 84.8547 535.919 109.221 522.388 112.401C522.388 112.401 522.954 104.216 526.247 98.6162C524.898 97.0245 523.713 95.5639 522.689 94.2539C519.281 89.8883 517.664 87.2159 517.664 87.2159L522.253 74.8626L525.37 66.4852C526.865 69.2034 528.518 71.5222 530.237 73.5035C539.104 83.7019 549.762 84.8547 549.762 84.8547Z" fill="#FFB27D"/>
<path d="M530.237 73.5035C530.237 73.5035 531.89 85.7127 522.689 94.2539C519.281 89.8883 517.664 87.2159 517.664 87.2159L522.253 74.8626C527.176 73.3627 530.237 73.5035 530.237 73.5035Z" fill="#ED975D"/>
<path d="M514.014 89.0137C514.014 89.0137 534.695 80.9474 529.478 68.1389C524.257 55.3304 523.412 45.6626 509.985 50.2705C496.561 54.8817 496.001 60.8095 496.705 65.5091C497.409 70.2054 508.499 90.7855 514.014 89.0137Z" fill="#FFB27D"/>
<path d="M620.854 209.897C612.513 221.897 550.13 237.931 550.876 229.629C551.158 226.446 551.538 220.845 550.867 213.244C550.709 211.463 550.487 209.573 550.205 207.585C548.615 196.663 544.853 182.636 536.454 166.386C535.826 165.167 535.171 163.939 534.493 162.698C531.03 156.407 528.091 149.762 525.845 143.257C521.521 130.76 519.776 118.803 521.963 110.989C521.97 110.946 521.979 110.914 521.996 110.881C535.03 104.848 540.084 81.455 540.084 81.455C540.084 81.455 584.569 89.4427 609.489 148.766C609.489 148.766 611.882 155.28 614.615 164.123C617.937 174.845 621.764 188.983 622.428 199.067C622.749 203.858 622.353 207.736 620.854 209.897Z" fill="#6BB7BF"/>
<path d="M532.447 44.3463C532.591 44.0581 533.014 43.7535 534.038 43.4391C534.038 43.4391 533.076 43.1149 531.956 43.3605C531.377 41.9457 529.966 39.532 527.318 39.5124C527.318 39.5124 528.837 39.9054 529.397 41.4283C525.77 39.1259 519.043 38.4578 502.257 44.0515C480.133 51.4268 491.187 64.2746 494.539 65.3063C497.891 66.3379 504.064 59.7257 509.616 58.8218C515.171 57.9211 518.172 65.6567 520.29 66.2986C522.405 66.9405 521.203 65.1818 523.419 63.4166C525.635 61.6547 526.909 65.8008 526.86 68.7155C526.811 71.6303 531.135 74.3911 531.135 74.3911C531.135 74.3911 531.135 74.3911 533.668 69.7374C536.202 65.0869 535.514 48.201 533.092 45.1585C532.879 44.8932 532.663 44.6181 532.447 44.3463Z" fill="#132936"/>
<path d="M622.426 199.067C568.747 182.865 560.207 118.836 560.207 118.836C560.207 118.836 590.77 142.203 614.613 164.123C617.935 174.845 621.762 188.983 622.426 199.067Z" fill="#599DAD"/>
<path d="M609.78 232.747L615.721 230.821C618.074 228.67 630.857 217.4 645.125 212.681C655.42 209.278 669.672 213.172 670.408 213.025C672.268 212.655 664.523 215.246 664.523 215.246C664.523 215.246 651.213 213.87 645.943 215.449C640.922 216.948 631.03 224.167 627.102 227.127L660.389 216.323C663.171 215.419 666.189 216.958 667.092 219.745L679.403 257.719C680.307 260.506 678.768 263.522 675.986 264.426L625.377 280.85C622.592 281.754 619.577 280.215 618.673 277.431L606.362 239.454C605.459 236.67 606.997 233.651 609.78 232.747Z" fill="#922328"/>
<path d="M626.229 227.409L676.838 210.985C679.62 210.081 682.638 211.62 683.542 214.407L695.853 252.381C696.756 255.168 695.218 258.184 692.432 259.088L641.826 275.512C639.041 276.416 636.026 274.877 635.122 272.093L622.808 234.116C621.908 231.332 623.446 228.313 626.229 227.409Z" fill="#EC1B24"/>
<path d="M640.359 202.882C636.101 204.837 634.52 202.843 634.52 202.843C634.52 202.843 609.714 161.401 607.099 158.067C604.487 154.736 558.696 135.073 558.696 135.073C558.696 135.073 540.058 127.947 539.321 116.635C538.683 106.807 544.261 100.771 550.366 97.1258C557.646 92.7864 566.853 93.425 573.547 98.6257C588.569 110.298 618.346 133.776 623.138 140.143C633.803 154.311 645.626 198.726 645.626 198.726C645.626 198.726 643.705 201.349 640.359 202.882Z" fill="#6BB7BF"/>
<path d="M638.559 219.156C638.716 219.421 638.847 219.581 638.932 219.585C639.413 219.614 640.873 219.673 640.834 218.655C640.824 218.36 640.778 218.137 640.703 217.882L638.559 219.156Z" fill="#FFB27D"/>
<path d="M650.444 214.08C650.212 209.626 644.143 201.468 643.999 200.727C642.772 194.456 637.145 201.17 637.145 201.17C637.145 201.17 635.934 211.329 636.225 212.989C636.343 213.647 636.716 214.82 637.158 215.999C637.213 215.973 637.272 215.953 637.331 215.923C638.791 215.206 640.536 216.051 640.876 217.64L640.889 217.702C641.194 218.871 641.646 220.852 643.043 220.78C644.978 220.682 650.677 218.534 650.444 214.08Z" fill="#FFB27D"/>
<path d="M501.891 234.181L477.583 213.222C478.093 210.952 477.37 208.483 475.484 206.855C474.604 206.098 473.579 205.62 472.519 205.407L471.409 206.694H471.412L474.882 209.688L474.054 214.06L473.9 214.24L469.701 215.704L466.228 212.711L465.121 213.998C465.488 215.016 466.11 215.959 466.99 216.719C468.876 218.344 471.426 218.694 473.593 217.852L497.904 238.812C497.393 241.082 498.116 243.555 500.002 245.179C500.879 245.935 501.904 246.414 502.967 246.626L504.074 245.339L500.601 242.346L501.458 237.843L505.786 236.33L509.256 239.323L510.365 238.039C509.999 237.018 509.373 236.074 508.496 235.318C506.611 233.69 504.061 233.34 501.891 234.181Z" fill="#2C3A64"/>
<path d="M479.556 223.862C479.556 223.862 481.019 225.172 486.093 219.876C491.167 214.584 482.672 216.749 482.672 216.749C482.672 216.749 477.943 222.994 479.556 223.862Z" fill="#FFB27D"/>
</svg>
