<svg width="768" height="405" viewBox="0 0 768 405" fill="none" xmlns="http://www.w3.org/2000/svg">
<path d="M852.837 405.153C852.837 405.153 809.366 405.224 743.062 405.364C548.924 405.718 158.922 406.354 90.889 406.036C-0.401992 405.611 -63.558 169.437 107.147 185.477C292.552 202.86 156.946 96.5037 266.153 78.8738C385.011 59.6509 408.973 133.571 494.326 103.359C610.99 62.0517 674.36 76.434 714.969 106.574C759.502 139.647 776.571 191.697 806.471 209.891C807.143 210.316 807.815 210.702 808.487 211.056C866.59 242.857 892.885 273.633 901.471 300.947C920.624 361.552 852.837 405.153 852.837 405.153Z" fill="#EBF3FA"/>
<path d="M806.479 209.904L366.077 284.771L333.191 245.348L714.96 106.58C759.499 139.653 776.585 191.687 806.479 209.904Z" fill="#F8FBFF"/>
<path d="M576.543 116.875L140.739 257.278C153.577 247.922 124.053 197.196 141.385 180.364L576.543 116.875Z" fill="#F8FBFF"/>
<path d="M630.143 93.1914C624.341 93.1914 619.639 97.8925 619.639 103.693C619.639 109.494 624.341 114.195 630.143 114.195C635.945 114.195 640.647 109.494 640.647 103.693C640.647 97.8925 635.945 93.1914 630.143 93.1914Z" fill="#F8FBFF"/>
<path d="M543.904 127.469H494.18V369.217H543.904V127.469Z" fill="#C4D9ED"/>
<path d="M555.074 127.468H505.35V369.216H555.074V127.468Z" fill="#D5E7F7"/>
<path d="M505.363 141.371H555.074V127.401H505.363V141.371Z" fill="#C4D9ED"/>
<path d="M505.363 171.671H555.074V157.701H505.363V171.671Z" fill="#C4D9ED"/>
<path d="M505.363 201.968H555.074V187.998H505.363V201.968Z" fill="#C4D9ED"/>
<path d="M505.363 232.264H555.074V218.294H505.363V232.264Z" fill="#C4D9ED"/>
<path d="M505.363 262.564H555.074V248.594H505.363V262.564Z" fill="#C4D9ED"/>
<path d="M505.363 292.86H555.074V278.89H505.363V292.86Z" fill="#C4D9ED"/>
<path d="M505.363 323.161H555.074V309.191H505.363V323.161Z" fill="#C4D9ED"/>
<path d="M505.363 353.457H555.074V339.486H505.363V353.457Z" fill="#C4D9ED"/>
<path d="M623.393 161.674H573.668V369.213H623.393V161.674Z" fill="#C4D9ED"/>
<path d="M634.56 161.673H584.836V369.212H634.56V161.673Z" fill="#D5E7F7"/>
<path d="M584.849 173.613H634.561V161.622H584.849V173.613Z" fill="#C4D9ED"/>
<path d="M584.849 199.624H634.561V187.633H584.849V199.624Z" fill="#C4D9ED"/>
<path d="M584.849 225.632H634.561V213.641H584.849V225.632Z" fill="#C4D9ED"/>
<path d="M584.849 251.643H634.561V239.652H584.849V251.643Z" fill="#C4D9ED"/>
<path d="M584.849 277.654H634.561V265.663H584.849V277.654Z" fill="#C4D9ED"/>
<path d="M584.849 303.665H634.561V291.674H584.849V303.665Z" fill="#C4D9ED"/>
<path d="M584.849 329.677H634.561V317.686H584.849V329.677Z" fill="#C4D9ED"/>
<path d="M584.849 355.685H634.561V343.694H584.849V355.685Z" fill="#C4D9ED"/>
<path d="M467.27 392.155H488.094V361.798H467.27V392.155Z" fill="#DCEAF9"/>
<path d="M473.63 320.388V404.666H253.067L251.565 404.653L195.275 404.125C195.23 404.044 195.171 403.943 195.106 403.833C195.012 403.67 194.905 403.479 194.779 403.262C194.736 403.184 194.691 403.106 194.642 403.022C194.477 402.723 194.285 402.386 194.074 402C193.818 401.532 193.529 400.997 193.211 400.403V400.4C192.027 398.181 190.456 395.105 188.675 391.283C188.087 390.028 187.484 388.691 186.854 387.277C186.604 386.712 186.354 386.141 186.101 385.554V385.551C185.855 384.983 185.608 384.405 185.361 383.815C185.352 383.795 185.345 383.776 185.335 383.756C185.167 383.351 184.991 382.939 184.819 382.52C184.638 382.092 184.459 381.661 184.281 381.223C183.359 378.958 182.418 376.557 181.48 374.023C181.454 373.959 181.432 373.89 181.406 373.822C181.406 373.822 181.406 373.822 181.406 373.819C180.792 372.161 180.179 370.448 179.575 368.683C179.241 367.713 178.913 366.73 178.582 365.731C178.563 365.669 178.54 365.611 178.521 365.546C178.375 365.101 178.232 364.657 178.089 364.209C177.969 363.83 177.849 363.453 177.729 363.074C177.482 362.289 177.236 361.497 176.992 360.699C176.681 359.67 176.369 358.629 176.067 357.571C175.655 356.137 175.253 354.681 174.86 353.198C174.743 352.753 174.623 352.306 174.51 351.861C174.166 350.521 173.825 349.165 173.497 347.793C173.39 347.351 173.286 346.91 173.186 346.466C173.121 346.193 173.056 345.917 172.994 345.645C172.498 343.471 172.027 341.259 171.589 339.004C171.106 336.522 170.658 333.991 170.259 331.418C169.889 329.044 169.555 326.63 169.266 324.183C168.993 321.873 168.76 319.538 168.568 317.172C168.12 311.641 167.913 305.96 168 300.178C168.153 290.108 169.207 279.716 171.479 269.195C171.56 268.812 171.648 268.429 171.732 268.046C172.293 265.542 172.923 263.034 173.624 260.523C174.159 258.608 174.737 256.691 175.36 254.774C175.811 253.385 176.285 251.993 176.785 250.601C177.914 247.451 179.167 244.301 180.552 241.15H181.73V238.535C189.256 222.304 200.347 206.222 216.135 191.012C216.43 190.727 216.725 190.444 217.021 190.162H217.945V222.401H246.483V169.862H277.973V203.964H285.151V163.25H316.642V239.583H356.469V284.093H371.348V295.305H405.528V275.995H425.151V223.527H449.392V320.384H473.63V320.388Z" fill="#D5E7F7"/>
<path d="M285.148 176.179H316.654V168.403H285.148V176.179Z" fill="#C4D9ED"/>
<path d="M285.148 190.792H316.654V183.015H285.148V190.792Z" fill="#C4D9ED"/>
<path d="M285.148 203.935H316.654V196.159H285.148V203.935Z" fill="#C4D9ED"/>
<path d="M246.488 203.935H277.994V196.159H246.488V203.935Z" fill="#C4D9ED"/>
<path d="M246.488 190.792H277.994V183.015H246.488V190.792Z" fill="#C4D9ED"/>
<path d="M246.488 177.669H277.994V169.892H246.488V177.669Z" fill="#C4D9ED"/>
<path d="M246.478 216.682H316.656V208.905H246.478V216.682Z" fill="#C4D9ED"/>
<path d="M246.478 229.428H316.656V221.652H246.478V229.428Z" fill="#C4D9ED"/>
<path d="M424.924 235.54H449.379V223.536H424.924V235.54Z" fill="#C4D9ED"/>
<path d="M424.924 253.393H449.379V241.389H424.924V253.393Z" fill="#C4D9ED"/>
<path d="M424.924 271.246H449.379V259.242H424.924V271.246Z" fill="#C4D9ED"/>
<path d="M424.924 289.963H449.379V277.958H424.924V289.963Z" fill="#C4D9ED"/>
<path d="M424.924 308.096H449.379V296.092H424.924V308.096Z" fill="#C4D9ED"/>
<path d="M424.924 326.229H449.379V314.225H424.924V326.229Z" fill="#C4D9ED"/>
<path d="M424.924 345.202H449.379V333.198H424.924V345.202Z" fill="#C4D9ED"/>
<path d="M246.478 239.042H316.656V234.105H246.478V239.042Z" fill="#C4D9ED"/>
<path d="M425.26 223.534H416.242V275.998H425.26V223.534Z" fill="#C4D9ED"/>
<path d="M405.522 275.999H387.385V295.309H405.522V275.999Z" fill="#C4D9ED"/>
<path d="M246.486 169.888V177.664L246.48 208.901L246.477 216.678V222.391H240.227V170.507C240.509 170.3 240.788 170.092 241.067 169.888H246.486V169.888Z" fill="#C4D9ED"/>
<path d="M285.147 163.25H281.305V203.934H285.147V163.25Z" fill="#C4D9ED"/>
<g opacity="0.8">
<g opacity="0.8">
<g opacity="0.8">
<g opacity="0.8">
<path opacity="0.8" d="M344.615 254.763H349.953V247.24H344.615V254.763Z" fill="#C4D9ED"/>
<path opacity="0.8" d="M334.635 254.763H339.973V247.24H334.635V254.763Z" fill="#C4D9ED"/>
<path opacity="0.8" d="M324.875 254.763H330.213V247.24H324.875V254.763Z" fill="#C4D9ED"/>
<path opacity="0.8" d="M315.621 254.763H320.959V247.24H315.621V254.763Z" fill="#C4D9ED"/>
<path opacity="0.8" d="M306.191 254.763H311.529V247.24H306.191V254.763Z" fill="#C4D9ED"/>
</g>
<g opacity="0.8">
<path opacity="0.8" d="M296.65 254.763H301.988V247.24H296.65V254.763Z" fill="#C4D9ED"/>
<path opacity="0.8" d="M286.668 254.763H292.006V247.24H286.668V254.763Z" fill="#C4D9ED"/>
<path opacity="0.8" d="M276.906 254.763H282.244V247.24H276.906V254.763Z" fill="#C4D9ED"/>
<path opacity="0.8" d="M267.656 254.763H272.994V247.24H267.656V254.763Z" fill="#C4D9ED"/>
<path opacity="0.8" d="M258.224 254.763H263.562V247.24H258.224V254.763Z" fill="#C4D9ED"/>
</g>
</g>
<g opacity="0.8">
<g opacity="0.8">
<path opacity="0.8" d="M248.398 254.763H253.736V247.24H248.398V254.763Z" fill="#C4D9ED"/>
<path opacity="0.8" d="M238.418 254.763H243.756V247.24H238.418V254.763Z" fill="#C4D9ED"/>
<path opacity="0.8" d="M228.654 254.763H233.992V247.24H228.654V254.763Z" fill="#C4D9ED"/>
<path opacity="0.8" d="M219.402 254.763H224.74V247.24H219.402V254.763Z" fill="#C4D9ED"/>
<path opacity="0.8" d="M209.972 254.763H215.311V247.24H209.972V254.763Z" fill="#C4D9ED"/>
</g>
<g opacity="0.8">
<path opacity="0.8" d="M200.431 254.763H205.77V247.24H200.431V254.763Z" fill="#C4D9ED"/>
<path opacity="0.8" d="M190.451 254.763H195.789V247.24H190.451V254.763Z" fill="#C4D9ED"/>
<path opacity="0.8" d="M180.693 254.763H186.031V247.24H180.693V254.763Z" fill="#C4D9ED"/>
<path opacity="0.8" d="M176.776 250.591V254.763H175.352C175.806 253.375 176.28 251.983 176.776 250.591Z" fill="#C4D9ED"/>
</g>
</g>
</g>
<g opacity="0.8">
<g opacity="0.8">
<g opacity="0.8">
<path opacity="0.8" d="M344.613 268.038H349.951V260.514H344.613V268.038Z" fill="#C4D9ED"/>
<path opacity="0.8" d="M334.635 268.038H339.973V260.514H334.635V268.038Z" fill="#C4D9ED"/>
<path opacity="0.8" d="M324.873 268.038H330.211V260.514H324.873V268.038Z" fill="#C4D9ED"/>
<path opacity="0.8" d="M315.619 268.038H320.957V260.514H315.619V268.038Z" fill="#C4D9ED"/>
<path opacity="0.8" d="M306.189 268.038H311.527V260.514H306.189V268.038Z" fill="#C4D9ED"/>
</g>
<g opacity="0.8">
<path opacity="0.8" d="M296.648 268.038H301.986V260.514H296.648V268.038Z" fill="#C4D9ED"/>
<path opacity="0.8" d="M286.666 268.038H292.004V260.514H286.666V268.038Z" fill="#C4D9ED"/>
<path opacity="0.8" d="M276.904 268.038H282.242V260.514H276.904V268.038Z" fill="#C4D9ED"/>
<path opacity="0.8" d="M267.654 268.038H272.992V260.514H267.654V268.038Z" fill="#C4D9ED"/>
<path opacity="0.8" d="M258.222 268.038H263.561V260.514H258.222V268.038Z" fill="#C4D9ED"/>
</g>
</g>
<g opacity="0.8">
<g opacity="0.8">
<path opacity="0.8" d="M248.398 268.038H253.736V260.514H248.398V268.038Z" fill="#C4D9ED"/>
<path opacity="0.8" d="M238.418 268.038H243.756V260.514H238.418V268.038Z" fill="#C4D9ED"/>
<path opacity="0.8" d="M228.654 268.038H233.992V260.514H228.654V268.038Z" fill="#C4D9ED"/>
<path opacity="0.8" d="M219.402 268.038H224.74V260.514H219.402V268.038Z" fill="#C4D9ED"/>
<path opacity="0.8" d="M209.972 268.038H215.311V260.514H209.972V268.038Z" fill="#C4D9ED"/>
</g>
<g opacity="0.8">
<path opacity="0.8" d="M200.433 268.038H205.771V260.514H200.433V268.038Z" fill="#C4D9ED"/>
<path opacity="0.8" d="M190.449 268.038H195.787V260.514H190.449V268.038Z" fill="#C4D9ED"/>
<path opacity="0.8" d="M180.691 268.038H186.029V260.514H180.691V268.038Z" fill="#C4D9ED"/>
<path opacity="0.8" d="M176.777 260.518V268.042H171.725C172.286 265.537 172.916 263.029 173.616 260.518H176.777Z" fill="#C4D9ED"/>
</g>
</g>
</g>
<g opacity="0.8">
<g opacity="0.8">
<g opacity="0.8">
<path opacity="0.8" d="M344.615 281.108H349.953V273.584H344.615V281.108Z" fill="#C4D9ED"/>
<path opacity="0.8" d="M334.634 281.108H339.973V273.584H334.634V281.108Z" fill="#C4D9ED"/>
<path opacity="0.8" d="M324.875 281.108H330.213V273.584H324.875V281.108Z" fill="#C4D9ED"/>
<path opacity="0.8" d="M315.621 281.108H320.959V273.584H315.621V281.108Z" fill="#C4D9ED"/>
<path opacity="0.8" d="M306.191 281.108H311.529V273.584H306.191V281.108Z" fill="#C4D9ED"/>
</g>
<g opacity="0.8">
<path opacity="0.8" d="M296.65 281.108H301.988V273.584H296.65V281.108Z" fill="#C4D9ED"/>
<path opacity="0.8" d="M286.668 281.108H292.006V273.584H286.668V281.108Z" fill="#C4D9ED"/>
<path opacity="0.8" d="M276.906 281.108H282.244V273.584H276.906V281.108Z" fill="#C4D9ED"/>
<path opacity="0.8" d="M267.656 281.108H272.994V273.584H267.656V281.108Z" fill="#C4D9ED"/>
<path opacity="0.8" d="M258.224 281.108H263.562V273.584H258.224V281.108Z" fill="#C4D9ED"/>
</g>
</g>
<g opacity="0.8">
<g opacity="0.8">
<path opacity="0.8" d="M248.398 281.108H253.736V273.584H248.398V281.108Z" fill="#C4D9ED"/>
<path opacity="0.8" d="M238.418 281.108H243.756V273.584H238.418V281.108Z" fill="#C4D9ED"/>
<path opacity="0.8" d="M228.654 281.108H233.992V273.584H228.654V281.108Z" fill="#C4D9ED"/>
<path opacity="0.8" d="M219.402 281.108H224.74V273.584H219.402V281.108Z" fill="#C4D9ED"/>
<path opacity="0.8" d="M209.972 281.108H215.311V273.584H209.972V281.108Z" fill="#C4D9ED"/>
</g>
<g opacity="0.8">
<path opacity="0.8" d="M200.431 281.108H205.77V273.584H200.431V281.108Z" fill="#C4D9ED"/>
<path opacity="0.8" d="M190.451 281.108H195.789V273.584H190.451V281.108Z" fill="#C4D9ED"/>
<path opacity="0.8" d="M180.693 281.108H186.031V273.584H180.693V281.108Z" fill="#C4D9ED"/>
<path opacity="0.8" d="M171.437 281.108H176.775V273.584H171.437V281.108Z" fill="#C4D9ED"/>
</g>
</g>
</g>
<g opacity="0.8">
<g opacity="0.8">
<g opacity="0.8">
<g opacity="0.8">
<path opacity="0.8" d="M344.615 294.998H349.953V287.474H344.615V294.998Z" fill="#C4D9ED"/>
<path opacity="0.8" d="M334.634 294.998H339.973V287.474H334.634V294.998Z" fill="#C4D9ED"/>
<path opacity="0.8" d="M324.875 294.998H330.213V287.474H324.875V294.998Z" fill="#C4D9ED"/>
<path opacity="0.8" d="M315.621 294.998H320.959V287.474H315.621V294.998Z" fill="#C4D9ED"/>
<path opacity="0.8" d="M306.191 294.998H311.529V287.474H306.191V294.998Z" fill="#C4D9ED"/>
</g>
<g opacity="0.8">
<path opacity="0.8" d="M296.65 294.998H301.988V287.474H296.65V294.998Z" fill="#C4D9ED"/>
<path opacity="0.8" d="M286.668 294.998H292.006V287.474H286.668V294.998Z" fill="#C4D9ED"/>
<path opacity="0.8" d="M276.906 294.998H282.244V287.474H276.906V294.998Z" fill="#C4D9ED"/>
<path opacity="0.8" d="M267.656 294.998H272.994V287.474H267.656V294.998Z" fill="#C4D9ED"/>
<path opacity="0.8" d="M258.224 294.998H263.562V287.474H258.224V294.998Z" fill="#C4D9ED"/>
</g>
</g>
<g opacity="0.8">
<g opacity="0.8">
<path opacity="0.8" d="M248.398 294.998H253.736V287.474H248.398V294.998Z" fill="#C4D9ED"/>
<path opacity="0.8" d="M238.418 294.998H243.756V287.474H238.418V294.998Z" fill="#C4D9ED"/>
<path opacity="0.8" d="M228.654 294.998H233.992V287.474H228.654V294.998Z" fill="#C4D9ED"/>
<path opacity="0.8" d="M219.402 294.998H224.74V287.474H219.402V294.998Z" fill="#C4D9ED"/>
<path opacity="0.8" d="M209.972 294.998H215.311V287.474H209.972V294.998Z" fill="#C4D9ED"/>
</g>
<g opacity="0.8">
<path opacity="0.8" d="M200.431 294.998H205.77V287.474H200.431V294.998Z" fill="#C4D9ED"/>
<path opacity="0.8" d="M190.451 294.998H195.789V287.474H190.451V294.998Z" fill="#C4D9ED"/>
<path opacity="0.8" d="M180.693 294.998H186.031V287.474H180.693V294.998Z" fill="#C4D9ED"/>
<path opacity="0.8" d="M171.437 294.998H176.775V287.474H171.437V294.998Z" fill="#C4D9ED"/>
</g>
</g>
</g>
<g opacity="0.8">
<g opacity="0.8">
<g opacity="0.8">
<path opacity="0.8" d="M344.615 308.271H349.953V300.748H344.615V308.271Z" fill="#C4D9ED"/>
<path opacity="0.8" d="M334.634 308.271H339.973V300.748H334.634V308.271Z" fill="#C4D9ED"/>
<path opacity="0.8" d="M324.875 308.271H330.213V300.748H324.875V308.271Z" fill="#C4D9ED"/>
<path opacity="0.8" d="M315.621 308.271H320.959V300.748H315.621V308.271Z" fill="#C4D9ED"/>
<path opacity="0.8" d="M306.191 308.271H311.529V300.748H306.191V308.271Z" fill="#C4D9ED"/>
</g>
<g opacity="0.8">
<path opacity="0.8" d="M296.65 308.271H301.988V300.747H296.65V308.271Z" fill="#C4D9ED"/>
<path opacity="0.8" d="M286.668 308.271H292.006V300.747H286.668V308.271Z" fill="#C4D9ED"/>
<path opacity="0.8" d="M276.906 308.271H282.244V300.747H276.906V308.271Z" fill="#C4D9ED"/>
<path opacity="0.8" d="M267.656 308.271H272.994V300.747H267.656V308.271Z" fill="#C4D9ED"/>
<path opacity="0.8" d="M258.224 308.271H263.562V300.747H258.224V308.271Z" fill="#C4D9ED"/>
</g>
</g>
<g opacity="0.8">
<g opacity="0.8">
<path opacity="0.8" d="M248.398 308.271H253.736V300.747H248.398V308.271Z" fill="#C4D9ED"/>
<path opacity="0.8" d="M238.418 308.271H243.756V300.747H238.418V308.271Z" fill="#C4D9ED"/>
<path opacity="0.8" d="M228.654 308.271H233.992V300.747H228.654V308.271Z" fill="#C4D9ED"/>
<path opacity="0.8" d="M219.402 308.271H224.74V300.747H219.402V308.271Z" fill="#C4D9ED"/>
<path opacity="0.8" d="M209.972 308.271H215.311V300.747H209.972V308.271Z" fill="#C4D9ED"/>
</g>
<g opacity="0.8">
<path opacity="0.8" d="M200.431 308.271H205.77V300.747H200.431V308.271Z" fill="#C4D9ED"/>
<path opacity="0.8" d="M190.451 308.271H195.789V300.747H190.451V308.271Z" fill="#C4D9ED"/>
<path opacity="0.8" d="M180.693 308.271H186.031V300.747H180.693V308.271Z" fill="#C4D9ED"/>
<path opacity="0.8" d="M171.437 308.271H176.775V300.747H171.437V308.271Z" fill="#C4D9ED"/>
</g>
</g>
</g>
<g opacity="0.8">
<g opacity="0.8">
<g opacity="0.8">
<path opacity="0.8" d="M344.615 321.342H349.953V313.818H344.615V321.342Z" fill="#C4D9ED"/>
<path opacity="0.8" d="M334.634 321.342H339.973V313.818H334.634V321.342Z" fill="#C4D9ED"/>
<path opacity="0.8" d="M324.875 321.342H330.213V313.818H324.875V321.342Z" fill="#C4D9ED"/>
<path opacity="0.8" d="M315.621 321.342H320.959V313.818H315.621V321.342Z" fill="#C4D9ED"/>
<path opacity="0.8" d="M306.191 321.342H311.529V313.818H306.191V321.342Z" fill="#C4D9ED"/>
</g>
<g opacity="0.8">
<path opacity="0.8" d="M296.65 321.342H301.988V313.819H296.65V321.342Z" fill="#C4D9ED"/>
<path opacity="0.8" d="M286.668 321.342H292.006V313.819H286.668V321.342Z" fill="#C4D9ED"/>
<path opacity="0.8" d="M276.906 321.342H282.244V313.819H276.906V321.342Z" fill="#C4D9ED"/>
<path opacity="0.8" d="M267.656 321.342H272.994V313.819H267.656V321.342Z" fill="#C4D9ED"/>
<path opacity="0.8" d="M258.224 321.342H263.562V313.819H258.224V321.342Z" fill="#C4D9ED"/>
</g>
</g>
<g opacity="0.8">
<g opacity="0.8">
<path opacity="0.8" d="M248.398 321.342H253.736V313.818H248.398V321.342Z" fill="#C4D9ED"/>
<path opacity="0.8" d="M238.418 321.342H243.756V313.818H238.418V321.342Z" fill="#C4D9ED"/>
<path opacity="0.8" d="M228.654 321.342H233.992V313.818H228.654V321.342Z" fill="#C4D9ED"/>
<path opacity="0.8" d="M219.402 321.342H224.74V313.818H219.402V321.342Z" fill="#C4D9ED"/>
<path opacity="0.8" d="M209.972 321.342H215.311V313.818H209.972V321.342Z" fill="#C4D9ED"/>
</g>
<g opacity="0.8">
<path opacity="0.8" d="M200.431 321.342H205.77V313.818H200.431V321.342Z" fill="#C4D9ED"/>
<path opacity="0.8" d="M190.451 321.342H195.789V313.818H190.451V321.342Z" fill="#C4D9ED"/>
<path opacity="0.8" d="M180.693 321.342H186.031V313.818H180.693V321.342Z" fill="#C4D9ED"/>
<path opacity="0.8" d="M171.437 321.342H176.775V313.818H171.437V321.342Z" fill="#C4D9ED"/>
</g>
</g>
</g>
</g>
</g>
<path d="M263.658 404.123H387.387V337.39H263.658V404.123Z" fill="#C4D9ED"/>
<path d="M357.476 404.122H481.205V370.754H357.476V404.122Z" fill="#C4D9ED"/>
<path d="M253.734 347.786V404.124H195.274C195.229 404.043 195.17 403.943 195.105 403.832C195.011 403.67 194.904 403.479 194.777 403.261C194.735 403.183 194.69 403.106 194.641 403.021C194.476 402.723 194.284 402.385 194.073 401.999C193.817 401.532 193.528 400.997 193.21 400.403V400.4C192.026 398.181 190.455 395.105 188.673 391.283C188.086 390.028 187.482 388.691 186.853 387.276C186.603 386.712 186.353 386.141 186.1 385.554V385.55C185.853 384.983 185.607 384.405 185.36 383.815C185.35 383.795 185.344 383.776 185.334 383.756C185.165 383.351 184.99 382.939 184.818 382.52C184.637 382.092 184.458 381.66 184.28 381.222C183.358 378.958 182.417 376.557 181.479 374.023C181.453 373.958 181.43 373.89 181.404 373.822C181.404 373.822 181.404 373.822 181.404 373.819C180.791 372.161 180.178 370.448 179.574 368.683C179.24 367.713 178.912 366.73 178.581 365.73C178.562 365.669 178.539 365.61 178.52 365.546C178.373 365.101 178.231 364.657 178.088 364.209C177.968 363.829 177.848 363.453 177.728 363.073C177.481 362.288 177.234 361.497 176.991 360.698C176.68 359.67 176.368 358.629 176.066 357.571C175.654 356.137 175.252 354.68 174.859 353.198C174.742 352.753 174.622 352.305 174.509 351.861C174.165 350.521 173.824 349.165 173.496 347.792H253.734V347.786Z" fill="#C4D9ED"/>
<path d="M356.066 357.563H379.119V345.202H356.066V357.563Z" fill="#D5E7F7"/>
<path d="M326.476 357.563H349.529V345.202H326.476V357.563Z" fill="#D5E7F7"/>
<path d="M297.449 357.563H320.502V345.202H297.449V357.563Z" fill="#D5E7F7"/>
<path d="M268.98 357.563H292.033V345.202H268.98V357.563Z" fill="#D5E7F7"/>
<path d="M253.064 404.698H264.941V337.391H253.064V404.698Z" fill="#ADC9E0"/>
<path d="M443.865 223.534H444.508V218.31H443.865V223.534Z" fill="#DCEAF9"/>
<path d="M420.76 223.534H421.402V218.31H420.76V223.534Z" fill="#DCEAF9"/>
<path d="M169.26 324.174C169.549 326.62 169.883 329.034 170.253 331.409C170.652 333.981 171.1 336.512 171.583 338.994C172.021 341.249 172.492 343.461 172.988 345.635C173.05 345.908 173.115 346.183 173.18 346.456C173.28 346.9 173.384 347.342 173.491 347.783C173.819 349.155 174.16 350.511 174.504 351.851C174.617 352.299 174.738 352.744 174.854 353.188C175.247 354.671 175.649 356.127 176.061 357.561C176.367 358.616 176.675 359.661 176.986 360.689C177.23 361.49 177.476 362.282 177.723 363.064C177.84 363.443 177.96 363.823 178.083 364.199C178.229 364.647 178.372 365.092 178.515 365.536C178.534 365.601 178.557 365.663 178.576 365.721C178.904 366.72 179.235 367.703 179.569 368.673C180.176 370.438 180.786 372.151 181.4 373.809C181.4 373.812 181.4 373.812 181.4 373.812C181.426 373.877 181.448 373.945 181.474 374.014C182.412 376.547 183.353 378.952 184.275 381.213C184.457 381.651 184.635 382.086 184.814 382.511C184.985 382.929 185.157 383.341 185.329 383.747C185.339 383.766 185.346 383.786 185.355 383.805V324.17H169.26V324.174Z" fill="#D5E7F7"/>
<path d="M185.357 346.459V383.809C185.348 383.789 185.341 383.77 185.331 383.75C185.163 383.345 184.987 382.933 184.815 382.514C184.634 382.086 184.455 381.654 184.277 381.216C183.355 378.952 182.414 376.551 181.476 374.017C181.45 373.952 181.427 373.884 181.401 373.816C181.401 373.816 181.401 373.816 181.401 373.813C180.788 372.155 180.175 370.442 179.571 368.677C179.237 367.707 178.909 366.724 178.578 365.725C178.559 365.663 178.536 365.604 178.517 365.54C178.371 365.095 178.228 364.651 178.085 364.203C177.965 363.823 177.845 363.447 177.725 363.067C177.478 362.282 177.232 361.491 176.988 360.693C176.677 359.664 176.365 358.623 176.063 357.565C175.651 356.131 175.249 354.674 174.856 353.192C174.739 352.747 174.619 352.299 174.506 351.855C174.162 350.515 173.821 349.159 173.493 347.786C173.386 347.345 173.282 346.904 173.182 346.459H185.357V346.459Z" fill="#D5E7F7"/>
<path d="M185.358 338.998V357.565H176.064C175.652 356.131 175.25 354.675 174.857 353.192C174.74 352.747 174.62 352.3 174.507 351.855C174.163 350.515 173.822 349.159 173.494 347.787C173.387 347.346 173.283 346.904 173.183 346.46C173.118 346.187 173.053 345.912 172.991 345.639C172.495 343.465 172.024 341.253 171.586 338.998H185.358V338.998Z" fill="#C4D9ED"/>
<path d="M179.571 363.068V368.681C179.237 367.711 178.909 366.728 178.578 365.728C178.559 365.667 178.536 365.608 178.516 365.543C178.37 365.099 178.228 364.654 178.085 364.207C177.965 363.827 177.845 363.451 177.725 363.071H179.571V363.068Z" fill="#C4D9ED"/>
<path d="M175.208 350.556H178.875V344.213H175.208V350.556Z" fill="#ADC9E0"/>
<path d="M457.785 403.58H542.738V346.46H457.785V403.58Z" fill="#D5E7F7"/>
<path d="M457.785 357.564H542.738V339H457.785V357.564Z" fill="#C4D9ED"/>
<path d="M532.587 369.215H536.951V363.067H532.587V369.215Z" fill="#C4D9ED"/>
<path d="M524.428 369.215H528.793V363.067H524.428V369.215Z" fill="#C4D9ED"/>
<path d="M516.452 369.215H520.816V363.067H516.452V369.215Z" fill="#C4D9ED"/>
<path d="M508.892 369.215H513.254V363.067H508.892V369.215Z" fill="#C4D9ED"/>
<path d="M501.182 369.215H505.547V363.067H501.182V369.215Z" fill="#C4D9ED"/>
<path d="M493.385 369.215H497.75V363.067H493.385V369.215Z" fill="#C4D9ED"/>
<path d="M485.225 369.215H489.59V363.067H485.225V369.215Z" fill="#C4D9ED"/>
<path d="M477.249 369.215H481.613V363.067H477.249V369.215Z" fill="#C4D9ED"/>
<path d="M469.684 369.215H474.049V363.067H469.684V369.215Z" fill="#C4D9ED"/>
<path d="M461.98 369.215H466.342V363.067H461.98V369.215Z" fill="#C4D9ED"/>
<path d="M532.587 380.062H536.951V373.913H532.587V380.062Z" fill="#C4D9ED"/>
<path d="M524.428 380.062H528.793V373.913H524.428V380.062Z" fill="#C4D9ED"/>
<path d="M516.452 380.062H520.816V373.913H516.452V380.062Z" fill="#C4D9ED"/>
<path d="M508.892 380.062H513.254V373.913H508.892V380.062Z" fill="#C4D9ED"/>
<path d="M501.182 380.062H505.547V373.913H501.182V380.062Z" fill="#C4D9ED"/>
<path d="M493.385 380.062H497.75V373.913H493.385V380.062Z" fill="#C4D9ED"/>
<path d="M485.225 380.062H489.59V373.913H485.225V380.062Z" fill="#C4D9ED"/>
<path d="M477.249 380.062H481.613V373.913H477.249V380.062Z" fill="#C4D9ED"/>
<path d="M469.684 380.062H474.049V373.913H469.684V380.062Z" fill="#C4D9ED"/>
<path d="M461.98 380.062H466.342V373.913H461.98V380.062Z" fill="#C4D9ED"/>
<path d="M532.587 390.746H536.951V384.598H532.587V390.746Z" fill="#C4D9ED"/>
<path d="M524.428 390.746H528.793V384.598H524.428V390.746Z" fill="#C4D9ED"/>
<path d="M516.452 390.746H520.816V384.598H516.452V390.746Z" fill="#C4D9ED"/>
<path d="M508.892 390.746H513.254V384.598H508.892V390.746Z" fill="#C4D9ED"/>
<path d="M501.182 390.746H505.547V384.598H501.182V390.746Z" fill="#C4D9ED"/>
<path d="M493.385 390.746H497.75V384.598H493.385V390.746Z" fill="#C4D9ED"/>
<path d="M485.225 390.746H489.59V384.598H485.225V390.746Z" fill="#C4D9ED"/>
<path d="M477.249 390.746H481.613V384.598H477.249V390.746Z" fill="#C4D9ED"/>
<path d="M469.684 390.746H474.049V384.598H469.684V390.746Z" fill="#C4D9ED"/>
<path d="M461.98 390.746H466.342V384.598H461.98V390.746Z" fill="#C4D9ED"/>
<path d="M532.589 350.555H536.256V344.213H532.589V350.555Z" fill="#ADC9E0"/>
<path d="M496.192 350.555H499.859V344.213H496.192V350.555Z" fill="#ADC9E0"/>
<path d="M467.233 350.555H470.9V344.213H467.233V350.555Z" fill="#ADC9E0"/>
<path d="M548.078 403.58H633.031V346.46H548.078V403.58Z" fill="#D5E7F7"/>
<path d="M548.078 357.564H633.031V339H548.078V357.564Z" fill="#C4D9ED"/>
<path d="M622.879 369.215H627.244V363.067H622.879V369.215Z" fill="#C4D9ED"/>
<path d="M614.721 369.215H619.086V363.067H614.721V369.215Z" fill="#C4D9ED"/>
<path d="M606.75 369.215H611.111V363.067H606.75V369.215Z" fill="#C4D9ED"/>
<path d="M599.184 369.215H603.545V363.067H599.184V369.215Z" fill="#C4D9ED"/>
<path d="M591.475 369.215H595.84V363.067H591.475V369.215Z" fill="#C4D9ED"/>
<path d="M583.676 369.215H588.041V363.067H583.676V369.215Z" fill="#C4D9ED"/>
<path d="M575.521 369.215H579.883V363.067H575.521V369.215Z" fill="#C4D9ED"/>
<path d="M567.545 369.215H571.906V363.067H567.545V369.215Z" fill="#C4D9ED"/>
<path d="M559.979 369.215H564.344V363.067H559.979V369.215Z" fill="#C4D9ED"/>
<path d="M552.272 369.215H556.637V363.067H552.272V369.215Z" fill="#C4D9ED"/>
<path d="M622.879 380.062H627.244V373.914H622.879V380.062Z" fill="#C4D9ED"/>
<path d="M614.721 380.062H619.086V373.914H614.721V380.062Z" fill="#C4D9ED"/>
<path d="M606.75 380.062H611.111V373.914H606.75V380.062Z" fill="#C4D9ED"/>
<path d="M599.184 380.062H603.545V373.914H599.184V380.062Z" fill="#C4D9ED"/>
<path d="M591.475 380.062H595.84V373.914H591.475V380.062Z" fill="#C4D9ED"/>
<path d="M583.676 380.062H588.041V373.914H583.676V380.062Z" fill="#C4D9ED"/>
<path d="M575.521 380.062H579.883V373.914H575.521V380.062Z" fill="#C4D9ED"/>
<path d="M567.545 380.062H571.906V373.914H567.545V380.062Z" fill="#C4D9ED"/>
<path d="M559.979 380.062H564.344V373.914H559.979V380.062Z" fill="#C4D9ED"/>
<path d="M552.272 380.062H556.637V373.914H552.272V380.062Z" fill="#C4D9ED"/>
<path d="M622.879 390.745H627.244V384.597H622.879V390.745Z" fill="#C4D9ED"/>
<path d="M614.721 390.745H619.086V384.597H614.721V390.745Z" fill="#C4D9ED"/>
<path d="M606.75 390.745H611.111V384.597H606.75V390.745Z" fill="#C4D9ED"/>
<path d="M599.184 390.745H603.545V384.597H599.184V390.745Z" fill="#C4D9ED"/>
<path d="M591.475 390.745H595.84V384.597H591.475V390.745Z" fill="#C4D9ED"/>
<path d="M583.676 390.745H588.041V384.597H583.676V390.745Z" fill="#C4D9ED"/>
<path d="M575.521 390.745H579.883V384.597H575.521V390.745Z" fill="#C4D9ED"/>
<path d="M567.545 390.745H571.906V384.597H567.545V390.745Z" fill="#C4D9ED"/>
<path d="M559.979 390.745H564.344V384.597H559.979V390.745Z" fill="#C4D9ED"/>
<path d="M552.272 390.745H556.637V384.597H552.272V390.745Z" fill="#C4D9ED"/>
<path d="M622.884 350.555H626.551V344.213H622.884V350.555Z" fill="#ADC9E0"/>
<path d="M586.479 350.555H590.146V344.213H586.479V350.555Z" fill="#ADC9E0"/>
<path d="M557.526 350.555H561.193V344.213H557.526V350.555Z" fill="#ADC9E0"/>
<path d="M725.889 403.58H810.842V346.46H725.889V403.58Z" fill="#D5E7F7"/>
<path d="M725.889 357.564H810.842V339H725.889V357.564Z" fill="#C4D9ED"/>
<path d="M761.487 369.215H765.852V363.067H761.487V369.215Z" fill="#C4D9ED"/>
<path d="M753.329 369.215H757.693V363.067H753.329V369.215Z" fill="#C4D9ED"/>
<path d="M745.352 369.215H749.717V363.067H745.352V369.215Z" fill="#C4D9ED"/>
<path d="M737.788 369.215H742.152V363.067H737.788V369.215Z" fill="#C4D9ED"/>
<path d="M730.083 369.215H734.447V363.067H730.083V369.215Z" fill="#C4D9ED"/>
<path d="M761.487 380.062H765.852V373.914H761.487V380.062Z" fill="#C4D9ED"/>
<path d="M753.329 380.062H757.693V373.914H753.329V380.062Z" fill="#C4D9ED"/>
<path d="M745.352 380.062H749.717V373.914H745.352V380.062Z" fill="#C4D9ED"/>
<path d="M737.788 380.062H742.152V373.914H737.788V380.062Z" fill="#C4D9ED"/>
<path d="M730.083 380.062H734.447V373.914H730.083V380.062Z" fill="#C4D9ED"/>
<path d="M761.487 390.746H765.852V384.598H761.487V390.746Z" fill="#C4D9ED"/>
<path d="M753.329 390.746H757.693V384.598H753.329V390.746Z" fill="#C4D9ED"/>
<path d="M745.352 390.746H749.717V384.598H745.352V390.746Z" fill="#C4D9ED"/>
<path d="M737.788 390.746H742.152V384.598H737.788V390.746Z" fill="#C4D9ED"/>
<path d="M730.083 390.746H734.447V384.598H730.083V390.746Z" fill="#C4D9ED"/>
<path d="M764.296 350.555H767.963V344.213H764.296V350.555Z" fill="#ADC9E0"/>
<path d="M735.339 350.555H739.006V344.213H735.339V350.555Z" fill="#ADC9E0"/>
<path d="M716.844 391.144C716.844 390.806 716.844 390.466 716.834 390.125C716.834 388.052 716.824 385.937 716.815 384.181C716.795 381.359 715.825 378.779 714.738 376.774C713.323 374.185 711.723 372.547 711.723 372.547L708.397 369.861L697.224 360.874L697.159 360.734C697.415 360.472 697.643 360.176 697.811 359.842C698.055 359.355 698.191 358.804 698.191 358.233V351.793C698.191 349.814 696.572 348.185 694.582 348.185H693.427C692.755 348.185 692.129 348.377 691.587 348.701L683.919 332.138C683.452 329.932 682.832 327.914 682.15 326.12C680.057 320.598 674.119 316.841 667.369 316.841H667.142H627.649H609.603V316.845H609.6V316.942H533.457V398.917H542.929C543.767 403.154 546.33 406.263 549.403 406.263C549.403 406.263 553.148 406.263 553.671 406.263C556.744 406.263 559.307 403.154 560.145 398.917H579.898C580.735 403.154 583.298 406.263 586.372 406.263C586.372 406.263 590.116 406.263 590.639 406.263C593.709 406.263 596.276 403.154 597.113 398.917H609.606H612.099H618.615H641.463C641.317 398.074 641.249 397.201 641.249 396.299C641.249 396.234 641.269 396.176 641.269 396.111L641.463 398.917H643.498C644.335 403.154 646.899 406.263 649.972 406.263C649.972 406.263 653.717 406.263 654.239 406.263C657.313 406.263 659.876 403.154 660.713 398.917H667.671H692.557C693.395 403.154 695.958 406.263 699.031 406.263C699.031 406.263 702.776 406.263 703.299 406.263C706.388 406.263 708.965 403.122 709.786 398.846C713.741 398.489 716.853 395.199 716.844 391.144Z" fill="#ABC6DD"/>
<path d="M456.696 35.1592C433.545 35.1592 414.775 53.9246 414.775 77.0699C414.775 100.215 456.696 151.677 456.696 151.677C456.696 151.677 498.616 100.218 498.616 77.0699C498.616 53.9213 479.849 35.1592 456.696 35.1592ZM456.696 96.2344C445.873 96.2344 437.102 87.4616 437.102 76.6449C437.102 65.8249 445.873 57.0554 456.696 57.0554C467.518 57.0554 476.289 65.8249 476.289 76.6449C476.289 87.4616 467.518 96.2344 456.696 96.2344Z" fill="#EC1B24"/>
<path d="M603.447 261.094V278.065C603.447 279.574 603.09 281.03 602.451 282.309C600.893 285.426 597.645 287.574 593.939 287.574H590.895C585.68 287.574 581.387 283.305 581.387 278.068V261.097C581.387 259.306 581.899 257.648 582.766 256.214C582.766 256.188 582.766 256.188 582.766 256.188C584.453 253.427 587.471 251.588 590.895 251.588H593.939C599.18 251.584 603.447 255.88 603.447 261.094Z" fill="#922328"/>
<path opacity="0.3" d="M602.451 282.305C600.893 285.423 597.645 287.571 593.939 287.571H590.895C585.68 287.571 581.387 283.301 581.387 278.065V261.094C581.387 259.303 581.899 257.645 582.766 256.211C582.944 257.259 586.984 280.544 602.451 282.305Z" fill="#A8302D"/>
<path d="M452.687 385.304H499.692V337.872H450.652L452.687 385.304Z" fill="#661717"/>
<path d="M600.914 285.04L369.967 290.734V168.977H521.623C536.08 168.977 549.32 177.068 555.914 189.932L565.838 209.298L600.914 285.04Z" fill="#EC1B24"/>
<path d="M469.715 377.59C469.715 390.467 476.357 404.667 476.357 404.667C476.357 404.667 486.232 404.667 487.605 404.667C497.486 404.667 505.495 392.543 505.495 377.59C505.495 362.637 486.239 350.512 476.357 350.512C466.476 350.512 469.715 362.633 469.715 377.59Z" fill="#631818"/>
<path d="M476.357 404.667C486.238 404.667 494.247 392.544 494.247 377.59C494.247 362.635 486.238 350.512 476.357 350.512C466.477 350.512 458.467 362.635 458.467 377.59C458.467 392.544 466.477 404.667 476.357 404.667Z" fill="#822121"/>
<path d="M476.582 397.987C484.025 397.987 490.059 388.855 490.059 377.59C490.059 366.325 484.025 357.193 476.582 357.193C469.139 357.193 463.105 366.325 463.105 377.59C463.105 388.855 469.139 397.987 476.582 397.987Z" fill="#661717"/>
<path d="M599.025 377.59C599.025 390.467 605.668 404.667 605.668 404.667C605.668 404.667 615.543 404.667 616.916 404.667C626.797 404.667 634.806 392.543 634.806 377.59C634.806 362.637 615.549 350.512 605.668 350.512C595.787 350.512 599.025 362.633 599.025 377.59Z" fill="#631818"/>
<path d="M587.777 377.59C587.777 392.543 595.786 404.667 605.668 404.667C615.549 404.667 623.558 392.543 623.558 377.59C623.558 362.636 615.549 350.512 605.668 350.512C595.786 350.512 587.777 362.633 587.777 377.59Z" fill="#822121"/>
<path d="M592.416 377.59C592.416 388.854 598.449 397.987 605.89 397.987C613.331 397.987 619.367 388.854 619.367 377.59C619.367 366.326 613.334 357.193 605.89 357.193C598.445 357.193 592.416 366.326 592.416 377.59Z" fill="#661717"/>
<path d="M302.076 377.59C302.076 390.467 308.719 404.667 308.719 404.667C308.719 404.667 318.593 404.667 319.966 404.667C329.847 404.667 337.856 392.543 337.856 377.59C337.856 362.637 318.6 350.512 308.722 350.512C298.837 350.512 302.076 362.633 302.076 377.59Z" fill="#631818"/>
<path d="M290.828 377.59C290.828 392.543 298.837 404.667 308.718 404.667C318.6 404.667 326.609 392.543 326.609 377.59C326.609 362.636 318.6 350.512 308.718 350.512C298.837 350.512 290.828 362.633 290.828 377.59Z" fill="#822121"/>
<path d="M295.469 377.59C295.469 388.854 301.501 397.987 308.942 397.987C316.383 397.987 322.419 388.854 322.419 377.59C322.419 366.326 316.387 357.193 308.942 357.193C301.498 357.193 295.469 366.326 295.469 377.59Z" fill="#661717"/>
<path d="M652.615 364.81C652.641 376.132 643.464 385.308 632.164 385.308H499.693C500.076 383.085 500.28 380.785 500.28 378.407C500.28 360.9 489.773 346.69 476.838 346.69C463.877 346.69 453.369 360.9 453.369 378.407C453.369 380.785 453.548 383.085 453.931 385.308H376.522C376.522 385.308 373.404 350.755 373.787 333.424C374.095 318.344 374.095 288.801 373.199 281.592C373.199 280.518 447.846 280.388 466.687 280.313C469.244 280.287 470.776 280.287 470.932 280.287L471.188 280.466L471.47 280.67C474.946 283.097 494.426 296.746 506.517 304.747C517.178 311.774 595.861 314.639 626.719 315.508C634.387 315.713 639.118 315.79 639.118 315.79C639.118 315.79 643.337 320.109 647.069 326.935C649.931 332.226 652.488 339.023 652.54 346.463C652.566 351.089 652.592 356.66 652.592 362.13C652.615 363.019 652.615 363.914 652.615 364.81Z" fill="#EC1B24"/>
<path d="M582.289 280.288H478.501C476.1 280.288 473.926 278.883 472.929 276.709L447.238 219.563C446.394 217.697 447.777 215.575 449.821 215.575H559.311C561.715 215.575 563.912 217.006 564.882 219.229L583.289 261.272L587.89 271.778C589.626 275.791 586.686 280.288 582.289 280.288Z" fill="#A2C2DD"/>
<path d="M533.953 362.123C533.927 363.914 533.853 365.598 533.749 367.107C533.009 377.047 523.011 385.304 523.011 385.304H499.698C500.081 383.082 500.285 380.782 500.285 378.403C500.285 372.447 499.059 366.876 496.962 362.123C492.847 352.87 485.381 346.687 476.843 346.687C468.279 346.687 460.815 352.874 456.697 362.123C454.601 366.876 453.374 372.45 453.374 378.403C453.374 380.782 453.553 383.082 453.936 385.304H369.959V168.983H437.373V211.919C437.373 211.919 457.593 259.407 466.695 280.313C468.944 285.527 470.531 289.08 470.94 289.845C472.958 293.703 519.944 317.474 527.716 324.476C532.035 328.362 534.18 348.552 533.953 362.123Z" fill="#BB1017"/>
<path d="M438.122 225.857L460.231 280.297H422.296C422.296 280.297 414.514 278.996 413.518 263.096C412.453 246.121 412.453 216.831 412.453 216.831L429.104 216.75C435.451 217.71 436.444 221.195 438.122 225.857Z" fill="#A2C2DD"/>
<path d="M639.117 315.787H516.105L471.19 280.466L470.934 280.287H595.02L630.349 308.708L639.117 315.787Z" fill="#EC1B24"/>
<path d="M647.068 326.932C646.351 328.11 645.432 328.875 644.436 329.054L627.182 332.25C625.725 332.532 624.599 330.001 624.982 327.393L626.669 315.791L626.721 315.509L627.052 313.131C627.357 311.087 628.253 309.526 629.353 309.091L630.349 308.708L639.117 315.788C639.117 315.788 643.336 320.106 647.068 326.932Z" fill="#C4D9ED"/>
<path d="M532.034 336.542L520.913 335.442C517.029 335.059 513.885 332.146 513.193 328.311L510.636 314.253C510.584 314.023 510.558 313.818 510.584 313.588C518.509 318.136 525.181 322.202 527.712 324.476C529.555 326.14 531.009 330.741 532.034 336.542Z" fill="#A8302D"/>
<path d="M553.15 338.638L532.06 336.542H532.034L520.913 335.442C517.029 335.059 513.885 332.146 513.193 328.311L510.636 314.253C510.584 314.023 510.558 313.818 510.584 313.588V313.562C510.458 310.597 513.167 308.196 516.208 308.809L549.058 315.479C551.154 315.914 552.816 317.471 553.377 319.519L557.239 333.781C557.956 336.389 555.834 338.92 553.15 338.638Z" fill="#C4D9ED"/>
<path d="M565.843 209.294H437.691C437.691 209.294 437.195 201.096 433.979 191.733C431.116 183.463 426.168 174.242 417.51 168.977H522.229C539.298 168.977 554.427 178.093 560.433 191.733C560.716 192.297 560.962 192.862 561.177 193.429C562.981 198.163 564.607 203.464 565.843 209.294Z" fill="#EC1B24"/>
<path d="M532.06 336.542L520.913 335.442C517.029 335.059 513.885 332.146 513.193 328.311L510.636 314.253C510.584 314.023 510.558 313.792 510.584 313.562C518.509 318.137 525.181 322.202 527.712 324.476C529.555 326.14 531.009 330.741 532.06 336.542Z" fill="#A2C2DD"/>
<path opacity="0.3" d="M652.615 364.81C652.64 376.133 643.028 385.308 631.168 385.308H499.693C500.076 383.085 500.28 380.785 500.28 378.407C500.28 372.45 499.053 366.88 496.957 362.127H652.589C652.615 363.019 652.615 363.914 652.615 364.81Z" fill="#8E2323"/>
<path opacity="0.3" d="M453.374 378.403C453.374 380.782 453.553 383.082 453.935 385.304H369.959V362.123H456.697C454.601 366.88 453.374 372.45 453.374 378.403Z" fill="#8E2323"/>
<path opacity="0.3" d="M566.009 316.787H616.311C617.918 316.787 619.148 318.954 618.901 321.355L617.116 338.832C616.853 341.402 615.39 343.3 613.67 343.3H572.227C569.569 343.3 567.226 340.672 566.454 336.827L563.468 321.968C562.949 319.389 564.225 316.787 566.009 316.787Z" fill="#8E2323"/>
<path d="M583.285 261.272C523.952 258.232 483.816 226.489 471.699 215.575H559.307C561.712 215.575 563.909 217.006 564.879 219.229L583.285 261.272Z" fill="#C4D9ED"/>
<path d="M393.692 168.977H169.268V385.321H393.692V168.977Z" fill="#661717"/>
<path d="M448.982 252.344C448.982 252.344 450.903 274.347 440.035 280.372H460.333L448.982 252.344Z" fill="#631818"/>
<path d="M451.964 267.066C451.964 267.066 447.382 263.806 446.986 261.103V276.491H452.983L451.964 267.066Z" fill="#631818"/>
<path d="M446.982 261.094V278.065C446.982 279.574 446.625 281.031 445.986 282.309C444.428 285.427 441.18 287.575 437.474 287.575H434.43C429.215 287.575 424.922 283.305 424.922 278.069V261.097C424.922 259.306 425.431 257.649 426.301 256.215C426.301 256.189 426.301 256.189 426.301 256.189C427.988 253.428 431.006 251.588 434.43 251.588H437.474C442.711 251.585 446.982 255.88 446.982 261.094Z" fill="#C94C43"/>
<path opacity="0.3" d="M445.982 282.306C444.424 285.424 441.176 287.571 437.47 287.571H434.426C429.211 287.571 424.918 283.302 424.918 278.065V261.094C424.918 259.303 425.427 257.645 426.297 256.211C426.479 257.259 430.519 280.544 445.982 282.306Z" fill="#8E2323"/>
<path d="M242.568 385.321H187.362C186.197 380.337 182.686 344.864 213.621 344.864C241.737 344.86 243.804 377.229 242.568 385.321Z" fill="#661717"/>
<path d="M204.644 377.59C204.644 390.467 211.286 404.667 211.286 404.667C211.286 404.667 221.161 404.667 222.534 404.667C232.415 404.667 240.424 392.543 240.424 377.59C240.424 362.637 221.168 350.512 211.286 350.512C201.408 350.512 204.644 362.633 204.644 377.59Z" fill="#631818"/>
<path d="M193.396 377.59C193.396 392.543 201.405 404.667 211.287 404.667C221.168 404.667 229.177 392.543 229.177 377.59C229.177 362.636 221.168 350.512 211.287 350.512C201.409 350.512 193.396 362.633 193.396 377.59Z" fill="#822121"/>
<path d="M198.035 377.59C198.035 388.854 204.068 397.987 211.512 397.987C218.953 397.987 224.986 388.854 224.986 377.59C224.986 366.326 218.953 357.193 211.512 357.193C204.068 357.193 198.035 366.326 198.035 377.59Z" fill="#661717"/>
<path opacity="0.3" d="M565.843 209.294H437.691C437.691 209.294 437.194 201.096 433.979 191.733H560.433C560.716 192.297 560.962 192.862 561.176 193.429C562.981 198.163 564.607 203.464 565.843 209.294Z" fill="#8E2323"/>
<path d="M373.208 300.649C372.977 300.649 372.747 300.548 372.588 300.357L371.585 299.14C371.303 298.796 371.351 298.29 371.692 298.008C372.036 297.726 372.542 297.774 372.825 298.115L373.827 299.328C374.11 299.672 374.064 300.178 373.72 300.461C373.571 300.587 373.389 300.649 373.208 300.649ZM370.839 297.774C370.605 297.774 370.375 297.674 370.216 297.479C369.768 296.931 369.313 296.379 368.853 295.815C368.57 295.471 368.622 294.965 368.966 294.682C369.31 294.4 369.816 294.452 370.099 294.796C370.556 295.357 371.011 295.909 371.458 296.457C371.741 296.801 371.689 297.307 371.348 297.589C371.199 297.716 371.02 297.774 370.839 297.774ZM368.126 294.449C367.892 294.449 367.659 294.348 367.499 294.15C367.052 293.599 366.604 293.041 366.15 292.476C365.87 292.129 365.929 291.623 366.273 291.344C366.62 291.065 367.126 291.123 367.405 291.467C367.856 292.032 368.304 292.587 368.749 293.138C369.028 293.482 368.976 293.991 368.629 294.27C368.483 294.39 368.304 294.449 368.126 294.449ZM365.439 291.097C365.202 291.097 364.965 290.994 364.806 290.792C364.365 290.234 363.92 289.673 363.476 289.102C363.2 288.752 363.261 288.246 363.612 287.973C363.962 287.701 364.469 287.759 364.741 288.109C365.186 288.677 365.627 289.238 366.068 289.793C366.344 290.14 366.286 290.646 365.939 290.922C365.789 291.039 365.614 291.097 365.439 291.097ZM362.791 287.717C362.551 287.717 362.311 287.61 362.155 287.405C361.72 286.841 361.282 286.273 360.844 285.699C360.574 285.345 360.643 284.839 360.996 284.57C361.35 284.3 361.856 284.369 362.126 284.722C362.56 285.293 362.999 285.861 363.43 286.419C363.703 286.769 363.638 287.276 363.287 287.548C363.135 287.662 362.963 287.717 362.791 287.717ZM360.185 284.301C359.942 284.301 359.698 284.19 359.543 283.979C359.114 283.408 358.686 282.834 358.254 282.253C357.991 281.896 358.066 281.394 358.423 281.128C358.78 280.861 359.283 280.939 359.549 281.296C359.977 281.874 360.402 282.445 360.831 283.012C361.097 283.366 361.026 283.872 360.672 284.138C360.523 284.249 360.354 284.301 360.185 284.301ZM357.631 280.852C357.381 280.852 357.138 280.738 356.979 280.521C356.557 279.943 356.138 279.359 355.72 278.775C355.46 278.415 355.545 277.912 355.905 277.653C356.265 277.393 356.768 277.478 357.028 277.841C357.446 278.425 357.862 279.002 358.28 279.577C358.543 279.937 358.462 280.44 358.102 280.699C357.962 280.8 357.797 280.852 357.631 280.852ZM355.132 277.358C354.879 277.358 354.629 277.238 354.474 277.014C354.062 276.43 353.653 275.839 353.244 275.245C352.991 274.879 353.085 274.379 353.451 274.126C353.818 273.873 354.318 273.967 354.571 274.334C354.977 274.924 355.386 275.508 355.791 276.092C356.048 276.456 355.96 276.958 355.593 277.215C355.454 277.309 355.295 277.358 355.132 277.358ZM352.699 273.821C352.439 273.821 352.186 273.698 352.03 273.468C351.631 272.874 351.232 272.277 350.836 271.673C350.593 271.304 350.693 270.804 351.066 270.557C351.436 270.314 351.936 270.415 352.183 270.788C352.575 271.385 352.971 271.978 353.37 272.569C353.62 272.939 353.52 273.438 353.153 273.685C353.01 273.776 352.854 273.821 352.699 273.821ZM350.336 270.236C350.073 270.236 349.814 270.106 349.658 269.866C349.269 269.263 348.882 268.659 348.499 268.049C348.263 267.673 348.376 267.177 348.753 266.94C349.129 266.703 349.625 266.817 349.862 267.193C350.242 267.796 350.625 268.4 351.011 268.997C351.251 269.37 351.144 269.87 350.771 270.11C350.635 270.194 350.485 270.236 350.336 270.236ZM348.048 266.602C347.779 266.602 347.513 266.466 347.36 266.22C346.984 265.61 346.614 264.993 346.244 264.374C346.017 263.991 346.14 263.498 346.523 263.271C346.906 263.043 347.399 263.167 347.627 263.55C347.993 264.163 348.363 264.773 348.733 265.376C348.967 265.756 348.847 266.252 348.467 266.482C348.337 266.564 348.191 266.602 348.048 266.602ZM345.848 262.917C345.569 262.917 345.3 262.774 345.151 262.515C344.79 261.895 344.433 261.269 344.08 260.643C343.862 260.257 343.998 259.763 344.385 259.546C344.771 259.329 345.264 259.465 345.482 259.851C345.832 260.471 346.186 261.09 346.543 261.703C346.767 262.086 346.634 262.579 346.251 262.803C346.124 262.881 345.984 262.917 345.848 262.917ZM343.739 259.176C343.453 259.176 343.178 259.024 343.031 258.758C342.688 258.125 342.344 257.489 342.006 256.85C341.798 256.457 341.948 255.971 342.34 255.763C342.733 255.555 343.22 255.705 343.427 256.097C343.762 256.73 344.099 257.359 344.443 257.985C344.657 258.375 344.511 258.865 344.122 259.079C344.002 259.144 343.869 259.176 343.739 259.176ZM341.727 255.37C341.435 255.37 341.153 255.212 341.01 254.932C340.682 254.29 340.361 253.644 340.04 252.999C339.845 252.6 340.007 252.116 340.406 251.922C340.805 251.727 341.289 251.889 341.484 252.288C341.798 252.927 342.116 253.567 342.441 254.203C342.642 254.598 342.486 255.082 342.09 255.286C341.977 255.341 341.85 255.37 341.727 255.37ZM339.832 251.51C339.53 251.51 339.241 251.341 339.105 251.049C338.797 250.397 338.495 249.745 338.196 249.086C338.015 248.681 338.193 248.204 338.599 248.022C339.004 247.84 339.481 248.019 339.663 248.424C339.958 249.073 340.257 249.719 340.559 250.364C340.747 250.767 340.575 251.247 340.176 251.435C340.062 251.487 339.945 251.51 339.832 251.51ZM338.06 247.597C337.748 247.597 337.453 247.415 337.32 247.11C337.035 246.448 336.752 245.787 336.48 245.118C336.311 244.706 336.506 244.236 336.918 244.067C337.33 243.898 337.8 244.093 337.969 244.505C338.242 245.164 338.518 245.819 338.8 246.471C338.975 246.88 338.79 247.354 338.381 247.529C338.274 247.574 338.167 247.597 338.06 247.597ZM336.421 243.623C336.1 243.623 335.795 243.428 335.672 243.11C335.409 242.438 335.152 241.767 334.903 241.089C334.747 240.67 334.961 240.21 335.38 240.054C335.798 239.898 336.259 240.112 336.415 240.528C336.661 241.193 336.914 241.858 337.174 242.52C337.336 242.935 337.132 243.399 336.716 243.561C336.619 243.606 336.519 243.623 336.421 243.623ZM334.932 239.6C334.597 239.6 334.286 239.392 334.172 239.058C333.935 238.376 333.705 237.695 333.481 237.007C333.345 236.586 333.575 236.131 333.997 235.992C334.419 235.856 334.873 236.086 335.013 236.508C335.233 237.183 335.461 237.857 335.694 238.526C335.84 238.944 335.62 239.405 335.198 239.551C335.107 239.583 335.019 239.6 334.932 239.6ZM333.601 235.518C333.257 235.518 332.936 235.294 332.832 234.947C332.624 234.259 332.42 233.559 332.225 232.871C332.105 232.443 332.355 231.998 332.783 231.878C333.212 231.758 333.656 232.008 333.776 232.436C333.968 233.114 334.166 233.802 334.374 234.48C334.503 234.905 334.263 235.356 333.838 235.483C333.757 235.505 333.679 235.518 333.601 235.518ZM332.443 231.385C332.083 231.385 331.758 231.145 331.664 230.781C331.485 230.081 331.31 229.373 331.151 228.679C331.051 228.248 331.32 227.813 331.752 227.712C332.186 227.612 332.618 227.881 332.719 228.312C332.878 228.994 333.046 229.691 333.225 230.379C333.335 230.811 333.076 231.249 332.644 231.359C332.576 231.378 332.508 231.385 332.443 231.385ZM331.472 227.206C331.099 227.206 330.765 226.943 330.684 226.564C330.538 225.856 330.398 225.139 330.268 224.439C330.187 224.001 330.479 223.582 330.914 223.501C331.352 223.42 331.771 223.712 331.852 224.15C331.979 224.841 332.115 225.542 332.258 226.236C332.349 226.671 332.07 227.096 331.635 227.187C331.58 227.2 331.524 227.206 331.472 227.206ZM330.7 222.982C330.311 222.982 329.967 222.7 329.905 222.301C329.795 221.587 329.691 220.867 329.597 220.156C329.538 219.715 329.85 219.313 330.291 219.254C330.733 219.199 331.135 219.507 331.193 219.949C331.284 220.646 331.385 221.353 331.495 222.054C331.563 222.492 331.265 222.904 330.823 222.972C330.784 222.979 330.742 222.982 330.7 222.982ZM330.145 218.722C329.74 218.722 329.389 218.414 329.347 218.002C329.272 217.282 329.207 216.555 329.152 215.841C329.12 215.397 329.451 215.011 329.892 214.978C330.333 214.939 330.723 215.277 330.755 215.718C330.81 216.419 330.872 217.129 330.947 217.836C330.992 218.278 330.671 218.673 330.23 218.719C330.2 218.722 330.174 218.722 330.145 218.722ZM329.817 214.44C329.392 214.44 329.035 214.105 329.013 213.674C328.977 212.95 328.951 212.22 328.938 211.503C328.928 211.059 329.282 210.692 329.727 210.683C330.171 210.663 330.538 211.027 330.548 211.471C330.561 212.175 330.587 212.889 330.622 213.596C330.645 214.041 330.301 214.417 329.856 214.44C329.843 214.436 329.83 214.44 329.817 214.44ZM329.73 210.138C329.727 210.138 329.727 210.138 329.723 210.138C329.279 210.134 328.922 209.771 328.925 209.326C328.932 208.603 328.948 207.873 328.974 207.156C328.99 206.712 329.36 206.371 329.808 206.381C330.252 206.397 330.6 206.77 330.583 207.214C330.557 207.915 330.541 208.629 330.535 209.336C330.531 209.784 330.171 210.138 329.73 210.138ZM329.892 205.845C329.873 205.845 329.856 205.845 329.837 205.842C329.392 205.813 329.058 205.43 329.087 204.986C329.136 204.265 329.194 203.535 329.266 202.818C329.308 202.377 329.704 202.053 330.145 202.095C330.587 202.137 330.911 202.53 330.869 202.974C330.801 203.675 330.742 204.389 330.697 205.093C330.664 205.521 330.311 205.845 329.892 205.845ZM330.304 201.569C330.272 201.569 330.236 201.566 330.2 201.563C329.759 201.508 329.447 201.102 329.503 200.664C329.594 199.95 329.697 199.227 329.808 198.516C329.876 198.078 330.288 197.78 330.729 197.848C331.167 197.916 331.469 198.328 331.398 198.769C331.287 199.464 331.187 200.171 331.099 200.868C331.051 201.274 330.703 201.569 330.304 201.569ZM330.976 197.332C330.927 197.332 330.875 197.329 330.827 197.319C330.389 197.238 330.103 196.816 330.184 196.378C330.317 195.671 330.463 194.957 330.619 194.253C330.716 193.818 331.145 193.543 331.58 193.64C332.014 193.734 332.287 194.166 332.193 194.6C332.04 195.288 331.898 195.986 331.768 196.68C331.693 197.063 331.352 197.332 330.976 197.332ZM331.901 193.144C331.836 193.144 331.768 193.137 331.703 193.118C331.271 193.007 331.012 192.573 331.119 192.141C331.294 191.447 331.485 190.739 331.683 190.045C331.807 189.617 332.251 189.37 332.676 189.49C333.105 189.614 333.351 190.058 333.231 190.483C333.037 191.161 332.852 191.852 332.68 192.53C332.589 192.9 332.261 193.144 331.901 193.144ZM333.076 189.02C332.994 189.02 332.913 189.007 332.832 188.981C332.407 188.848 332.173 188.394 332.31 187.972C332.527 187.291 332.757 186.596 332.998 185.915C333.144 185.497 333.604 185.276 334.023 185.422C334.442 185.568 334.662 186.029 334.516 186.447C334.283 187.116 334.056 187.79 333.845 188.459C333.734 188.799 333.416 189.02 333.076 189.02ZM334.494 184.968C334.4 184.968 334.302 184.952 334.205 184.916C333.789 184.757 333.582 184.293 333.741 183.878C333.997 183.209 334.266 182.531 334.546 181.863C334.718 181.454 335.188 181.259 335.597 181.428C336.006 181.6 336.201 182.071 336.032 182.479C335.759 183.131 335.496 183.797 335.243 184.449C335.12 184.773 334.815 184.968 334.494 184.968ZM336.142 181.01C336.032 181.01 335.918 180.987 335.811 180.938C335.406 180.757 335.224 180.28 335.406 179.874C335.701 179.219 336.009 178.56 336.321 177.911C336.515 177.512 336.996 177.343 337.395 177.538C337.794 177.733 337.963 178.213 337.768 178.612C337.46 179.248 337.158 179.897 336.869 180.536C336.742 180.831 336.447 181.01 336.142 181.01ZM338.008 177.146C337.885 177.146 337.758 177.116 337.638 177.055C337.242 176.85 337.09 176.364 337.294 175.971C337.622 175.335 337.966 174.693 338.316 174.06C338.531 173.671 339.021 173.528 339.41 173.742C339.799 173.956 339.942 174.446 339.728 174.836C339.387 175.455 339.05 176.088 338.728 176.708C338.579 176.987 338.3 177.146 338.008 177.146ZM340.078 173.389C339.939 173.389 339.799 173.353 339.673 173.278C339.29 173.054 339.16 172.561 339.384 172.178C339.744 171.565 340.121 170.939 340.5 170.323C340.734 169.946 341.23 169.83 341.607 170.063C341.983 170.297 342.1 170.793 341.866 171.169C341.493 171.773 341.123 172.386 340.77 172.99C340.624 173.246 340.354 173.389 340.078 173.389ZM342.337 169.742C342.188 169.742 342.032 169.7 341.899 169.612C341.526 169.369 341.422 168.869 341.665 168.499C342.055 167.902 342.46 167.296 342.869 166.702C343.122 166.335 343.622 166.241 343.989 166.494C344.355 166.747 344.446 167.247 344.196 167.614C343.794 168.198 343.395 168.791 343.012 169.379C342.856 169.612 342.6 169.742 342.337 169.742ZM344.768 166.206C344.605 166.206 344.44 166.157 344.297 166.053C343.937 165.794 343.856 165.291 344.115 164.931C344.534 164.35 344.966 163.766 345.4 163.192C345.67 162.838 346.173 162.767 346.526 163.036C346.88 163.305 346.952 163.808 346.682 164.162C346.254 164.726 345.829 165.304 345.417 165.871C345.264 166.089 345.017 166.206 344.768 166.206ZM347.354 162.783C347.179 162.783 347.003 162.728 346.854 162.611C346.507 162.335 346.445 161.829 346.721 161.482C347.162 160.924 347.62 160.359 348.081 159.798C348.363 159.454 348.869 159.405 349.213 159.688C349.557 159.97 349.606 160.476 349.324 160.82C348.869 161.371 348.418 161.926 347.987 162.478C347.828 162.676 347.591 162.783 347.354 162.783ZM350.083 159.47C349.898 159.47 349.71 159.405 349.557 159.276C349.22 158.987 349.181 158.478 349.47 158.14C349.937 157.598 350.411 157.056 350.894 156.515C351.19 156.184 351.699 156.155 352.03 156.45C352.361 156.745 352.39 157.254 352.095 157.585C351.618 158.121 351.151 158.653 350.69 159.188C350.537 159.376 350.31 159.47 350.083 159.47ZM352.942 156.271C352.747 156.271 352.549 156.2 352.394 156.057C352.069 155.755 352.05 155.246 352.351 154.918C352.838 154.396 353.331 153.871 353.834 153.348C354.143 153.027 354.652 153.017 354.973 153.325C355.295 153.634 355.304 154.143 354.996 154.464C354.5 154.98 354.013 155.496 353.533 156.012C353.374 156.184 353.159 156.271 352.942 156.271ZM355.918 153.179C355.713 153.179 355.506 153.102 355.35 152.946C355.035 152.631 355.035 152.122 355.347 151.807C355.85 151.301 356.362 150.795 356.885 150.292C357.203 149.984 357.712 149.99 358.024 150.308C358.332 150.626 358.326 151.136 358.008 151.447C357.495 151.947 356.989 152.446 356.489 152.943C356.33 153.102 356.125 153.179 355.918 153.179ZM359.001 150.191C358.786 150.191 358.572 150.107 358.413 149.938C358.108 149.614 358.124 149.105 358.449 148.8C358.968 148.31 359.497 147.823 360.036 147.336C360.364 147.038 360.873 147.061 361.172 147.392C361.47 147.719 361.447 148.229 361.116 148.527C360.587 149.01 360.065 149.491 359.549 149.974C359.393 150.12 359.195 150.191 359.001 150.191ZM362.174 147.304C361.95 147.304 361.73 147.213 361.571 147.031C361.275 146.697 361.308 146.191 361.642 145.896C362.178 145.425 362.719 144.952 363.271 144.481C363.609 144.193 364.118 144.232 364.407 144.569C364.696 144.906 364.657 145.416 364.319 145.704C363.774 146.172 363.239 146.636 362.71 147.103C362.554 147.239 362.362 147.304 362.174 147.304ZM365.436 144.514C365.205 144.514 364.975 144.416 364.816 144.225C364.53 143.884 364.579 143.375 364.92 143.093C365.468 142.635 366.023 142.181 366.588 141.727C366.932 141.448 367.441 141.5 367.72 141.847C367.999 142.191 367.947 142.7 367.6 142.979C367.042 143.43 366.494 143.881 365.948 144.332C365.799 144.452 365.614 144.514 365.436 144.514ZM368.759 141.798C368.528 141.798 368.301 141.701 368.142 141.509C367.856 141.169 367.902 140.663 368.243 140.377C368.785 139.923 369.323 139.456 369.846 138.989C370.177 138.693 370.686 138.719 370.981 139.053C371.277 139.384 371.251 139.894 370.917 140.189C370.381 140.666 369.829 141.146 369.275 141.61C369.122 141.737 368.94 141.798 368.759 141.798ZM371.955 138.937C371.744 138.937 371.53 138.852 371.374 138.687C371.066 138.366 371.079 137.856 371.4 137.548C371.91 137.061 372.419 136.562 372.909 136.059C373.221 135.741 373.73 135.735 374.048 136.046C374.366 136.357 374.373 136.867 374.061 137.185C373.558 137.697 373.039 138.213 372.516 138.713C372.354 138.862 372.153 138.937 371.955 138.937ZM374.957 135.871C374.762 135.871 374.567 135.803 374.415 135.66C374.087 135.361 374.064 134.852 374.363 134.524C374.84 134.002 375.31 133.47 375.765 132.938C376.054 132.6 376.56 132.558 376.901 132.847C377.238 133.136 377.28 133.642 376.991 133.983C376.524 134.528 376.041 135.076 375.554 135.611C375.392 135.783 375.174 135.871 374.957 135.871ZM377.738 132.607C377.563 132.607 377.387 132.549 377.238 132.432C376.891 132.156 376.832 131.65 377.108 131.303C377.546 130.751 377.978 130.187 378.393 129.622C378.656 129.265 379.159 129.187 379.519 129.45C379.876 129.713 379.954 130.216 379.691 130.576C379.263 131.157 378.818 131.737 378.371 132.302C378.212 132.503 377.975 132.607 377.738 132.607ZM380.282 129.152C380.126 129.152 379.967 129.106 379.831 129.012C379.464 128.762 379.37 128.263 379.62 127.893C380.016 127.312 380.405 126.718 380.782 126.121C381.019 125.745 381.515 125.632 381.891 125.868C382.268 126.105 382.381 126.602 382.145 126.978C381.758 127.588 381.359 128.201 380.954 128.798C380.791 129.028 380.538 129.152 380.282 129.152ZM382.566 125.521C382.43 125.521 382.291 125.486 382.164 125.411C381.778 125.187 381.648 124.697 381.872 124.311C382.222 123.704 382.57 123.081 382.901 122.462C383.108 122.069 383.595 121.92 383.988 122.128C384.38 122.335 384.53 122.825 384.322 123.215C383.981 123.854 383.628 124.493 383.267 125.116C383.115 125.378 382.846 125.521 382.566 125.521ZM384.582 121.738C384.465 121.738 384.345 121.712 384.231 121.657C383.832 121.463 383.663 120.982 383.858 120.583C384.166 119.951 384.465 119.305 384.747 118.666C384.926 118.26 385.403 118.075 385.808 118.254C386.214 118.432 386.399 118.909 386.22 119.315C385.932 119.97 385.623 120.635 385.309 121.284C385.166 121.57 384.88 121.738 384.582 121.738ZM386.311 117.816C386.211 117.816 386.11 117.796 386.013 117.757C385.601 117.592 385.399 117.125 385.562 116.713C385.821 116.061 386.074 115.396 386.311 114.734C386.461 114.315 386.921 114.098 387.34 114.247C387.759 114.396 387.976 114.857 387.827 115.276C387.583 115.954 387.324 116.638 387.058 117.307C386.934 117.624 386.633 117.816 386.311 117.816ZM387.759 113.78C387.677 113.78 387.596 113.767 387.515 113.741C387.09 113.605 386.856 113.154 386.993 112.729C387.207 112.06 387.411 111.379 387.6 110.701C387.72 110.273 388.164 110.023 388.593 110.143C389.021 110.263 389.271 110.707 389.151 111.136C388.956 111.83 388.745 112.531 388.528 113.219C388.414 113.563 388.099 113.78 387.759 113.78ZM388.917 109.653C388.855 109.653 388.791 109.647 388.726 109.63C388.294 109.527 388.028 109.089 388.135 108.657C388.301 107.976 388.46 107.281 388.602 106.59C388.693 106.156 389.118 105.877 389.553 105.967C389.988 106.058 390.267 106.483 390.176 106.918C390.03 107.625 389.868 108.339 389.696 109.037C389.608 109.406 389.277 109.653 388.917 109.653ZM389.793 105.452C389.748 105.452 389.702 105.448 389.654 105.439C389.216 105.364 388.924 104.945 388.998 104.507C389.118 103.816 389.229 103.109 389.326 102.412C389.388 101.97 389.797 101.665 390.235 101.727C390.676 101.789 390.981 102.194 390.919 102.635C390.819 103.349 390.705 104.073 390.582 104.78C390.517 105.176 390.176 105.452 389.793 105.452ZM390.39 101.201C390.361 101.201 390.332 101.201 390.303 101.198C389.861 101.15 389.54 100.754 389.589 100.313C389.663 99.6182 389.732 98.9045 389.784 98.2005C389.819 97.756 390.205 97.425 390.647 97.4607C391.091 97.4964 391.422 97.8825 391.387 98.3237C391.331 99.0472 391.263 99.774 391.185 100.488C391.143 100.893 390.796 101.201 390.39 101.201ZM390.721 96.9189C390.708 96.9189 390.695 96.9189 390.682 96.9189C390.238 96.8995 389.894 96.5199 389.917 96.0786C389.949 95.3778 389.972 94.6641 389.985 93.9568C389.991 93.5123 390.364 93.1619 390.802 93.1652C391.247 93.1717 391.601 93.5383 391.594 93.9828C391.581 94.7063 391.559 95.4363 391.526 96.1533C391.503 96.5848 391.146 96.9189 390.721 96.9189ZM390.793 92.6266C390.351 92.6266 389.994 92.273 389.988 91.8318C389.978 91.1277 389.962 90.414 389.933 89.7067C389.917 89.2622 390.261 88.8891 390.705 88.8697C391.143 88.8567 391.523 89.1973 391.542 89.6418C391.572 90.3621 391.591 91.092 391.598 91.8123C391.604 92.2568 391.247 92.6201 390.802 92.6266C390.799 92.6266 390.796 92.6266 390.793 92.6266ZM390.621 88.3311C390.202 88.3311 389.848 88.0067 389.819 87.5816C389.771 86.8841 389.715 86.1703 389.647 85.4631C389.605 85.0218 389.93 84.6293 390.374 84.5871C390.815 84.5417 391.208 84.8694 391.25 85.3138C391.318 86.0341 391.377 86.7608 391.426 87.4746C391.455 87.9191 391.121 88.3019 390.676 88.3311C390.656 88.3311 390.64 88.3311 390.621 88.3311ZM390.218 84.0583C389.816 84.0583 389.469 83.7598 389.42 83.351C389.336 82.6502 389.242 81.9429 389.138 81.2454C389.073 80.8042 389.378 80.3954 389.816 80.3337C390.254 80.2688 390.666 80.5738 390.728 81.0118C390.832 81.7223 390.929 82.4458 391.017 83.1596C391.069 83.6008 390.757 84.0031 390.316 84.055C390.283 84.0583 390.251 84.0583 390.218 84.0583ZM389.595 79.8146C389.209 79.8146 388.872 79.5389 388.804 79.1463C388.683 78.4585 388.554 77.7545 388.417 77.0569C388.33 76.6222 388.615 76.1972 389.05 76.1128C389.485 76.0285 389.91 76.3107 389.994 76.7455C390.134 77.456 390.267 78.173 390.387 78.8738C390.462 79.3118 390.17 79.727 389.732 79.8049C389.686 79.8114 389.641 79.8146 389.595 79.8146ZM388.765 75.6034C388.395 75.6034 388.064 75.3471 387.979 74.974C387.827 74.2862 387.661 73.5887 387.493 72.9041C387.385 72.4726 387.648 72.0379 388.08 71.9308C388.511 71.8238 388.946 72.0866 389.053 72.5181C389.225 73.2156 389.391 73.9261 389.55 74.6269C389.647 75.0616 389.371 75.4899 388.94 75.5872C388.881 75.597 388.823 75.6034 388.765 75.6034ZM387.736 71.4377C387.382 71.4377 387.058 71.2008 386.96 70.844C386.775 70.1659 386.581 69.4748 386.379 68.7968C386.253 68.3718 386.496 67.924 386.925 67.7975C387.35 67.671 387.798 67.9143 387.924 68.3426C388.129 69.0336 388.326 69.7344 388.515 70.4254C388.632 70.8537 388.378 71.2949 387.95 71.4117C387.875 71.428 387.804 71.4377 387.736 71.4377ZM386.516 67.3141C386.175 67.3141 385.857 67.0967 385.75 66.7528C385.536 66.0812 385.309 65.3999 385.078 64.7251C384.932 64.3033 385.156 63.8459 385.578 63.7031C386 63.5571 386.457 63.781 386.6 64.2027C386.837 64.8873 387.067 65.5816 387.285 66.2629C387.421 66.6879 387.187 67.1389 386.762 67.2752C386.681 67.3011 386.597 67.3141 386.516 67.3141ZM385.117 63.2424C384.789 63.2424 384.481 63.0413 384.361 62.7168C384.114 62.0517 383.861 61.3801 383.602 60.7215C383.439 60.3063 383.644 59.8423 384.056 59.6801C384.471 59.5179 384.939 59.7223 385.098 60.1343C385.36 60.8026 385.62 61.4872 385.87 62.162C386.022 62.5806 385.808 63.0413 385.393 63.1937C385.302 63.2262 385.208 63.2424 385.117 63.2424ZM383.543 59.2356C383.228 59.2356 382.93 59.0507 382.8 58.7392C382.527 58.0871 382.245 57.4253 381.96 56.7764C381.781 56.3708 381.966 55.8939 382.372 55.7155C382.777 55.537 383.254 55.722 383.433 56.1275C383.725 56.7861 384.011 57.4577 384.286 58.1196C384.458 58.5284 384.264 59.002 383.851 59.1707C383.751 59.2129 383.647 59.2356 383.543 59.2356ZM381.81 55.297C381.505 55.297 381.216 55.125 381.08 54.8298C380.782 54.1874 380.473 53.5418 380.162 52.9059C379.967 52.5068 380.133 52.0234 380.532 51.8287C380.931 51.6341 381.414 51.7995 381.609 52.1986C381.924 52.8442 382.239 53.5028 382.544 54.1517C382.732 54.554 382.557 55.0342 382.154 55.2191C382.037 55.2743 381.924 55.297 381.81 55.297ZM195.24 52.0072C195.101 52.0072 194.958 51.9715 194.831 51.8936C194.448 51.6665 194.325 51.1734 194.549 50.7905C194.565 50.7646 194.961 50.0995 195.763 48.9348C196.016 48.5682 196.515 48.4773 196.882 48.7271C197.249 48.9802 197.34 49.4798 197.09 49.8464C196.321 50.9625 195.938 51.6049 195.935 51.6114C195.782 51.8644 195.516 52.0072 195.24 52.0072ZM379.918 51.4394C379.626 51.4394 379.344 51.2804 379.201 51.0014C378.877 50.3688 378.546 49.7394 378.205 49.1164C377.994 48.7239 378.14 48.2372 378.53 48.0263C378.919 47.8155 379.409 47.9614 379.62 48.3508C379.964 48.9867 380.298 49.6226 380.629 50.265C380.834 50.6608 380.678 51.1442 380.282 51.3486C380.168 51.4102 380.042 51.4394 379.918 51.4394ZM197.677 48.4416C197.512 48.4416 197.343 48.3897 197.2 48.2859C196.843 48.0231 196.765 47.517 197.028 47.1601C197.447 46.5923 197.888 46.0083 198.342 45.4276C198.615 45.0772 199.121 45.0156 199.472 45.2881C199.822 45.5606 199.884 46.0667 199.611 46.4171C199.167 46.9849 198.735 47.5559 198.323 48.1139C198.167 48.3281 197.924 48.4416 197.677 48.4416ZM377.877 47.6597C377.598 47.6597 377.322 47.5137 377.176 47.2509C376.826 46.6313 376.469 46.0181 376.109 45.4081C375.882 45.0253 376.008 44.5322 376.391 44.305C376.774 44.0779 377.267 44.2045 377.494 44.5873C377.861 45.207 378.224 45.8299 378.578 46.4593C378.796 46.8454 378.659 47.3385 378.273 47.5559C378.147 47.624 378.01 47.6597 377.877 47.6597ZM200.319 45.048C200.14 45.048 199.959 44.9896 199.809 44.8663C199.465 44.5841 199.413 44.078 199.696 43.734C200.143 43.1857 200.614 42.6277 201.088 42.0729C201.377 41.7355 201.886 41.6966 202.224 41.9853C202.561 42.2741 202.6 42.7834 202.311 43.1209C201.844 43.6659 201.383 44.2142 200.942 44.756C200.783 44.9474 200.552 45.048 200.319 45.048ZM375.69 43.9644C375.421 43.9644 375.158 43.8281 375.005 43.5816C374.632 42.9781 374.253 42.3779 373.866 41.7809C373.626 41.4078 373.733 40.9082 374.106 40.6681C374.48 40.428 374.979 40.5351 375.22 40.9082C375.609 41.5116 375.995 42.1216 376.375 42.7348C376.608 43.1144 376.492 43.6075 376.115 43.8411C375.982 43.9255 375.836 43.9644 375.69 43.9644ZM203.116 41.7842C202.925 41.7842 202.733 41.716 202.581 41.5798C202.25 41.2845 202.22 40.7752 202.516 40.4443C202.993 39.9089 203.486 39.3704 203.976 38.8448C204.278 38.5203 204.787 38.5009 205.115 38.8059C205.439 39.1076 205.459 39.6169 205.154 39.9446C204.67 40.4637 204.187 40.9926 203.716 41.5181C203.557 41.6933 203.337 41.7842 203.116 41.7842ZM373.36 40.3631C373.101 40.3631 372.847 40.2399 372.692 40.0095C372.296 39.4223 371.893 38.8383 371.484 38.2576C371.228 37.8942 371.316 37.3913 371.679 37.135C372.043 36.8787 372.546 36.9663 372.802 37.3297C373.217 37.9169 373.623 38.5106 374.029 39.1076C374.278 39.4774 374.181 39.9771 373.811 40.2236C373.672 40.3177 373.516 40.3631 373.36 40.3631ZM206.043 38.6404C205.842 38.6404 205.637 38.5658 205.482 38.4133C205.164 38.1051 205.154 37.5957 205.465 37.2745C205.955 36.7684 206.462 36.2558 206.987 35.7367C207.302 35.4252 207.812 35.4252 208.126 35.7399C208.438 36.0546 208.438 36.564 208.123 36.8787C207.607 37.3913 207.107 37.8974 206.624 38.3938C206.465 38.5593 206.254 38.6404 206.043 38.6404ZM370.894 36.8592C370.647 36.8592 370.401 36.7457 370.245 36.5316C369.826 35.9605 369.401 35.3928 368.969 34.8315C368.7 34.4779 368.768 33.9717 369.119 33.7025C369.473 33.4332 369.975 33.5013 370.248 33.8517C370.686 34.4227 371.115 34.997 371.543 35.5777C371.806 35.9346 371.728 36.4407 371.371 36.7035C371.228 36.8073 371.059 36.8592 370.894 36.8592ZM209.093 35.6166C208.883 35.6166 208.668 35.5323 208.513 35.3668C208.204 35.0456 208.217 34.5363 208.539 34.2281C209.051 33.7414 209.577 33.2483 210.119 32.7486C210.447 32.4469 210.956 32.4696 211.255 32.7973C211.556 33.125 211.534 33.6343 211.206 33.9328C210.674 34.4227 210.155 34.9094 209.648 35.3895C209.493 35.542 209.295 35.6166 209.093 35.6166ZM368.295 33.4591C368.058 33.4591 367.824 33.3553 367.665 33.1542C367.227 32.6026 366.776 32.0478 366.325 31.506C366.039 31.1654 366.088 30.656 366.429 30.3738C366.773 30.0882 367.279 30.1369 367.561 30.4776C368.019 31.0291 368.476 31.5904 368.921 32.1484C369.197 32.4956 369.142 33.0017 368.794 33.2807C368.645 33.4007 368.47 33.4591 368.295 33.4591ZM212.257 32.7129C212.033 32.7129 211.813 32.6221 211.654 32.4404C211.359 32.1062 211.391 31.6001 211.722 31.3049C212.254 30.8345 212.796 30.364 213.354 29.8871C213.692 29.5983 214.201 29.6405 214.49 29.9779C214.779 30.3154 214.737 30.8247 214.399 31.1135C213.851 31.5807 213.312 32.0478 212.79 32.5118C212.637 32.6448 212.446 32.7129 212.257 32.7129ZM365.559 30.1661C365.335 30.1661 365.108 30.072 364.949 29.8871C364.488 29.3518 364.011 28.8165 363.537 28.2909C363.239 27.9599 363.265 27.4506 363.596 27.1553C363.927 26.8569 364.433 26.8828 364.731 27.2137C365.212 27.7491 365.695 28.2941 366.163 28.8359C366.455 29.1733 366.416 29.6795 366.081 29.9714C365.935 30.1012 365.747 30.1661 365.559 30.1661ZM215.525 29.926C215.292 29.926 215.061 29.8255 214.902 29.6308C214.62 29.2869 214.669 28.7808 215.013 28.4985C215.561 28.0475 216.122 27.5966 216.697 27.1424C217.044 26.8666 217.55 26.925 217.826 27.2754C218.102 27.6225 218.043 28.1286 217.693 28.4044C217.128 28.8521 216.573 29.2966 216.031 29.7411C215.885 29.8676 215.704 29.926 215.525 29.926ZM218.894 27.2656C218.65 27.2656 218.41 27.1553 218.251 26.9477C217.982 26.5941 218.05 26.0879 218.404 25.8187C218.972 25.3872 219.546 24.9557 220.137 24.5242C220.493 24.2614 221 24.3392 221.263 24.6961C221.525 25.053 221.448 25.5591 221.091 25.8219C220.51 26.2469 219.942 26.6719 219.384 27.0969C219.234 27.2105 219.066 27.2656 218.894 27.2656ZM362.684 26.9801C362.47 26.9801 362.255 26.8958 362.096 26.7271C361.61 26.2112 361.113 25.6954 360.62 25.1925C360.308 24.8746 360.312 24.3652 360.63 24.0537C360.948 23.7423 361.457 23.7455 361.769 24.0635C362.272 24.5761 362.775 25.0984 363.268 25.624C363.573 25.9484 363.557 26.4578 363.232 26.7628C363.08 26.9088 362.882 26.9801 362.684 26.9801ZM222.356 24.7285C222.103 24.7285 221.853 24.6085 221.697 24.3879C221.441 24.0245 221.529 23.5217 221.892 23.2653C222.473 22.8533 223.067 22.4445 223.67 22.0357C224.037 21.7859 224.54 21.8832 224.79 22.2499C225.04 22.6165 224.942 23.1193 224.576 23.3692C223.982 23.7715 223.398 24.177 222.823 24.5826C222.681 24.6799 222.518 24.7285 222.356 24.7285ZM359.676 23.9175C359.474 23.9175 359.27 23.8428 359.114 23.6904C358.608 23.1972 358.089 22.7041 357.573 22.2207C357.248 21.9189 357.229 21.4096 357.534 21.0819C357.839 20.7574 358.345 20.738 358.673 21.043C359.199 21.5329 359.724 22.0357 360.24 22.5354C360.558 22.8468 360.565 23.3562 360.253 23.6741C360.094 23.8363 359.883 23.9175 359.676 23.9175ZM225.91 22.3147C225.647 22.3147 225.39 22.185 225.235 21.9514C224.991 21.5783 225.095 21.0819 225.468 20.8386C226.065 20.4492 226.672 20.0599 227.289 19.6738C227.665 19.437 228.162 19.5505 228.399 19.9269C228.635 20.3032 228.522 20.7996 228.145 21.0365C227.539 21.4193 226.938 21.8021 226.351 22.185C226.211 22.2726 226.059 22.3147 225.91 22.3147ZM356.534 20.991C356.343 20.991 356.151 20.9229 355.999 20.7866C355.467 20.313 354.928 19.8425 354.393 19.3883C354.055 19.0996 354.013 18.5935 354.302 18.2528C354.591 17.9154 355.097 17.8732 355.437 18.162C355.979 18.6227 356.528 19.0996 357.07 19.583C357.401 19.8782 357.43 20.3876 357.135 20.7185C356.976 20.9002 356.755 20.991 356.534 20.991ZM229.544 20.034C229.271 20.034 229.005 19.8944 228.853 19.6446C228.622 19.265 228.746 18.7687 229.125 18.5383C229.735 18.1684 230.355 17.8018 230.985 17.4385C231.371 17.2146 231.861 17.3476 232.085 17.7305C232.309 18.1133 232.176 18.6064 231.793 18.8303C231.173 19.1904 230.56 19.5505 229.956 19.9139C229.83 19.995 229.687 20.034 229.544 20.034ZM353.263 18.2106C353.085 18.2106 352.906 18.1522 352.757 18.0322C352.209 17.5877 351.647 17.1432 351.089 16.7117C350.739 16.4392 350.67 15.9363 350.943 15.5827C351.216 15.229 351.719 15.1642 352.072 15.4367C352.64 15.8747 353.211 16.3256 353.773 16.7799C354.117 17.0589 354.172 17.565 353.893 17.9121C353.731 18.1101 353.497 18.2106 353.263 18.2106ZM233.256 17.8829C232.974 17.8829 232.698 17.7337 232.552 17.4677C232.335 17.0783 232.478 16.5884 232.864 16.3743C233.487 16.0272 234.12 15.6833 234.762 15.3426C235.155 15.1317 235.642 15.281 235.852 15.6735C236.06 16.0661 235.914 16.5528 235.521 16.7636C234.889 17.101 234.266 17.4417 233.649 17.7824C233.526 17.8505 233.389 17.8829 233.256 17.8829ZM237.047 15.8617C236.755 15.8617 236.472 15.7027 236.33 15.4237C236.128 15.0279 236.284 14.5445 236.68 14.3401C237.316 14.0157 237.962 13.6945 238.614 13.3733C239.013 13.1786 239.497 13.3441 239.691 13.7431C239.886 14.1422 239.721 14.6256 239.321 14.8203C238.679 15.135 238.043 15.4529 237.413 15.7741C237.293 15.8358 237.17 15.8617 237.047 15.8617ZM349.862 15.5892C349.697 15.5892 349.531 15.5373 349.389 15.4334C348.817 15.0149 348.233 14.5996 347.656 14.2006C347.289 13.9475 347.198 13.4446 347.451 13.0813C347.704 12.7147 348.207 12.6238 348.571 12.8769C349.158 13.2824 349.752 13.7074 350.336 14.1357C350.696 14.3985 350.774 14.9014 350.511 15.2615C350.356 15.4756 350.112 15.5892 349.862 15.5892ZM240.902 13.98C240.6 13.98 240.308 13.808 240.172 13.516C239.983 13.1137 240.159 12.6336 240.561 12.4454C241.21 12.1437 241.862 11.8452 242.524 11.5467C242.93 11.365 243.407 11.5467 243.589 11.9522C243.771 12.3578 243.589 12.8347 243.183 13.0164C242.528 13.3084 241.882 13.6036 241.243 13.9021C241.132 13.954 241.015 13.98 240.902 13.98ZM346.335 13.1462C346.182 13.1462 346.03 13.104 345.894 13.0132C345.3 12.6238 344.696 12.241 344.099 11.8744C343.719 11.6408 343.603 11.1444 343.836 10.768C344.07 10.3885 344.566 10.2717 344.943 10.5053C345.553 10.8816 346.166 11.2709 346.773 11.6667C347.146 11.9101 347.25 12.4097 347.007 12.7796C346.854 13.0164 346.598 13.1462 346.335 13.1462ZM244.822 12.228C244.51 12.228 244.212 12.0431 244.082 11.7381C243.907 11.3293 244.098 10.8556 244.507 10.6837C245.166 10.4047 245.831 10.1289 246.503 9.85638C246.915 9.68767 247.386 9.88883 247.551 10.3009C247.72 10.7129 247.519 11.1833 247.106 11.3488C246.444 11.6181 245.786 11.8906 245.137 12.1664C245.033 12.2085 244.926 12.228 244.822 12.228ZM342.681 10.8946C342.545 10.8946 342.405 10.8589 342.279 10.7875C341.669 10.4339 341.042 10.0835 340.426 9.75256C340.033 9.54168 339.89 9.05178 340.101 8.66245C340.312 8.26989 340.802 8.12713 341.191 8.33802C341.824 8.67868 342.46 9.03556 343.083 9.39568C343.47 9.61954 343.599 10.1094 343.375 10.4955C343.229 10.7486 342.96 10.8946 342.681 10.8946ZM248.797 10.6156C248.473 10.6156 248.171 10.4209 248.048 10.0997C247.889 9.68443 248.093 9.22049 248.508 9.05827C249.177 8.80196 249.849 8.5489 250.53 8.29909C250.945 8.1466 251.409 8.36073 251.562 8.77601C251.715 9.19129 251.5 9.65523 251.085 9.80772C250.413 10.0543 249.748 10.3041 249.089 10.5572C248.992 10.5993 248.895 10.6156 248.797 10.6156ZM252.828 9.13938C252.493 9.13938 252.182 8.93174 252.068 8.59757C251.922 8.17905 252.146 7.71834 252.565 7.57235C253.24 7.33875 253.921 7.1084 254.609 6.8813C255.031 6.74179 255.485 6.97214 255.625 7.39391C255.764 7.81567 255.534 8.26989 255.112 8.40939C254.434 8.63326 253.759 8.86036 253.09 9.09071C253.003 9.1264 252.915 9.13938 252.828 9.13938ZM338.904 8.85387C338.784 8.85387 338.66 8.82792 338.543 8.76952C337.911 8.45157 337.268 8.14011 336.632 7.84812C336.23 7.65995 336.055 7.18302 336.239 6.78072C336.428 6.37842 336.905 6.20323 337.307 6.38816C337.956 6.68988 338.612 7.00783 339.261 7.33226C339.657 7.53341 339.819 8.01682 339.618 8.41264C339.485 8.69165 339.199 8.85387 338.904 8.85387ZM256.903 7.79945C256.559 7.79945 256.241 7.57884 256.134 7.23169C256.001 6.80668 256.241 6.35571 256.663 6.22594C257.345 6.01505 258.036 5.80741 258.73 5.60302C259.156 5.47649 259.603 5.72306 259.73 6.14807C259.853 6.57633 259.61 7.02081 259.185 7.14734C258.497 7.34849 257.819 7.55288 257.144 7.76376C257.062 7.78972 256.985 7.79945 256.903 7.79945ZM335.013 7.04676C334.909 7.04676 334.802 7.02729 334.698 6.98187C334.049 6.7061 333.387 6.43682 332.735 6.18376C332.319 6.02479 332.115 5.5576 332.274 5.14232C332.433 4.72704 332.9 4.52264 333.316 4.68162C333.984 4.94117 334.662 5.21694 335.328 5.4992C335.737 5.67439 335.928 6.14483 335.753 6.55362C335.623 6.86508 335.324 7.04676 335.013 7.04676ZM261.025 6.5958C260.671 6.5958 260.346 6.3622 260.249 6.00532C260.132 5.57706 260.382 5.13258 260.814 5.01579C261.502 4.82761 262.199 4.64269 262.9 4.461C263.332 4.35069 263.77 4.61024 263.88 5.0385C263.991 5.47 263.731 5.90799 263.303 6.0183C262.612 6.19674 261.924 6.37842 261.242 6.56659C261.164 6.58606 261.093 6.5958 261.025 6.5958ZM265.178 5.5284C264.815 5.5284 264.484 5.28183 264.396 4.91197C264.293 4.48047 264.559 4.04572 264.99 3.9419C265.685 3.77644 266.386 3.61422 267.093 3.45525C267.528 3.35792 267.956 3.63044 268.054 4.06519C268.151 4.49993 267.878 4.92819 267.443 5.02552C266.746 5.18125 266.051 5.34023 265.367 5.50569C265.305 5.52191 265.24 5.5284 265.178 5.5284ZM331.012 5.4992C330.924 5.4992 330.833 5.48622 330.749 5.45378C330.08 5.22018 329.405 4.99956 328.737 4.79192C328.312 4.66215 328.075 4.21119 328.205 3.78617C328.334 3.36116 328.785 3.12432 329.211 3.2541C329.895 3.46498 330.59 3.69533 331.278 3.93217C331.696 4.07817 331.92 4.53562 331.774 4.95739C331.654 5.29156 331.343 5.4992 331.012 5.4992ZM269.368 4.59402C268.995 4.59402 268.66 4.33123 268.579 3.95163C268.488 3.51689 268.771 3.09188 269.206 3.00104C269.907 2.85504 270.611 2.71553 271.321 2.58251C271.756 2.49816 272.178 2.78691 272.262 3.22165C272.347 3.65964 272.058 4.07817 271.623 4.16252C270.919 4.29554 270.221 4.43505 269.53 4.5778C269.475 4.58753 269.42 4.59402 269.368 4.59402ZM326.91 4.2339C326.842 4.2339 326.77 4.22416 326.699 4.20469C326.014 4.01977 325.323 3.84782 324.645 3.69533C324.213 3.59476 323.941 3.1665 324.038 2.73176C324.139 2.29701 324.567 2.02773 325.002 2.12506C325.699 2.28403 326.41 2.46247 327.114 2.65065C327.543 2.76744 327.799 3.20867 327.682 3.63693C327.591 3.99706 327.267 4.2339 326.91 4.2339ZM273.583 3.78942C273.2 3.78942 272.86 3.51364 272.791 3.12432C272.714 2.68633 273.009 2.27105 273.447 2.19319C274.151 2.0699 274.862 1.95311 275.576 1.83955C276.014 1.77142 276.426 2.0699 276.497 2.50789C276.565 2.94588 276.267 3.35792 275.829 3.42929C275.121 3.54284 274.42 3.65964 273.723 3.77968C273.674 3.78617 273.629 3.78942 273.583 3.78942ZM322.73 3.28005C322.681 3.28005 322.63 3.27681 322.581 3.26707C321.886 3.1373 321.185 3.0205 320.498 2.91993C320.056 2.85504 319.754 2.44625 319.816 2.00826C319.881 1.56703 320.29 1.26206 320.728 1.32694C321.439 1.43076 322.159 1.55081 322.876 1.68383C323.314 1.76494 323.6 2.1867 323.519 2.62469C323.447 3.01077 323.11 3.28005 322.73 3.28005ZM277.821 3.11784C277.429 3.11784 277.085 2.82909 277.026 2.42678C276.965 1.98555 277.27 1.58001 277.708 1.51512C278.415 1.41454 279.129 1.31721 279.846 1.22637C280.284 1.16797 280.69 1.48267 280.748 1.92391C280.804 2.36514 280.492 2.76744 280.051 2.82584C279.34 2.91668 278.636 3.01077 277.935 3.11135C277.899 3.11459 277.86 3.11784 277.821 3.11784ZM318.486 2.66038C318.456 2.66038 318.427 2.66038 318.398 2.65714C317.687 2.57927 316.977 2.50789 316.272 2.43976C315.831 2.39758 315.507 2.00502 315.549 1.56054C315.591 1.11931 315.984 0.79487 316.428 0.837047C317.139 0.905179 317.853 0.979797 318.573 1.05766C319.015 1.10633 319.336 1.50214 319.287 1.94337C319.238 2.35541 318.891 2.66038 318.486 2.66038ZM282.079 2.57278C281.676 2.57278 281.326 2.27105 281.281 1.85902C281.232 1.41779 281.547 1.01873 281.991 0.970062C282.702 0.888953 283.416 0.814334 284.136 0.742958C284.581 0.700781 284.973 1.02197 285.016 1.46645C285.058 1.90768 284.737 2.3035 284.292 2.34567C283.581 2.41705 282.874 2.49167 282.17 2.56954C282.137 2.56954 282.108 2.57278 282.079 2.57278ZM314.212 2.24834C314.189 2.24834 314.166 2.24834 314.144 2.2451C313.43 2.18346 312.719 2.1283 312.015 2.07639C311.57 2.04395 311.239 1.65787 311.272 1.21664C311.304 0.772159 311.694 0.437987 312.132 0.473675C312.846 0.525584 313.56 0.583984 314.28 0.642383C314.721 0.681315 315.052 1.07064 315.013 1.51187C314.978 1.93039 314.627 2.24834 314.212 2.24834ZM286.349 2.15101C285.934 2.15101 285.584 1.83307 285.548 1.41454C285.512 0.97331 285.84 0.583983 286.281 0.545051C286.995 0.486652 287.709 0.4315 288.433 0.37959C288.881 0.347147 289.26 0.684562 289.293 1.1258C289.325 1.57027 288.988 1.95311 288.546 1.98555C287.832 2.03422 287.122 2.08937 286.418 2.14777C286.395 2.15101 286.372 2.15101 286.349 2.15101ZM309.935 1.93364C309.919 1.93364 309.902 1.93364 309.886 1.93364C309.172 1.89146 308.461 1.84929 307.754 1.81684C307.309 1.79413 306.969 1.41779 306.988 0.97331C307.011 0.528832 307.387 0.188173 307.832 0.207639C308.546 0.243327 309.263 0.282258 309.983 0.327679C310.428 0.353634 310.766 0.736471 310.736 1.18095C310.71 1.60272 310.357 1.93364 309.935 1.93364ZM290.63 1.85253C290.205 1.85253 289.851 1.52161 289.828 1.09335C289.802 0.648872 290.143 0.269281 290.588 0.24657C291.301 0.207638 292.019 0.171952 292.742 0.142753C293.184 0.120042 293.56 0.470432 293.579 0.911666C293.599 1.35614 293.252 1.72925 292.81 1.74871C292.096 1.77791 291.386 1.8136 290.678 1.85253C290.659 1.85253 290.646 1.85253 290.63 1.85253ZM305.648 1.72276C305.638 1.72276 305.629 1.72276 305.619 1.72276C304.905 1.6968 304.191 1.67409 303.484 1.65787C303.039 1.64814 302.688 1.27828 302.698 0.833799C302.708 0.389321 303.071 0.035686 303.522 0.0486635C304.236 0.0648853 304.957 0.0875949 305.677 0.11355C306.122 0.129772 306.469 0.502876 306.453 0.947354C306.433 1.3821 306.076 1.72276 305.648 1.72276ZM294.916 1.67409C294.482 1.67409 294.125 1.33019 294.112 0.8922C294.099 0.447722 294.449 0.0778638 294.894 0.0648863C295.608 0.0454201 296.328 0.0291985 297.052 0.0194654C297.055 0.0194654 297.058 0.0194654 297.065 0.0194654C297.503 0.0194654 297.863 0.373102 297.869 0.811091C297.876 1.25557 297.522 1.62218 297.078 1.62867C296.361 1.6384 295.65 1.65462 294.942 1.67409C294.933 1.67409 294.926 1.67409 294.916 1.67409ZM301.355 1.61894C301.351 1.61894 301.348 1.61894 301.345 1.61894C300.722 1.61245 300.102 1.6092 299.486 1.6092H299.21C298.765 1.6092 298.405 1.24908 298.405 0.804601C298.405 0.360123 298.765 0 299.21 0H299.489C300.112 0 300.735 0.00324397 301.364 0.0097327C301.809 0.0162214 302.166 0.379589 302.159 0.824067C302.156 1.2653 301.796 1.61894 301.355 1.61894Z" fill="#6BB7BF"/>
<path d="M852.837 405.153C852.837 405.153 809.365 405.225 743.062 405.364C742.072 404.939 741.543 404.692 741.543 404.692C741.543 404.692 749.036 363.703 787.912 354.904C826.788 346.106 827.249 308.546 851.529 301.054C871.499 294.906 889.344 303.034 901.468 300.947C920.623 361.552 852.837 405.153 852.837 405.153Z" fill="#96D9C9"/>
<path d="M275.788 255.727C275.788 255.727 275.295 256.256 274.377 257.246C271.018 260.886 261.899 270.778 251.862 282.156C249.493 284.842 247.056 287.633 244.616 290.423C240.975 294.627 237.405 298.832 234.082 302.897L234.046 302.933C233.021 304.133 232.067 305.301 231.113 306.466C229.133 308.906 227.297 311.235 225.6 313.429C220.511 320.07 216.942 325.442 216.27 328.161C212.207 345.158 220.122 393 222.173 404.696H111.126C114.484 380.386 119.147 346.041 119.751 340.811C120.669 332.577 91.9373 297.242 91.4408 271.45C90.98 245.689 108.017 227.245 110.704 201.877C112.011 189.935 110.525 174.388 108.617 161.138C107.627 154.107 106.462 147.817 105.544 143.047C105.083 140.715 105.862 138.56 107.313 137.075C107.702 136.685 108.124 136.296 108.585 136.049C110.353 134.885 112.648 134.602 114.841 135.556C121.202 138.278 128.273 145.487 130.109 163.471C130.109 163.471 135.444 166.829 144.07 172.305C147.568 174.495 151.598 177.039 156.051 179.868C159.477 182.022 163.154 184.355 167.006 186.794C167.253 186.937 167.503 187.112 167.749 187.255C169.304 188.245 170.826 189.234 172.451 190.256H172.487C173.052 190.61 173.62 190.999 174.22 191.353C175.245 192.024 176.307 192.696 177.4 193.368C177.611 193.507 177.825 193.65 178.072 193.757C185.068 198.208 192.386 202.874 199.772 207.575H199.808C201.008 208.279 202.212 209.057 203.413 209.836C204.331 210.436 205.285 211.001 206.239 211.604C207.404 212.383 208.608 213.122 209.809 213.865H209.845C218.22 219.167 226.421 224.397 234.089 229.237C235.289 230.016 236.493 230.756 237.658 231.499C238.612 232.099 239.531 232.702 240.449 233.267C241.685 234.045 242.818 234.785 243.983 235.564H244.019C258.651 244.784 269.96 251.993 274.094 254.644C275.188 255.338 275.788 255.692 275.788 255.727Z" fill="#FFB27D"/>
<path d="M114.274 154.925C114.443 157.926 112.369 160.557 109.397 161.005L108.627 161.118C107.618 154.117 106.469 147.806 105.551 143.034C105.097 140.701 104.399 138.459 104.597 136.072C109.429 133.706 111.288 139.423 111.882 141.739C112.872 145.513 114.001 150.584 114.274 154.925Z" fill="#FFC197"/>
<path opacity="0.3" d="M244.616 290.426C240.975 294.631 237.405 298.835 234.082 302.901L234.046 302.936C233.021 304.137 232.067 305.305 231.113 306.469C229.133 308.909 227.297 311.239 225.599 313.432C220.511 320.073 216.942 325.446 216.27 328.164C212.207 345.162 220.122 393.003 222.173 404.699H149.934C163.329 384.737 165.059 349.577 165.166 333.43C165.202 329.365 166.51 324.489 168.629 319.33C172.659 309.367 179.584 298.2 185.948 288.976C191.815 280.424 197.221 273.572 199.415 270.85C199.415 270.85 199.415 270.85 199.415 270.814C200.122 270.003 200.476 269.542 200.476 269.542L240.413 267.845H240.449L240.978 270.671L241.403 273.075L243.24 283.039L244.616 290.426Z" fill="#E2915A"/>
<path d="M272.797 308.552L153.27 320.903C149.522 321.289 146.141 318.541 145.752 314.794L121.05 75.8239C120.664 72.0766 123.412 68.696 127.16 68.3067L246.687 55.9554C250.435 55.5693 253.816 58.3173 254.206 62.0645L278.908 301.035C279.294 304.782 276.545 308.166 272.797 308.552Z" fill="#C8800E"/>
<path d="M285.703 307.219L166.177 319.57C162.429 319.956 159.047 317.208 158.658 313.461L133.956 74.4906C133.57 70.7434 136.319 67.3628 140.067 66.9734L259.593 54.6221C263.341 54.236 266.723 56.984 267.112 60.7313L291.814 299.702C292.2 303.449 289.451 306.833 285.703 307.219Z" fill="#EAB054"/>
<path opacity="0.4" d="M221.815 69.5529C221.737 68.8132 221.069 68.2682 220.329 68.346L185.717 71.9213C184.977 71.9992 184.431 72.6675 184.509 73.4072C184.587 74.147 185.256 74.692 185.996 74.6142L220.608 71.0389C221.348 70.961 221.893 70.2927 221.815 69.5529Z" fill="#C8800E"/>
<path opacity="0.4" d="M179.57 72.5572C178.83 72.6351 178.285 73.3034 178.363 74.0431C178.441 74.7829 179.109 75.3279 179.849 75.25C180.589 75.1722 181.134 74.5038 181.056 73.7641C180.978 73.0244 180.31 72.4793 179.57 72.5572Z" fill="#C8800E"/>
<path opacity="0.4" d="M234.832 298.371C234.336 293.576 230.046 290.089 225.249 290.585C220.453 291.081 216.965 295.37 217.461 300.165C217.958 304.961 222.248 308.448 227.044 307.952C231.84 307.456 235.329 303.167 234.832 298.371Z" fill="#C8800E"/>
<path d="M257.11 75.1253L146.406 86.5637L167.526 290.873L278.23 279.434L257.11 75.1253Z" fill="#FBECDB"/>
<path d="M275.782 255.732L165.078 267.17L167.53 290.886L278.234 279.448L275.782 255.732Z" fill="#FCE6D2"/>
<path d="M200.725 271.939L257.858 266.034C258.52 265.966 259.004 265.369 258.935 264.711C258.867 264.049 258.27 263.565 257.611 263.634L200.478 269.538C199.816 269.606 199.333 270.203 199.401 270.862C199.469 271.524 200.066 272.007 200.725 271.939Z" fill="#F1A34E"/>
<path d="M259.48 269.973C259.412 269.311 258.815 268.828 258.156 268.896L201.023 274.801C200.361 274.869 199.878 275.466 199.946 276.124C200.014 276.786 200.611 277.269 201.27 277.201L258.403 271.297C259.065 271.228 259.549 270.632 259.48 269.973Z" fill="#F1A34E"/>
<path d="M191.744 266.752C191.673 265.937 191.462 265.198 191.144 264.49C189.836 261.204 186.477 259.085 182.804 259.475C179.127 259.864 176.265 262.618 175.629 266.083C175.489 266.862 175.454 267.637 175.522 268.452C175.983 272.903 185.134 282.02 185.134 282.02C185.134 282.02 192.205 271.239 191.744 266.752ZM184.005 271.31C181.921 271.521 180.045 270.003 179.835 267.917C179.763 267.07 179.942 266.255 180.328 265.584C180.928 264.559 181.989 263.851 183.226 263.712C184.498 263.569 185.663 264.065 186.442 264.948C186.974 265.512 187.324 266.255 187.431 267.102C187.646 269.224 186.124 271.099 184.005 271.31Z" fill="#EAB054"/>
<path d="M167.5 168.094L231.332 161.498L225.892 108.876L162.061 115.471L167.5 168.094Z" fill="#C8800E"/>
<path d="M247.706 106.624L193.975 112.176L199.414 164.798L253.146 159.246L247.706 106.624Z" fill="#EAB054"/>
<path opacity="0.4" d="M251.767 145.903L253.146 159.247L199.413 164.798L193.975 112.177L251.767 145.903Z" fill="#D86713"/>
<path d="M166.159 154.747L176.274 153.702L175.089 150.948L175.767 148.823L165.652 149.867L166.159 154.747Z" fill="#F1A34F"/>
<path d="M163.967 133.551L174.082 132.506L172.894 129.755L173.576 127.627L163.461 128.675L163.967 133.551Z" fill="#F1A34F"/>
<path opacity="0.4" d="M249.576 124.707L239.461 125.751L240.058 122.815L238.955 120.872L249.07 119.827L249.576 124.707Z" fill="#D86713"/>
<path d="M177.109 183.08C176.791 182.869 176.438 182.69 176.048 182.515C175.058 182.126 173.926 181.95 172.761 182.054C170.003 182.337 167.776 184.28 167.001 186.791C166.719 187.638 166.611 188.559 166.719 189.513C167.108 193.225 170.463 195.943 174.176 195.554C175.694 195.411 177.038 194.779 178.063 193.753C179.582 192.41 180.465 190.327 180.218 188.099C180.007 185.977 178.807 184.14 177.109 183.08ZM177.392 193.361C176.509 194.136 175.376 194.633 174.104 194.775C170.817 195.093 167.848 192.725 167.53 189.438C167.458 188.696 167.53 187.953 167.741 187.249C168.341 184.916 170.321 183.08 172.865 182.833C173.854 182.726 174.809 182.869 175.656 183.258C176.081 183.401 176.467 183.612 176.821 183.858C178.235 184.812 179.261 186.369 179.436 188.206C179.653 190.217 178.842 192.125 177.392 193.361Z" fill="#DDB997"/>
<path d="M169.551 185.727L173.851 192.414L179.607 175.861L173.348 187.544L169.551 185.727Z" fill="#EAB054"/>
<path d="M182.8 213.009C182.589 210.854 181.386 209.051 179.692 207.957C179.374 207.746 178.984 207.568 178.63 207.393C177.605 207.003 176.511 206.828 175.343 206.935C171.631 207.325 168.911 210.679 169.301 214.391C169.69 218.102 173.013 220.821 176.758 220.432C180.467 220.075 183.187 216.717 182.8 213.009ZM176.648 219.65C173.36 220.004 170.427 217.599 170.073 214.313C169.755 211.026 172.156 208.058 175.447 207.74C176.437 207.633 177.391 207.776 178.238 208.129C178.663 208.269 179.052 208.483 179.403 208.729C180.818 209.683 181.843 211.237 182.018 213.077C182.34 216.363 179.935 219.296 176.648 219.65Z" fill="#DDB997"/>
<path d="M172.121 210.608L176.421 217.295L182.181 200.742L175.918 212.425L172.121 210.608Z" fill="#EAB054"/>
<path d="M185.379 237.884C184.989 234.136 181.634 231.418 177.921 231.807C174.209 232.196 171.49 235.551 171.879 239.262C172.268 243.006 175.591 245.693 179.336 245.339C183.049 244.95 185.768 241.595 185.379 237.884ZM179.229 244.528C175.942 244.882 173.008 242.478 172.655 239.191C172.336 235.905 174.705 232.936 177.993 232.618C181.28 232.264 184.249 234.668 184.567 237.955C184.921 241.242 182.516 244.174 179.229 244.528Z" fill="#DDB997"/>
<path d="M254.038 179.413L190.125 186.016C189.48 186.084 188.892 185.607 188.827 184.961L188.801 184.702C188.733 184.053 189.21 183.469 189.856 183.404L253.768 176.802C254.417 176.734 255.001 177.21 255.066 177.856L255.092 178.116C255.16 178.761 254.683 179.345 254.038 179.413Z" fill="#DDB997"/>
<path d="M254.518 184.065L190.606 190.671C189.957 190.736 189.373 190.262 189.308 189.616L189.282 189.357C189.214 188.711 189.691 188.124 190.337 188.059L254.249 181.457C254.898 181.389 255.482 181.866 255.547 182.511L255.573 182.771C255.641 183.413 255.167 183.997 254.518 184.065Z" fill="#DDB997"/>
<path d="M256.614 204.337L192.702 210.939C192.053 211.007 191.468 210.53 191.404 209.885L191.378 209.625C191.309 208.979 191.786 208.392 192.432 208.327L256.344 201.725C256.99 201.657 257.574 202.134 257.642 202.779L257.668 203.039C257.733 203.685 257.259 204.269 256.614 204.337Z" fill="#DDB997"/>
<path d="M257.094 208.989L193.182 215.591C192.536 215.659 191.952 215.183 191.884 214.537L191.858 214.277C191.79 213.628 192.267 213.044 192.913 212.98L256.825 206.377C257.474 206.309 258.058 206.786 258.123 207.432L258.149 207.691C258.217 208.337 257.74 208.921 257.094 208.989Z" fill="#DDB997"/>
<path d="M259.192 229.257L195.28 235.862C194.634 235.93 194.047 235.453 193.982 234.808L193.956 234.548C193.888 233.903 194.365 233.319 195.01 233.25L258.922 226.645C259.572 226.577 260.156 227.054 260.221 227.699L260.247 227.959C260.311 228.608 259.838 229.192 259.192 229.257Z" fill="#DDB997"/>
<path d="M259.672 233.91L195.76 240.515C195.111 240.583 194.527 240.106 194.462 239.461L194.436 239.201C194.368 238.552 194.845 237.968 195.491 237.903L259.403 231.298C260.052 231.23 260.636 231.707 260.701 232.352L260.727 232.612C260.795 233.261 260.318 233.845 259.672 233.91Z" fill="#DDB997"/>
<path d="M270.525 93.9665C270.525 93.9665 287.874 78.5558 299.254 87.3026C310.635 96.0494 273.654 124.223 273.654 124.223L270.525 93.9665Z" fill="#FFB27D"/>
<path d="M290.597 157.218L270.436 168.369C264.591 171.601 257.163 169.466 253.931 163.623L250.637 157.673C247.405 151.829 249.541 144.403 255.385 141.172L275.543 130.021C281.388 126.789 288.816 128.924 292.048 134.767L295.342 140.718C298.577 146.561 296.442 153.984 290.597 157.218Z" fill="#FFB27D"/>
<path d="M294.086 190.986L273.928 202.137C268.083 205.368 260.655 203.234 257.423 197.391L254.13 191.44C250.897 185.597 253.033 178.171 258.877 174.94L279.039 163.789C284.883 160.557 292.311 162.692 295.543 168.535L298.837 174.485C302.069 180.332 299.931 187.755 294.086 190.986Z" fill="#FFB27D"/>
<path d="M297.485 223.845L277.326 234.996C271.482 238.227 264.054 236.093 260.822 230.249L257.528 224.299C254.296 218.456 256.431 211.03 262.276 207.798L282.437 196.648C288.282 193.416 295.71 195.551 298.942 201.394L302.236 207.344C305.465 213.187 303.329 220.614 297.485 223.845Z" fill="#FFB27D"/>
<path d="M251.592 149.705C254.72 147.352 258.987 144.39 262.898 142.525C265.601 141.234 268.836 142.158 270.374 144.731L274.794 152.115C276.329 154.678 275.537 158.004 272.996 159.571C269.875 161.495 265.484 164.009 260.993 165.949C257.842 167.308 254.172 166.046 252.484 163.058L249.8 158.302C248.155 155.389 248.914 151.716 251.592 149.705Z" fill="#FFC197"/>
<path d="M255.178 184.403C258.306 182.051 262.573 179.092 266.484 177.224C269.187 175.932 272.422 176.857 273.961 179.43L278.38 186.814C279.915 189.377 279.123 192.702 276.583 194.269C273.461 196.193 269.07 198.708 264.579 200.648C261.431 202.007 257.758 200.745 256.074 197.757L253.39 193.001C251.741 190.091 252.504 186.415 255.178 184.403Z" fill="#FFC197"/>
<path d="M259.179 216.928C262.307 214.576 266.574 211.617 270.485 209.748C273.188 208.457 276.423 209.382 277.961 211.954L282.381 219.339C283.916 221.902 283.124 225.227 280.583 226.794C277.462 228.718 273.071 231.232 268.58 233.173C265.429 234.532 261.759 233.27 260.071 230.282L257.388 225.526C255.742 222.612 256.505 218.939 259.179 216.928Z" fill="#FFC197"/>
<path d="M368.207 324.673L414.813 332.006L384.127 310.44L382.453 317.188L371.066 319.083L368.207 324.673Z" fill="#CA5F00"/>
<path d="M414.814 332.005L376.239 311.413L338.178 308.95L414.814 332.005Z" fill="#F1A34F"/>
<path d="M384.129 310.44L414.815 332.005L391.297 298.656L384.129 310.44Z" fill="#F1A34F"/>
<path d="M315.8 42.0794L279.607 23.4341L311.971 24.0538L309.696 29.6081L316.66 36.7295L315.8 42.0794Z" fill="#CD8616"/>
<path d="M279.607 23.4341L316.968 28.7516L344.73 46.4334L279.607 23.4341Z" fill="#EAB054"/>
<path d="M311.971 24.0538L279.607 23.4341L312.986 12.1924L311.971 24.0538Z" fill="#EAB054"/>
</svg>
